Cinzel-Regular-OTF.ufo
<glyph name="exclam" format="1">
  <advance width="230"/>
  <unicode hex="0021"/>
  <outline>
    <contour>
      <point x="139.869" y="402.957" type="line"/>
      <point x="151.774" y="701.602" type="line"/>
      <point x="76.7745" y="701.602" type="line"/>
      <point x="88.6488" y="402.957" type="line"/>
      <point x="108.902" y="170" type="line"/>
      <point x="118.902" y="170" type="line"/>
    </contour>
    <contour>
      <point x="139.853" y="-4"/>
      <point x="160" y="16.147"/>
      <point x="160" y="41" type="curve" smooth="yes"/>
      <point x="160" y="65.853"/>
      <point x="139.853" y="86"/>
      <point x="115" y="86" type="curve" smooth="yes"/>
      <point x="90.1469" y="86"/>
      <point x="70" y="65.853"/>
      <point x="70" y="41" type="curve" smooth="yes"/>
      <point x="70" y="16.147"/>
      <point x="90.1469" y="-4"/>
      <point x="115" y="-4" type="curve" smooth="yes"/>
    </contour>
  </outline>
</glyph>
<glyph name="dollar" format="1">
  <advance width="469"/>
  <unicode hex="0024"/>
  <outline>
    <contour>
      <point x="249.768" y="401.594" type="line"/>
      <point x="271.32" y="681.91" type="line"/>
      <point x="327.519" y="673.851"/>
      <point x="363.76" y="637.452"/>
      <point x="363.76" y="581.034" type="curve"/>
      <point x="373.389" y="581.034" type="line"/>
      <point x="373.389" y="691.869" type="line"/>
      <point x="373.378" y="703.741" type="line"/>
      <point x="334.537" y="703.741" type="line"/>
      <point x="317.468" y="707.592"/>
      <point x="296.931" y="710.857"/>
      <point x="273.681" y="712.613" type="curve"/>
      <point x="279.395" y="786.94" type="line"/>
      <point x="248.871" y="787.988" type="line"/>
      <point x="243.213" y="713.956" type="line"/>
      <point x="144.887" y="714"/>
      <point x="72.4891" y="638.321"/>
      <point x="72.4891" y="545.679" type="curve" smooth="yes"/>
      <point x="72.4891" y="505.418"/>
      <point x="85.2911" y="459.312"/>
      <point x="126.453" y="421.085" type="curve" smooth="yes"/>
      <point x="214.575" y="339.247" type="line"/>
      <point x="190.043" y="18.2711" type="line"/>
      <point x="115.898" y="29.4098"/>
      <point x="71.2726" y="88.405"/>
      <point x="79.0532" y="180.047" type="curve"/>
      <point x="70.2612" y="180.047" type="line"/>
      <point x="55.0282" y="135.21"/>
      <point x="51.2482" y="71.51"/>
      <point x="58.7012" y="40.639" type="curve"/>
      <point x="87.2622" y="11.4507"/>
      <point x="137.048" y="-5"/>
      <point x="187.783" y="-11" type="curve"/>
      <point x="181.08" y="-99" type="line"/>
      <point x="211.05" y="-102" type="line"/>
      <point x="217.839" y="-14" type="line"/>
      <point x="342.085" y="-13"/>
      <point x="414.928" y="56.0971"/>
      <point x="414.928" y="173.728" type="curve" smooth="yes"/>
      <point x="414.928" y="215.787"/>
      <point x="403.515" y="259.272"/>
      <point x="365.021" y="294.906" type="curve" smooth="yes"/>
    </contour>
    <contour>
      <point x="168.514" y="476.809" type="line" smooth="yes"/>
      <point x="138.587" y="504.511"/>
      <point x="127.959" y="540.187"/>
      <point x="127.959" y="570.006" type="curve" smooth="yes"/>
      <point x="127.959" y="628.35"/>
      <point x="177.979" y="680.414"/>
      <point x="240.883" y="683.465" type="curve"/>
      <point x="221.35" y="427.9" type="line"/>
    </contour>
    <contour>
      <point x="242.949" y="312.896" type="line"/>
      <point x="318.007" y="243.189" type="line" smooth="yes"/>
      <point x="345.741" y="217.432"/>
      <point x="357.189" y="185.018"/>
      <point x="357.189" y="148.9" type="curve" smooth="yes"/>
      <point x="357.189" y="72.7942"/>
      <point x="297.495" y="18.8142"/>
      <point x="222.956" y="16.4512" type="curve" smooth="yes"/>
      <point x="220.152" y="16.3822" type="line"/>
    </contour>
  </outline>
</glyph>
<glyph name="percent" format="1">
  <advance width="684"/>
  <unicode hex="0025"/>
  <outline>
    <contour>
      <point x="518.586" y="709" type="line"/>
      <point x="486.842" y="694.042"/>
      <point x="434.291" y="652.74"/>
      <point x="377.397" y="657.066" type="curve" smooth="yes"/>
      <point x="328.063" y="660.817"/>
      <point x="300.617" y="696.059"/>
      <point x="251.792" y="709.22" type="curve" smooth="yes"/>
      <point x="241.024" y="712.466"/>
      <point x="229.253" y="714.139"/>
      <point x="216.587" y="714.139" type="curve" smooth="yes"/>
      <point x="134.028" y="711.766"/>
      <point x="67.9066" y="644.964"/>
      <point x="48.933" y="537.361" type="curve" smooth="yes"/>
      <point x="29.607" y="427.759"/>
      <point x="73.966" y="360.583"/>
      <point x="154.246" y="360.583" type="curve" smooth="yes"/>
      <point x="234.526" y="360.583"/>
      <point x="302.575" y="427.759"/>
      <point x="321.901" y="537.361" type="curve" smooth="yes"/>
      <point x="330.846" y="588.087"/>
      <point x="326.148" y="629.725"/>
      <point x="310.562" y="659.822" type="curve"/>
      <point x="331.224" y="649.164"/>
      <point x="352.635" y="639.682"/>
      <point x="376.406" y="637.805" type="curve" smooth="yes"/>
      <point x="427.076" y="633.805"/>
      <point x="465.9" y="659.257"/>
      <point x="499.129" y="676.456" type="curve"/>
      <point x="142.772" y="0" type="line"/>
      <point x="168.47" y="-11" type="line"/>
      <point x="540.815" y="700" type="line"/>
    </contour>
    <contour>
      <point x="251.686" y="440.365"/>
      <point x="209.522" y="380.916"/>
      <point x="157.831" y="380.916" type="curve" smooth="yes"/>
      <point x="106.14" y="380.916"/>
      <point x="84.941" y="440.365"/>
      <point x="102.044" y="537.361" type="curve" smooth="yes"/>
      <point x="119.147" y="634.356"/>
      <point x="161.311" y="693.805"/>
      <point x="213.002" y="693.805" type="curve" smooth="yes"/>
      <point x="264.693" y="693.805"/>
      <point x="285.892" y="634.356"/>
      <point x="268.789" y="537.361" type="curve" smooth="yes"/>
    </contour>
    <contour>
      <point x="450.385" y="339.245"/>
      <point x="382.336" y="272.069"/>
      <point x="363.01" y="162.467" type="curve" smooth="yes"/>
      <point x="343.685" y="52.865"/>
      <point x="388.044" y="-14"/>
      <point x="468.324" y="-14" type="curve" smooth="yes"/>
      <point x="548.604" y="-14"/>
      <point x="616.653" y="52.865"/>
      <point x="635.979" y="162.467" type="curve" smooth="yes"/>
      <point x="655.304" y="272.069"/>
      <point x="610.945" y="339.245"/>
      <point x="530.665" y="339.245" type="curve" smooth="yes"/>
    </contour>
    <contour>
      <point x="565.764" y="65.471"/>
      <point x="523.6" y="6.023"/>
      <point x="471.909" y="6.023" type="curve" smooth="yes"/>
      <point x="420.218" y="6.023"/>
      <point x="399.019" y="65.471"/>
      <point x="416.122" y="162.467" type="curve" smooth="yes"/>
      <point x="433.225" y="259.463"/>
      <point x="475.389" y="318.911"/>
      <point x="527.08" y="318.911" type="curve" smooth="yes"/>
      <point x="578.771" y="318.911"/>
      <point x="599.97" y="259.463"/>
      <point x="582.867" y="162.467" type="curve" smooth="yes"/>
    </contour>
  </outline>
</glyph>
<glyph name="ampersand" format="1">
  <advance width="646"/>
  <unicode hex="0026"/>
  <outline>
    <contour>
      <point x="642.475" y="374.571" type="line"/>
      <point x="642.475" y="384.571" type="line"/>
      <point x="442.607" y="384.571" type="line"/>
      <point x="442.607" y="374.571" type="line"/>
      <point x="458.374" y="374.592" type="line" smooth="yes"/>
      <point x="489.65" y="374.633"/>
      <point x="509.464" y="356.172"/>
      <point x="522.807" y="329.025" type="curve" smooth="yes"/>
      <point x="549.995" y="273.711"/>
      <point x="548.57" y="203.418"/>
      <point x="522.26" y="143.886" type="curve"/>
      <point x="437.938" y="213.69"/>
      <point x="382.7" y="265.387"/>
      <point x="340.825" y="302.868" type="curve" smooth="yes"/>
      <point x="237.786" y="395.097"/>
      <point x="182.115" y="458.924"/>
      <point x="182.115" y="542.732" type="curve" smooth="yes"/>
      <point x="182.115" y="624.396"/>
      <point x="237.906" y="684.449"/>
      <point x="314.249" y="684.449" type="curve" smooth="yes"/>
      <point x="399.27" y="684.449"/>
      <point x="456.379" y="625.74"/>
      <point x="456.379" y="529.951" type="curve"/>
      <point x="466.379" y="529.951" type="line"/>
      <point x="483.728" y="643.151" type="line"/>
      <point x="448.45" y="686.145"/>
      <point x="380.948" y="713.516"/>
      <point x="314.249" y="714.449" type="curve" smooth="yes"/>
      <point x="191.406" y="714.449"/>
      <point x="113.115" y="640.718"/>
      <point x="113.115" y="542.732" type="curve" smooth="yes"/>
      <point x="113.115" y="491.256"/>
      <point x="126.19" y="449.301"/>
      <point x="150.982" y="409.154" type="curve"/>
      <point x="81.5362" y="373.973"/>
      <point x="29.9998" y="315.433"/>
      <point x="29.9998" y="224.336" type="curve" smooth="yes"/>
      <point x="29.9998" y="75.2501"/>
      <point x="140.575" y="-10"/>
      <point x="336.249" y="-10" type="curve" smooth="yes"/>
      <point x="414.216" y="-10"/>
      <point x="476.715" y="16.0798"/>
      <point x="521" y="59.3683" type="curve"/>
      <point x="605.562" y="-8"/>
      <point x="697.455" y="0"/>
      <point x="736.279" y="0" type="curve"/>
      <point x="736.279" y="10" type="line"/>
      <point x="672.77" y="14.8434"/>
      <point x="614.631" y="64.791"/>
      <point x="560.912" y="111.153" type="curve"/>
      <point x="595.084" y="170.816"/>
      <point x="606.112" y="247.472"/>
      <point x="590.357" y="329.364" type="curve" smooth="yes"/>
      <point x="585.167" y="356.341"/>
      <point x="598.071" y="374.633"/>
      <point x="627.405" y="374.592" type="curve" smooth="yes"/>
    </contour>
    <contour>
      <point x="187.075" y="20.3261"/>
      <point x="103" y="103.85"/>
      <point x="103" y="224.336" type="curve" smooth="yes"/>
      <point x="103" y="285.543"/>
      <point x="121.212" y="342.37"/>
      <point x="167.394" y="385.03" type="curve"/>
      <point x="198.003" y="343.751"/>
      <point x="240.966" y="302.746"/>
      <point x="294.76" y="253.366" type="curve" smooth="yes"/>
      <point x="347.275" y="205.16"/>
      <point x="402.929" y="156.859"/>
      <point x="486.67" y="87.5982" type="curve"/>
      <point x="451.616" y="47.4308"/>
      <point x="400.798" y="20.3261"/>
      <point x="336.249" y="20.3261" type="curve" smooth="yes"/>
    </contour>
  </outline>
</glyph>
<glyph name="period" format="1">
  <advance width="179"/>
  <unicode hex="002E"/>
  <outline>
    <contour>
      <point x="114.853" y="-4"/>
      <point x="135" y="16.147"/>
      <point x="135" y="41" type="curve" smooth="yes"/>
      <point x="135" y="65.853"/>
      <point x="114.853" y="86"/>
      <point x="90" y="86" type="curve" smooth="yes"/>
      <point x="65.1469" y="86"/>
      <point x="45" y="65.853"/>
      <point x="45" y="41" type="curve" smooth="yes"/>
      <point x="45" y="16.147"/>
      <point x="65.1469" y="-4"/>
      <point x="90" y="-4" type="curve" smooth="yes"/>
    </contour>
  </outline>
</glyph>
<glyph name="one" format="1">
  <advance width="344"/>
  <unicode hex="0031"/>
  <outline>
    <contour>
      <point x="67.489" y="0" type="line"/>
      <point x="67.628" y="10" type="line"/>
      <point x="88.533" y="10" type="line" smooth="yes"/>
      <point x="118.677" y="9.9487"/>
      <point x="143.75" y="34.1079"/>
      <point x="143.75" y="64.102" type="curve" smooth="yes"/>
      <point x="143.75" y="591" type="line" smooth="yes"/>
      <point x="143.75" y="623.2"/>
      <point x="127.864" y="640"/>
      <point x="97.7321" y="640" type="curve" smooth="yes"/>
      <point x="59.9999" y="640" type="line"/>
      <point x="59.9999" y="650" type="line"/>
      <point x="112.008" y="657.022"/>
      <point x="158.816" y="667.649"/>
      <point x="197.797" y="714" type="curve"/>
      <point x="207.797" y="714" type="line"/>
      <point x="207.797" y="63.45" type="line" smooth="yes"/>
      <point x="207.797" y="33.75"/>
      <point x="233.072" y="9.94912"/>
      <point x="262.997" y="9.97912" type="curve" smooth="yes"/>
      <point x="283.902" y="9.97912" type="line"/>
      <point x="284.041" y="0" type="line"/>
    </contour>
  </outline>
</glyph>
<glyph name="three" format="1">
  <advance width="503"/>
  <unicode hex="0033"/>
  <outline>
    <contour>
      <point x="78.4378" y="547.766" type="line"/>
      <point x="88.4378" y="547.766" type="line"/>
      <point x="84" y="627"/>
      <point x="132" y="682"/>
      <point x="214.754" y="682.264" type="curve" smooth="yes"/>
      <point x="299" y="682"/>
      <point x="335" y="624"/>
      <point x="338" y="565" type="curve" smooth="yes"/>
      <point x="344" y="456"/>
      <point x="244" y="394"/>
      <point x="154.782" y="394.366" type="curve"/>
      <point x="152.959" y="384.366" type="line"/>
      <point x="272" y="384"/>
      <point x="358" y="332"/>
      <point x="358.359" y="218.601" type="curve" smooth="yes"/>
      <point x="358" y="75"/>
      <point x="221" y="-26"/>
      <point x="62" y="-22" type="curve"/>
      <point x="60" y="-32" type="line"/>
      <point x="261" y="-67"/>
      <point x="433" y="60"/>
      <point x="433.359" y="216.168" type="curve"/>
      <point x="433.043" y="321.754"/>
      <point x="355.368" y="383.994"/>
      <point x="276.692" y="396.779" type="curve"/>
      <point x="343.012" y="403.571"/>
      <point x="414" y="479.588"/>
      <point x="414" y="563" type="curve" smooth="yes"/>
      <point x="414" y="650"/>
      <point x="338" y="718"/>
      <point x="217" y="712" type="curve" smooth="yes"/>
      <point x="138" y="708"/>
      <point x="93" y="677"/>
      <point x="61.0888" y="640.966" type="curve"/>
    </contour>
  </outline>
</glyph>
<glyph name="four" format="1">
  <advance width="583"/>
  <unicode hex="0034"/>
  <outline>
    <contour>
      <point x="502.797" y="248.763" type="line"/>
      <point x="523.797" y="323.763" type="line"/>
      <point x="513.797" y="323.763" type="line"/>
      <point x="501.797" y="309.867"/>
      <point x="495.992" y="303.763"/>
      <point x="459.154" y="303.763" type="curve" smooth="yes"/>
      <point x="415.646" y="303.763" type="line"/>
      <point x="415.646" y="714" type="line"/>
      <point x="406.281" y="714" type="line"/>
      <point x="40" y="258.763" type="line"/>
      <point x="40" y="248.763" type="line"/>
      <point x="350.646" y="248.763" type="line"/>
      <point x="350.646" y="61.8644" type="line"/>
      <point x="349.525" y="31.9496"/>
      <point x="324.916" y="10"/>
      <point x="295.469" y="10" type="curve" smooth="yes"/>
      <point x="284.564" y="10" type="line"/>
      <point x="284.425" y="0" type="line"/>
      <point x="481.886" y="0" type="line"/>
      <point x="481.747" y="10" type="line"/>
      <point x="470.842" y="10" type="line" smooth="yes"/>
      <point x="441.13" y="10"/>
      <point x="416.002" y="33.6602"/>
      <point x="415.646" y="63.3614" type="curve"/>
      <point x="415.646" y="248.763" type="line"/>
    </contour>
    <contour>
      <point x="114.943" y="303.763" type="line"/>
      <point x="350.646" y="596.31" type="line"/>
      <point x="350.646" y="303.763" type="line"/>
    </contour>
  </outline>
</glyph>
<glyph name="eight" format="1">
  <advance width="552"/>
  <unicode hex="0038"/>
  <outline>
    <contour>
      <point x="412.414" y="401.848"/>
      <point x="455.97" y="465.218"/>
      <point x="455.682" y="545.197" type="curve"/>
      <point x="456" y="653"/>
      <point x="379" y="716"/>
      <point x="276" y="714" type="curve" smooth="yes"/>
      <point x="164" y="712"/>
      <point x="95.9999" y="641"/>
      <point x="95.9543" y="546.601" type="curve" smooth="yes"/>
      <point x="95.989" y="470.73"/>
      <point x="139.517" y="412.616"/>
      <point x="204.457" y="366.246" type="curve"/>
      <point x="112.124" y="323.142"/>
      <point x="63.7421" y="265.2"/>
      <point x="59.9999" y="181" type="curve" smooth="yes"/>
      <point x="54.9999" y="63.9999"/>
      <point x="144" y="-14"/>
      <point x="276" y="-14" type="curve" smooth="yes"/>
      <point x="407" y="-14"/>
      <point x="492" y="62.9999"/>
      <point x="492.035" y="175.02" type="curve"/>
      <point x="492.008" y="287.594"/>
      <point x="406.366" y="336.548"/>
      <point x="333.234" y="372.778" type="curve"/>
    </contour>
    <contour>
      <point x="341" y="684"/>
      <point x="381" y="633"/>
      <point x="380.682" y="553.053" type="curve" smooth="yes"/>
      <point x="380.977" y="495.485"/>
      <point x="359.481" y="437.963"/>
      <point x="296.449" y="390.937" type="curve"/>
      <point x="274" y="403" type="line" smooth="yes"/>
      <point x="208" y="441"/>
      <point x="171" y="493"/>
      <point x="170.954" y="559.626" type="curve"/>
      <point x="171" y="627"/>
      <point x="209" y="684"/>
      <point x="277" y="684" type="curve" smooth="yes"/>
    </contour>
    <contour>
      <point x="188" y="16"/>
      <point x="134" y="76"/>
      <point x="135" y="171" type="curve" smooth="yes"/>
      <point x="135.921" y="253.927"/>
      <point x="179.293" y="309.686"/>
      <point x="233.949" y="346.823" type="curve"/>
      <point x="245.821" y="339.584"/>
      <point x="258.205" y="332.653"/>
      <point x="271" y="326" type="curve" smooth="yes"/>
      <point x="334" y="293"/>
      <point x="417" y="264"/>
      <point x="417.035" y="161.393" type="curve" smooth="yes"/>
      <point x="417" y="88"/>
      <point x="374" y="16"/>
      <point x="277" y="16" type="curve" smooth="yes"/>
    </contour>
  </outline>
</glyph>
<glyph name="colon" format="1">
  <advance width="170"/>
  <unicode hex="003A"/>
  <outline>
    <contour>
      <point x="114.853" y="378.51"/>
      <point x="135" y="398.657"/>
      <point x="135" y="423.51" type="curve" smooth="yes"/>
      <point x="135" y="448.363"/>
      <point x="114.853" y="468.51"/>
      <point x="90" y="468.51" type="curve" smooth="yes"/>
      <point x="65.1469" y="468.51"/>
      <point x="45" y="448.363"/>
      <point x="45" y="423.51" type="curve" smooth="yes"/>
      <point x="45" y="398.657"/>
      <point x="65.1469" y="378.51"/>
      <point x="90" y="378.51" type="curve" smooth="yes"/>
    </contour>
    <contour>
      <point x="114.853" y="-4"/>
      <point x="135" y="16.147"/>
      <point x="135" y="41" type="curve" smooth="yes"/>
      <point x="135" y="65.853"/>
      <point x="114.853" y="86"/>
      <point x="90" y="86" type="curve" smooth="yes"/>
      <point x="65.1469" y="86"/>
      <point x="45" y="65.853"/>
      <point x="45" y="41" type="curve" smooth="yes"/>
      <point x="45" y="16.147"/>
      <point x="65.1469" y="-4"/>
      <point x="90" y="-4" type="curve" smooth="yes"/>
    </contour>
  </outline>
</glyph>
<glyph name="semicolon" format="1">
  <advance width="600"/>
  <unicode hex="003B"/>
  <outline>
    <contour>
      <point x="47.3612" y="-89" type="line"/>
      <point x="110.621" y="-87"/>
      <point x="162.727" y="-20"/>
      <point x="131.273" y="55.4252" type="curve" smooth="yes"/>
      <point x="114.901" y="94.564"/>
      <point x="67.7736" y="92.5709"/>
      <point x="55.4381" y="64.5501" type="curve" smooth="yes"/>
      <point x="44.5944" y="39.9181"/>
      <point x="65.055" y="22.9727"/>
      <point x="77.6672" y="7.8799" type="curve" smooth="yes"/>
      <point x="94.2224" y="-12"/>
      <point x="103.855" y="-62"/>
      <point x="45" y="-81" type="curve"/>
    </contour>
    <contour>
      <point x="114.853" y="407.23"/>
      <point x="135" y="427.377"/>
      <point x="135" y="452.23" type="curve" smooth="yes"/>
      <point x="135" y="477.083"/>
      <point x="114.853" y="497.23"/>
      <point x="90" y="497.23" type="curve" smooth="yes"/>
      <point x="65.1469" y="497.23"/>
      <point x="45" y="477.083"/>
      <point x="45" y="452.23" type="curve" smooth="yes"/>
      <point x="45" y="427.377"/>
      <point x="65.1469" y="407.23"/>
      <point x="90" y="407.23" type="curve" smooth="yes"/>
    </contour>
  </outline>
</glyph>
<glyph name="B" format="1">
  <advance width="586"/>
  <unicode hex="0042"/>
  <outline>
    <contour>
      <point x="60.3514" y="700.06" type="line"/>
      <point x="60.5126" y="690.06" type="line"/>
      <point x="73" y="690" type="line" smooth="yes"/>
      <point x="107.895" y="690.079"/>
      <point x="137.197" y="662.475"/>
      <point x="137.197" y="627.995" type="curve" smooth="yes"/>
      <point x="137.197" y="72.2053" type="line" smooth="yes"/>
      <point x="136.199" y="37.6763"/>
      <point x="107.94" y="9.97912"/>
      <point x="73.1598" y="9.97912" type="curve" smooth="yes"/>
      <point x="60.5095" y="9.99992" type="line"/>
      <point x="60.3483" y="0" type="line"/>
      <point x="303.994" y="0" type="line" smooth="yes"/>
      <point x="453" y="0"/>
      <point x="537" y="75"/>
      <point x="536.907" y="187.941" type="curve"/>
      <point x="537" y="287"/>
      <point x="472" y="365"/>
      <point x="365.549" y="380.853" type="curve"/>
      <point x="422" y="397"/>
      <point x="476" y="448"/>
      <point x="476.384" y="532.796" type="curve"/>
      <point x="476" y="633"/>
      <point x="399" y="700"/>
      <point x="258.795" y="700" type="curve" smooth="yes"/>
    </contour>
    <contour>
      <point x="202.314" y="36.4695" type="line"/>
      <point x="202.314" y="667.893" type="line"/>
      <point x="255.176" y="667.893" type="line" smooth="yes"/>
      <point x="350" y="668"/>
      <point x="401" y="616"/>
      <point x="401.384" y="525.604" type="curve" smooth="yes"/>
      <point x="401" y="397"/>
      <point x="297" y="379"/>
      <point x="236.016" y="379.222" type="curve"/>
      <point x="236.244" y="369.81" type="line"/>
      <point x="333" y="370"/>
      <point x="462" y="345"/>
      <point x="461.907" y="195.122" type="curve" smooth="yes"/>
      <point x="462" y="94"/>
      <point x="403" y="36"/>
      <point x="300.375" y="36.4695" type="curve" smooth="yes"/>
    </contour>
  </outline>
</glyph>
<glyph name="F" format="1">
  <advance width="541"/>
  <unicode hex="0046"/>
  <outline>
    <contour>
      <point x="471.811" y="718.187" type="line"/>
      <point x="453.253" y="710.366"/>
      <point x="395.681" y="700.407"/>
      <point x="352.581" y="700" type="curve" smooth="yes"/>
      <point x="60.351" y="700.06" type="line"/>
      <point x="60.513" y="690.06" type="line"/>
      <point x="73.163" y="690.08" type="line" smooth="yes"/>
      <point x="106.267" y="690.08"/>
      <point x="136.869" y="664.989"/>
      <point x="136.869" y="632.798" type="curve" smooth="yes"/>
      <point x="136.869" y="72.864" type="line" smooth="yes"/>
      <point x="136.21" y="38.029"/>
      <point x="107.813" y="9.979"/>
      <point x="72.811" y="9.979" type="curve" smooth="yes"/>
      <point x="60.161" y="10" type="line"/>
      <point x="60" y="0" type="line"/>
      <point x="278.782" y="0" type="line"/>
      <point x="278.621" y="10" type="line"/>
      <point x="265.971" y="9.979" type="line" smooth="yes"/>
      <point x="230.969" y="9.979"/>
      <point x="202.572" y="38.029"/>
      <point x="201.917" y="72.864" type="curve" smooth="yes"/>
      <point x="201.901" y="330.218" type="line"/>
      <point x="371.938" y="330.218" type="line"/>
      <point x="398.251" y="329.18"/>
      <point x="419.275" y="307.554"/>
      <point x="419.275" y="280.977" type="curve" smooth="yes"/>
      <point x="419.259" y="266.243" type="line"/>
      <point x="429.032" y="266.119" type="line"/>
      <point x="429.032" y="424.375" type="line"/>
      <point x="419.259" y="424.25" type="line"/>
      <point x="419.276" y="409.516" type="line" smooth="yes"/>
      <point x="419.276" y="382.593"/>
      <point x="397.698" y="360.753"/>
      <point x="370.904" y="360.248" type="curve" smooth="yes"/>
      <point x="201.901" y="360.218" type="line"/>
      <point x="201.901" y="669.409" type="line"/>
      <point x="413.456" y="669.409" type="line" smooth="yes"/>
      <point x="440.253" y="668.883"/>
      <point x="461.827" y="647.038"/>
      <point x="461.827" y="620.115" type="curve" smooth="yes"/>
      <point x="461.811" y="605.384" type="line"/>
      <point x="471.811" y="605.26" type="line"/>
      <point x="471.811" y="671.625" type="line"/>
      <point x="471.797" y="688.91" type="line"/>
    </contour>
  </outline>
</glyph>
<glyph name="H" format="1">
  <advance width="813"/>
  <unicode hex="0048"/>
  <outline>
    <contour>
      <point x="753.083" y="0" type="line"/>
      <point x="752.922" y="10" type="line"/>
      <point x="740.272" y="9.979" type="line" smooth="yes"/>
      <point x="705.27" y="9.979"/>
      <point x="676.873" y="38.029"/>
      <point x="676.218" y="72.864" type="curve" smooth="yes"/>
      <point x="676.189" y="627.196" type="line"/>
      <point x="676.857" y="662.03"/>
      <point x="705.254" y="690.08"/>
      <point x="740.255" y="690.08" type="curve" smooth="yes"/>
      <point x="752.905" y="690.06" type="line"/>
      <point x="753.067" y="700.03" type="line"/>
      <point x="534.312" y="700.03" type="line"/>
      <point x="534.474" y="690.06" type="line"/>
      <point x="547.124" y="690.08" type="line" smooth="yes"/>
      <point x="581.702" y="690.08"/>
      <point x="609.835" y="662.704"/>
      <point x="611.142" y="628.456" type="curve"/>
      <point x="611.142" y="361.058" type="line"/>
      <point x="201.92" y="361.058" type="line"/>
      <point x="201.92" y="627.818" type="line" smooth="yes"/>
      <point x="202.9" y="662.363"/>
      <point x="231.167" y="690.08"/>
      <point x="265.959" y="690.08" type="curve" smooth="yes"/>
      <point x="278.609" y="690.06" type="line"/>
      <point x="278.771" y="700.03" type="line"/>
      <point x="60.0156" y="700.03" type="line"/>
      <point x="60.1776" y="690.06" type="line"/>
      <point x="72.8277" y="690.08" type="line" smooth="yes"/>
      <point x="107.692" y="690.08"/>
      <point x="136.003" y="662.249"/>
      <point x="136.873" y="627.605" type="curve" smooth="yes"/>
      <point x="136.873" y="72.8638" type="line" smooth="yes"/>
      <point x="136.21" y="38.0288"/>
      <point x="107.813" y="9.97885"/>
      <point x="72.8108" y="9.97885" type="curve" smooth="yes"/>
      <point x="60.1608" y="9.99975" type="line"/>
      <point x="59.9998" y="0" type="line"/>
      <point x="278.787" y="0" type="line"/>
      <point x="278.626" y="9.99985" type="line"/>
      <point x="265.976" y="9.97885" type="line" smooth="yes"/>
      <point x="230.974" y="9.97885"/>
      <point x="202.577" y="38.0288"/>
      <point x="201.922" y="72.8638" type="curve"/>
      <point x="201.922" y="331.058" type="line"/>
      <point x="611.142" y="331.058" type="line"/>
      <point x="611.142" y="72.099" type="line" smooth="yes"/>
      <point x="610.089" y="37.6192"/>
      <point x="581.852" y="9.97884"/>
      <point x="547.107" y="9.97884" type="curve" smooth="yes"/>
      <point x="534.457" y="9.99984" type="line"/>
      <point x="534.296" y="0" type="line"/>
    </contour>
    <contour>
      <point x="406.306" y="350" type="move" name="center"/>
    </contour>
    <contour>
      <point x="406.306" y="700" type="move" name="top"/>
    </contour>
  </outline>
</glyph>
<glyph name="I" format="1">
  <advance width="338"/>
  <unicode hex="0049"/>
  <outline>
    <contour>
      <point x="278.626" y="10" type="line"/>
      <point x="265.976" y="9.979" type="line" smooth="yes"/>
      <point x="230.974" y="9.979"/>
      <point x="202.577" y="38.029"/>
      <point x="201.922" y="72.864" type="curve"/>
      <point x="201.922" y="627.818" type="line" smooth="yes"/>
      <point x="202.9" y="662.363"/>
      <point x="231.167" y="690.08"/>
      <point x="265.959" y="690.08" type="curve" smooth="yes"/>
      <point x="278.609" y="690.06" type="line"/>
      <point x="278.771" y="700.06" type="line"/>
      <point x="60.016" y="700.06" type="line"/>
      <point x="60.178" y="690.06" type="line"/>
      <point x="72.828" y="690.08" type="line" smooth="yes"/>
      <point x="107.692" y="690.08"/>
      <point x="136.003" y="662.25"/>
      <point x="136.873" y="627.606" type="curve" smooth="yes"/>
      <point x="136.873" y="72.8641" type="line" smooth="yes"/>
      <point x="136.21" y="38.0291"/>
      <point x="107.813" y="9.97908"/>
      <point x="72.8109" y="9.97908" type="curve" smooth="yes"/>
      <point x="60.1609" y="10" type="line"/>
      <point x="59.9999" y="0" type="line"/>
      <point x="278.787" y="0" type="line"/>
    </contour>
    <contour>
      <point x="138.048" y="3" type="move" name="ogonek"/>
    </contour>
    <contour>
      <point x="169.306" y="764" type="move" name="top"/>
    </contour>
  </outline>
</glyph>
<glyph name="M" format="1">
  <advance width="931"/>
  <unicode hex="004D"/>
  <outline>
    <contour>
      <point x="749.744" y="713.698" type="line"/>
      <point x="740.602" y="713.698" type="line"/>
      <point x="467.786" y="110.6" type="line"/>
      <point x="188.71" y="714" type="line"/>
      <point x="179.433" y="714" type="line"/>
      <point x="104.217" y="72.6459" type="line" smooth="yes"/>
      <point x="99.0816" y="33.1141"/>
      <point x="67.0777" y="9.99194"/>
      <point x="31.3277" y="9.99194" type="curve" smooth="yes"/>
      <point x="15.4144" y="10.0012" type="line"/>
      <point x="15.4144" y="0.00123573" type="line"/>
      <point x="209.081" y="0.00123573" type="line"/>
      <point x="209.081" y="9.44574" type="line"/>
      <point x="193.5" y="9.44574" type="line" smooth="yes"/>
      <point x="171.956" y="9.49164"/>
      <point x="152.575" y="30.5916"/>
      <point x="154.511" y="52.1464" type="curve" smooth="yes"/>
      <point x="198.403" y="540.844" type="line"/>
      <point x="454.146" y="-14" type="line"/>
      <point x="463.569" y="-14" type="line"/>
      <point x="470.023" y="27.3875"/>
      <point x="497.886" y="88.1099"/>
      <point x="497.886" y="88.1099" type="curve"/>
      <point x="708.044" y="555.351" type="line"/>
      <point x="753.372" y="52.1462" type="line" smooth="yes"/>
      <point x="755.314" y="30.5915"/>
      <point x="735.927" y="9.49118"/>
      <point x="714.384" y="9.44618" type="curve" smooth="yes"/>
      <point x="698.802" y="9.44618" type="line"/>
      <point x="698.802" y="0.00118337" type="line"/>
      <point x="916.18" y="0.00118337" type="line"/>
      <point x="916.18" y="10.0012" type="line"/>
      <point x="900.266" y="9.99218" type="line" smooth="yes"/>
      <point x="864.516" y="9.99218"/>
      <point x="832.512" y="33.1142"/>
      <point x="827.383" y="72.6462" type="curve" smooth="yes"/>
    </contour>
  </outline>
</glyph>
<glyph name="P" format="1">
  <advance width="577"/>
  <unicode hex="0050"/>
  <outline>
    <contour>
      <point x="60.351" y="700.06" type="line"/>
      <point x="60.513" y="690.06" type="line"/>
      <point x="73.163" y="690.08" type="line" smooth="yes"/>
      <point x="106.386" y="690.08"/>
      <point x="133.659" y="664.808"/>
      <point x="136.905" y="632.45" type="curve"/>
      <point x="136.905" y="72.8641" type="line" smooth="yes"/>
      <point x="136.21" y="38.0291"/>
      <point x="107.813" y="9.97909"/>
      <point x="72.811" y="9.97909" type="curve" smooth="yes"/>
      <point x="60.161" y="10" type="line"/>
      <point x="60" y="0" type="line"/>
      <point x="278.897" y="0" type="line"/>
      <point x="278.736" y="10" type="line"/>
      <point x="266.086" y="9.97909" type="line" smooth="yes"/>
      <point x="231.084" y="9.97909"/>
      <point x="202.687" y="38.0291"/>
      <point x="202.032" y="72.8641" type="curve"/>
      <point x="202.032" y="670" type="line"/>
      <point x="317.309" y="670" type="line" smooth="yes"/>
      <point x="402.369" y="670"/>
      <point x="449.631" y="608.769"/>
      <point x="452.132" y="516.922" type="curve" smooth="yes"/>
      <point x="452.734" y="494.813"/>
      <point x="450.178" y="470.686"/>
      <point x="445.741" y="456.605" type="curve" smooth="yes"/>
      <point x="400.614" y="313.379"/>
      <point x="236.101" y="348.866"/>
      <point x="236.101" y="348.866" type="curve"/>
      <point x="236.221" y="339.416" type="line"/>
      <point x="361.688" y="273.283"/>
      <point x="527.132" y="354.447"/>
      <point x="527.132" y="506.868" type="curve" smooth="yes"/>
      <point x="527.132" y="626.61"/>
      <point x="448.776" y="700"/>
      <point x="320.931" y="700" type="curve" smooth="yes"/>
    </contour>
  </outline>
</glyph>
<glyph name="Q" format="1">
  <advance width="837"/>
  <unicode hex="0051"/>
  <outline>
    <contour>
      <point x="1323.93" y="-84" type="line"/>
      <point x="1200.51" y="-200"/>
      <point x="986.206" y="-196"/>
      <point x="836.029" y="-133" type="curve" smooth="yes"/>
      <point x="700.562" y="-75"/>
      <point x="584.379" y="-29"/>
      <point x="504.564" y="-5" type="curve"/>
      <point x="668.073" y="28.7021"/>
      <point x="777.198" y="162.528"/>
      <point x="777.198" y="349.992" type="curve" smooth="yes"/>
      <point x="777.198" y="568.397"/>
      <point x="631.092" y="714"/>
      <point x="419.432" y="714" type="curve" smooth="yes"/>
      <point x="206.773" y="714"/>
      <point x="60" y="568.397"/>
      <point x="60" y="349.992" type="curve" smooth="yes"/>
      <point x="60" y="135.509"/>
      <point x="201.563" y="-9"/>
      <point x="408.069" y="-14" type="curve"/>
      <point x="542.506" y="-38"/>
      <point x="706.004" y="-141"/>
      <point x="828.204" y="-194" type="curve" smooth="yes"/>
      <point x="1113.89" y="-318"/>
      <point x="1304.35" y="-152"/>
      <point x="1327.75" y="-89" type="curve"/>
    </contour>
    <contour>
      <point x="135" y="550.442"/>
      <point x="248.773" y="684.075"/>
      <point x="419.432" y="684.075" type="curve" smooth="yes"/>
      <point x="589.092" y="684.075"/>
      <point x="702.198" y="550.442"/>
      <point x="702.198" y="349.992" type="curve" smooth="yes"/>
      <point x="702.198" y="149.552"/>
      <point x="589.092" y="15.925"/>
      <point x="419.432" y="15.925" type="curve" smooth="yes"/>
      <point x="249.773" y="15.925"/>
      <point x="135" y="149.552"/>
      <point x="135" y="349.992" type="curve" smooth="yes"/>
    </contour>
  </outline>
</glyph>
<glyph name="V" format="1">
  <advance width="740"/>
  <unicode hex="0056"/>
  <outline>
    <contour>
      <point x="548.864" y="700.154" type="line"/>
      <point x="548.864" y="690.154" type="line"/>
      <point x="557.656" y="690.154" type="line" smooth="yes"/>
      <point x="583.473" y="690.154"/>
      <point x="610.258" y="667.7"/>
      <point x="595.656" y="627.682" type="curve"/>
      <point x="378.136" y="103.862" type="line"/>
      <point x="168.604" y="627.75" type="line" smooth="yes"/>
      <point x="154.056" y="667.725"/>
      <point x="180.587" y="690.154"/>
      <point x="206.388" y="690.154" type="curve" smooth="yes"/>
      <point x="215.18" y="690.154" type="line"/>
      <point x="215.18" y="700.154" type="line"/>
      <point x="-10" y="700.154" type="line"/>
      <point x="-10" y="690.059" type="line"/>
      <point x="-2" y="690.059" type="line" smooth="yes"/>
      <point x="29.0103" y="690.059"/>
      <point x="66.0203" y="671.9"/>
      <point x="86.2323" y="627.351" type="curve" smooth="yes"/>
      <point x="367.266" y="-14" type="line"/>
      <point x="376.272" y="-14" type="line"/>
      <point x="376.272" y="7.98701"/>
      <point x="413.298" y="89"/>
      <point x="413.298" y="89" type="curve"/>
      <point x="653.758" y="628.1" type="line" smooth="yes"/>
      <point x="674.044" y="672.104"/>
      <point x="710.877" y="690.059"/>
      <point x="741.351" y="690.059" type="curve" smooth="yes"/>
      <point x="750.142" y="690.059" type="line"/>
      <point x="750.142" y="700.154" type="line"/>
    </contour>
  </outline>
</glyph>
<glyph name="W" format="1">
  <advance width="982"/>
  <unicode hex="0057"/>
  <outline>
    <contour>
      <point x="794.802" y="700" type="line"/>
      <point x="794.802" y="690.094" type="line"/>
      <point x="803.594" y="690.094" type="line" smooth="yes"/>
      <point x="830.803" y="690.094"/>
      <point x="852.24" y="668.812"/>
      <point x="842.307" y="630.431" type="curve" smooth="yes"/>
      <point x="708.396" y="162.157" type="line"/>
      <point x="511.181" y="715.321" type="line"/>
      <point x="501.868" y="715.642" type="line"/>
      <point x="315.664" y="141.939" type="line"/>
      <point x="164.392" y="628.643" type="line" smooth="yes"/>
      <point x="152.621" y="667.954"/>
      <point x="177.87" y="690.087"/>
      <point x="203.441" y="690.087" type="curve" smooth="yes"/>
      <point x="212.233" y="690.087" type="line"/>
      <point x="212.233" y="700" type="line"/>
      <point x="-10" y="700" type="line"/>
      <point x="-10" y="690" type="line"/>
      <point x="-2" y="690" type="line" smooth="yes"/>
      <point x="28.6418" y="690"/>
      <point x="69.0745" y="672.464"/>
      <point x="85.6542" y="629.015" type="curve" smooth="yes"/>
      <point x="312.595" y="-12" type="line"/>
      <point x="322.031" y="-12" type="line"/>
      <point x="323.677" y="37.1489"/>
      <point x="342.992" y="99.1553"/>
      <point x="342.992" y="99.1553" type="curve"/>
      <point x="494.496" y="559.825" type="line"/>
      <point x="698.987" y="-12" type="line"/>
      <point x="708.423" y="-12" type="line"/>
      <point x="709.954" y="35.6244"/>
      <point x="730.284" y="99.1555"/>
      <point x="730.284" y="99.1555" type="curve"/>
      <point x="895.869" y="628.036" type="line" smooth="yes"/>
      <point x="911.233" y="672.193"/>
      <point x="953.096" y="690"/>
      <point x="983.62" y="690" type="curve" smooth="yes"/>
      <point x="992.411" y="690" type="line"/>
      <point x="992.411" y="700" type="line"/>
    </contour>
    <contour>
      <point x="506.871" y="764" type="move" name="top"/>
    </contour>
  </outline>
</glyph>
<glyph name="X" format="1">
  <advance width="662"/>
  <unicode hex="0058"/>
  <outline>
    <contour>
      <point x="658.949" y="10" type="line" smooth="yes"/>
      <point x="617.072" y="10"/>
      <point x="579.649" y="37.2958"/>
      <point x="558.339" y="68.0587" type="curve"/>
      <point x="364.083" y="373.2" type="line"/>
      <point x="539.328" y="631.221" type="line" smooth="yes"/>
      <point x="560.607" y="662.093"/>
      <point x="598.127" y="689.993"/>
      <point x="640.124" y="689.993" type="curve" smooth="yes"/>
      <point x="654.124" y="689.993" type="line"/>
      <point x="654.124" y="700.017" type="line"/>
      <point x="428.642" y="700.017" type="line"/>
      <point x="428.642" y="689.993" type="line"/>
      <point x="441.242" y="689.993" type="line" smooth="yes"/>
      <point x="468.515" y="689.993"/>
      <point x="492.035" y="656.326"/>
      <point x="475.302" y="627.94" type="curve" smooth="yes"/>
      <point x="338.983" y="412.627" type="line"/>
      <point x="201.193" y="629.069" type="line"/>
      <point x="185.739" y="657.214"/>
      <point x="209.911" y="690.034"/>
      <point x="236.828" y="690.034" type="curve" smooth="yes"/>
      <point x="249.426" y="690.034" type="line"/>
      <point x="249.426" y="700" type="line"/>
      <point x="6.8082" y="700" type="line"/>
      <point x="6.8082" y="690.034" type="line"/>
      <point x="20.8073" y="690.034" type="line" smooth="yes"/>
      <point x="62.8051" y="690.034"/>
      <point x="100.325" y="662.076"/>
      <point x="121.602" y="631.204" type="curve"/>
      <point x="297.148" y="354.272" type="line"/>
      <point x="105.658" y="68.9435" type="line" smooth="yes"/>
      <point x="84.3711" y="38.0709"/>
      <point x="45.851" y="9.9999"/>
      <point x="3.8541" y="9.9999" type="curve" smooth="yes"/>
      <point x="-10" y="9.9999" type="line"/>
      <point x="-10" y="0.144501" type="line"/>
      <point x="216.802" y="0.144501" type="line"/>
      <point x="216.802" y="9.9999" type="line"/>
      <point x="204.202" y="9.9999" type="line" smooth="yes"/>
      <point x="177.131" y="9.9999"/>
      <point x="151.851" y="43.3363"/>
      <point x="168.817" y="71.5895" type="curve" smooth="yes"/>
      <point x="322.601" y="314.109" type="line"/>
      <point x="476.708" y="70.9432" type="line"/>
      <point x="492.709" y="42.6996"/>
      <point x="468.413" y="10"/>
      <point x="441.343" y="10" type="curve" smooth="yes"/>
      <point x="428.744" y="10" type="line"/>
      <point x="428.744" y="0" type="line"/>
      <point x="672.581" y="0" type="line"/>
      <point x="672.581" y="10" type="line"/>
    </contour>
  </outline>
</glyph>
<glyph name="Y" format="1">
  <advance width="661"/>
  <unicode hex="0059"/>
  <outline>
    <contour>
      <point x="449.868" y="700.017" type="line"/>
      <point x="449.868" y="689.993" type="line"/>
      <point x="462.468" y="689.993" type="line" smooth="yes"/>
      <point x="489.414" y="689.993"/>
      <point x="513.609" y="657.132"/>
      <point x="498.051" y="628.967" type="curve" smooth="yes"/>
      <point x="497.524" y="628.041" type="line"/>
      <point x="338.151" y="348.103" type="line"/>
      <point x="188.308" y="627.953" type="line" smooth="yes"/>
      <point x="173.594" y="656.338"/>
      <point x="194.051" y="690.034"/>
      <point x="223.324" y="690.034" type="curve" smooth="yes"/>
      <point x="235.923" y="690.034" type="line"/>
      <point x="235.923" y="700" type="line"/>
      <point x="-10" y="700" type="line"/>
      <point x="-10" y="690.034" type="line"/>
      <point x="3.63227" y="690.034" type="line" smooth="yes"/>
      <point x="45.4483" y="690.034"/>
      <point x="84.8067" y="662.318"/>
      <point x="104.175" y="631.605" type="curve" smooth="yes"/>
      <point x="294.572" y="313.295" type="line"/>
      <point x="294.572" y="72.2769" type="line" smooth="yes"/>
      <point x="293.611" y="37.7145"/>
      <point x="265.337" y="9.97912"/>
      <point x="230.532" y="9.97912" type="curve" smooth="yes"/>
      <point x="217.882" y="10" type="line"/>
      <point x="217.721" y="0" type="line"/>
      <point x="436.468" y="0" type="line"/>
      <point x="436.307" y="10" type="line"/>
      <point x="423.657" y="9.97912" type="line" smooth="yes"/>
      <point x="388.655" y="9.97912"/>
      <point x="360.258" y="38.0291"/>
      <point x="359.603" y="72.8641" type="curve" smooth="yes"/>
      <point x="359.59" y="312.295" type="line"/>
      <point x="557.331" y="631.92" type="line"/>
      <point x="578.69" y="662.513"/>
      <point x="615.96" y="689.993"/>
      <point x="657.64" y="689.993" type="curve" smooth="yes"/>
      <point x="671.64" y="689.993" type="line"/>
      <point x="671.64" y="700.017" type="line"/>
    </contour>
    <contour>
      <point x="340.112" y="764" type="move" name="top"/>
    </contour>
  </outline>
</glyph>
<glyph name="b" format="1">
  <advance width="570"/>
  <unicode hex="0062"/>
  <outline>
    <contour>
      <point x="55.0057" y="600" type="line"/>
      <point x="55.1624" y="590" type="line"/>
      <point x="66.964" y="590.021" type="line" smooth="yes"/>
      <point x="100.539" y="590.021"/>
      <point x="125.842" y="568.749"/>
      <point x="126.866" y="536.333" type="curve" smooth="yes"/>
      <point x="126.866" y="63.9277" type="line" smooth="yes"/>
      <point x="125.945" y="34.3079"/>
      <point x="100.605" y="9.98003"/>
      <point x="66.9583" y="9.98003" type="curve" smooth="yes"/>
      <point x="55.1567" y="10" type="line"/>
      <point x="55" y="0" type="line"/>
      <point x="302.535" y="0" type="line" smooth="yes"/>
      <point x="401.062" y="0"/>
      <point x="525.174" y="37.4814"/>
      <point x="525.174" y="167.897" type="curve" smooth="yes"/>
      <point x="525.174" y="248.288"/>
      <point x="454" y="314.604"/>
      <point x="357.121" y="326.417" type="curve"/>
      <point x="411.915" y="339.544"/>
      <point x="467.064" y="388.562"/>
      <point x="467.064" y="450.302" type="curve" smooth="yes"/>
      <point x="467.064" y="583.235"/>
      <point x="330.858" y="599.949"/>
      <point x="259.013" y="599.949" type="curve" smooth="yes"/>
    </contour>
    <contour>
      <point x="189.719" y="29.9999" type="line"/>
      <point x="189.719" y="570.025" type="line"/>
      <point x="257.732" y="570.025" type="line" smooth="yes"/>
      <point x="345.347" y="569.949"/>
      <point x="396.83" y="534.053"/>
      <point x="396.83" y="450.302" type="curve" smooth="yes"/>
      <point x="396.83" y="340.419"/>
      <point x="293.995" y="326.953"/>
      <point x="221.219" y="326.953" type="curve"/>
      <point x="221.44" y="316.953" type="line"/>
      <point x="329.162" y="317.012"/>
      <point x="453.535" y="295.613"/>
      <point x="453.535" y="167.897" type="curve" smooth="yes"/>
      <point x="453.535" y="72.5813"/>
      <point x="388.033" y="29.9999"/>
      <point x="301.88" y="29.9999" type="curve" smooth="yes"/>
    </contour>
  </outline>
</glyph>
<glyph name="c" format="1">
  <advance width="705"/>
  <unicode hex="0063"/>
  <outline>
    <contour>
      <point x="656.874" y="251.85" type="line"/>
      <point x="646.123" y="88.002"/>
      <point x="529.088" y="15.6526"/>
      <point x="380" y="16.9997" type="curve" smooth="yes"/>
      <point x="221.003" y="18.4363"/>
      <point x="121.97" y="127.083"/>
      <point x="121.97" y="300" type="curve" smooth="yes"/>
      <point x="121.97" y="476.126"/>
      <point x="220.836" y="584.073"/>
      <point x="379.197" y="584.073" type="curve" smooth="yes"/>
      <point x="503.2" y="584.073"/>
      <point x="596.529" y="534.785"/>
      <point x="627.17" y="412.263" type="curve"/>
      <point x="635.963" y="412.231" type="line"/>
      <point x="613.858" y="553.467" type="line"/>
      <point x="552.146" y="590.997"/>
      <point x="462.967" y="613.999"/>
      <point x="379.647" y="613.999" type="curve" smooth="yes"/>
      <point x="177.195" y="613.999"/>
      <point x="49.662" y="494.68"/>
      <point x="49.662" y="300" type="curve" smooth="yes"/>
      <point x="49.662" y="106.236"/>
      <point x="177.054" y="-13"/>
      <point x="379.647" y="-14" type="curve" smooth="yes"/>
      <point x="497.851" y="-14"/>
      <point x="603.105" y="34.9957"/>
      <point x="655.063" y="114.937" type="curve"/>
      <point x="665.666" y="251.886" type="line"/>
    </contour>
    <contour>
      <point x="380.128" y="664" type="move" name="top"/>
    </contour>
    <contour>
      <point x="380.128" y="-13" type="move" name="bottom"/>
    </contour>
  </outline>
</glyph>
<glyph name="e" format="1">
  <advance width="546"/>
  <unicode hex="0065"/>
  <outline>
    <contour>
      <point x="516.39" y="143.451" type="line"/>
      <point x="505.551" y="143.451" type="line"/>
      <point x="477.151" y="78.725"/>
      <point x="442.94" y="31.8767"/>
      <point x="346.871" y="30.59" type="curve" smooth="yes"/>
      <point x="190.5" y="30.59" type="line"/>
      <point x="190.5" y="285" type="line"/>
      <point x="363.668" y="285" type="line"/>
      <point x="389.788" y="283.442"/>
      <point x="401.869" y="265.084"/>
      <point x="401.869" y="242.625" type="curve" smooth="yes"/>
      <point x="401.851" y="229.923" type="line"/>
      <point x="412.734" y="229.816" type="line"/>
      <point x="412.734" y="370.276" type="line"/>
      <point x="401.851" y="370.168" type="line"/>
      <point x="401.87" y="357.466" type="line" smooth="yes"/>
      <point x="401.87" y="334.351"/>
      <point x="389.07" y="315.582"/>
      <point x="361.337" y="315" type="curve" smooth="yes"/>
      <point x="190.5" y="315" type="line"/>
      <point x="190.5" y="569.41" type="line"/>
      <point x="397.853" y="569.41" type="line" smooth="yes"/>
      <point x="428.291" y="568.812"/>
      <point x="447.988" y="546.054"/>
      <point x="447.988" y="518.017" type="curve" smooth="yes"/>
      <point x="447.967" y="502.651" type="line"/>
      <point x="458.849" y="502.522" type="line"/>
      <point x="458.849" y="615.683" type="line"/>
      <point x="441.444" y="608.911"/>
      <point x="387.362" y="600.28"/>
      <point x="347.134" y="600" type="curve" smooth="yes"/>
      <point x="55" y="600" type="line"/>
      <point x="55.1819" y="590" type="line"/>
      <point x="68.9098" y="590.021" type="line" smooth="yes"/>
      <point x="101.41" y="590.021"/>
      <point x="126.666" y="567.466"/>
      <point x="126.666" y="537.653" type="curve" smooth="yes"/>
      <point x="126.666" y="63.0736" type="line"/>
      <point x="125.455" y="33.5646"/>
      <point x="101.194" y="9.97991"/>
      <point x="68.9316" y="9.97991" type="curve" smooth="yes"/>
      <point x="55.2035" y="10" type="line"/>
      <point x="55.0228" y="0" type="line"/>
      <point x="461.269" y="0.00101032" type="line"/>
    </contour>
    <contour>
      <point x="402.97" y="3.00805" type="move" name="ogonek"/>
    </contour>
    <contour>
      <point x="296.982" y="0" type="move" name="bottom"/>
    </contour>
    <contour>
      <point x="296.982" y="664" type="move" name="top"/>
    </contour>
  </outline>
</glyph>
<glyph name="h" format="1">
  <advance width="746"/>
  <unicode hex="0068"/>
  <outline>
    <contour>
      <point x="691.875" y="0" type="line"/>
      <point x="691.724" y="9.9999" type="line"/>
      <point x="680.232" y="9.9789" type="line" smooth="yes"/>
      <point x="648.736" y="9.9789"/>
      <point x="623.103" y="33.6405"/>
      <point x="621.959" y="63.2166" type="curve"/>
      <point x="621.959" y="537.602" type="line"/>
      <point x="623.541" y="566.795"/>
      <point x="648.989" y="590.021"/>
      <point x="680.194" y="590.021" type="curve" smooth="yes"/>
      <point x="691.686" y="590" type="line"/>
      <point x="691.837" y="600" type="line"/>
      <point x="488.061" y="600" type="line"/>
      <point x="488.211" y="590" type="line"/>
      <point x="499.704" y="590.021" type="line" smooth="yes"/>
      <point x="531.545" y="590.021"/>
      <point x="557.395" y="565.837"/>
      <point x="557.977" y="535.807" type="curve" smooth="yes"/>
      <point x="557.992" y="311.058" type="line"/>
      <point x="188.919" y="311.058" type="line"/>
      <point x="188.919" y="537.46" type="line"/>
      <point x="190.398" y="566.72"/>
      <point x="215.879" y="590.021"/>
      <point x="247.133" y="590.021" type="curve" smooth="yes"/>
      <point x="258.655" y="590" type="line"/>
      <point x="258.776" y="600" type="line"/>
      <point x="55" y="600" type="line"/>
      <point x="55.1506" y="590" type="line"/>
      <point x="66.6431" y="590.021" type="line" smooth="yes"/>
      <point x="98.5142" y="590.021"/>
      <point x="124.334" y="565.837"/>
      <point x="124.945" y="535.807" type="curve" smooth="yes"/>
      <point x="124.981" y="64.1087" type="line" smooth="yes"/>
      <point x="124.322" y="34.1176"/>
      <point x="98.5222" y="9.97898"/>
      <point x="66.6809" y="9.97898" type="curve" smooth="yes"/>
      <point x="55.1883" y="9.99988" type="line"/>
      <point x="55.0379" y="0" type="line"/>
      <point x="258.814" y="0" type="line"/>
      <point x="258.664" y="9.99988" type="line"/>
      <point x="247.171" y="9.97888" type="line" smooth="yes"/>
      <point x="215.596" y="9.97888"/>
      <point x="189.913" y="33.76"/>
      <point x="188.919" y="63.4408" type="curve"/>
      <point x="188.919" y="281.058" type="line"/>
      <point x="557.992" y="281.058" type="line"/>
      <point x="557.992" y="63.386" type="line" smooth="yes"/>
      <point x="556.967" y="33.7309"/>
      <point x="531.297" y="9.97888"/>
      <point x="499.742" y="9.97888" type="curve" smooth="yes"/>
      <point x="488.249" y="9.99988" type="line"/>
      <point x="488.099" y="0" type="line"/>
    </contour>
    <contour>
      <point x="375.621" y="296.227" type="move" name="center"/>
    </contour>
    <contour>
      <point x="378.314" y="650.822" type="move" name="top"/>
    </contour>
  </outline>
</glyph>
<glyph name="i" format="1">
  <advance width="336"/>
  <unicode hex="0069"/>
  <outline>
    <contour>
      <point x="281.587" y="0" type="line"/>
      <point x="281.4" y="9.9998" type="line"/>
      <point x="268.056" y="9.9788" type="line" smooth="yes"/>
      <point x="231.307" y="9.9788"/>
      <point x="201.365" y="33.7119"/>
      <point x="200.187" y="63.3508" type="curve"/>
      <point x="200.187" y="537.59" type="line"/>
      <point x="201.955" y="566.788"/>
      <point x="231.65" y="590.021"/>
      <point x="268.009" y="590.021" type="curve" smooth="yes"/>
      <point x="281.474" y="590" type="line"/>
      <point x="281.54" y="600" type="line"/>
      <point x="55" y="600" type="line"/>
      <point x="55.1871" y="590" type="line"/>
      <point x="68.5306" y="590.021" type="line" smooth="yes"/>
      <point x="105.749" y="590.021"/>
      <point x="135.788" y="565.837"/>
      <point x="136.547" y="535.807" type="curve" smooth="yes"/>
      <point x="136.592" y="64.1243" type="line" smooth="yes"/>
      <point x="135.788" y="34.1259"/>
      <point x="105.768" y="9.9788"/>
      <point x="68.5776" y="9.9788" type="curve" smooth="yes"/>
      <point x="55.234" y="9.9997" type="line"/>
      <point x="55.0471" y="0" type="line"/>
    </contour>
  </outline>
</glyph>
<glyph name="j" format="1">
  <advance width="309"/>
  <unicode hex="006A"/>
  <outline>
    <contour>
      <point x="54.4748" y="599.729" type="line"/>
      <point x="54.6386" y="589.729" type="line"/>
      <point x="67.4907" y="589.75" type="line" smooth="yes"/>
      <point x="101.457" y="589.75"/>
      <point x="129.302" y="567.687"/>
      <point x="132.311" y="539.54" type="curve"/>
      <point x="132.311" y="0" type="line" smooth="yes"/>
      <point x="132.299" y="-74"/>
      <point x="76.8824" y="-148"/>
      <point x="13" y="-168" type="curve"/>
      <point x="13" y="-178" type="line"/>
      <point x="111.511" y="-178"/>
      <point x="196.189" y="-97"/>
      <point x="196.189" y="0" type="curve" smooth="yes"/>
      <point x="196.189" y="535.807" type="line" smooth="yes"/>
      <point x="196.903" y="565.837"/>
      <point x="225.754" y="590.021"/>
      <point x="261.315" y="590.021" type="curve" smooth="yes"/>
      <point x="274.167" y="590" type="line"/>
      <point x="274.331" y="600" type="line"/>
    </contour>
  </outline>
</glyph>
<glyph name="k" format="1">
  <advance width="624"/>
  <unicode hex="006B"/>
  <outline>
    <contour>
      <point x="189.645" y="537.454" type="line"/>
      <point x="191.148" y="566.716"/>
      <point x="216.879" y="590.021"/>
      <point x="248.474" y="590.021" type="curve" smooth="yes"/>
      <point x="260.115" y="590.021" type="line"/>
      <point x="260.263" y="600" type="line"/>
      <point x="54.9998" y="600" type="line"/>
      <point x="55.148" y="590.021" type="line"/>
      <point x="66.7776" y="590.021" type="line" smooth="yes"/>
      <point x="98.9677" y="590.021"/>
      <point x="125.076" y="565.837"/>
      <point x="125.677" y="535.807" type="curve" smooth="yes"/>
      <point x="125.714" y="64.0651" type="line" smooth="yes"/>
      <point x="125.039" y="34.0946"/>
      <point x="98.9543" y="9.97939"/>
      <point x="66.8163" y="9.97939" type="curve" smooth="yes"/>
      <point x="55.1874" y="10" type="line"/>
      <point x="55.0391" y="0" type="line"/>
      <point x="260.301" y="0" type="line"/>
      <point x="260.153" y="10" type="line"/>
      <point x="248.512" y="9.97939" type="line" smooth="yes"/>
      <point x="216.603" y="9.97939"/>
      <point x="190.669" y="33.7543"/>
      <point x="189.645" y="63.4294" type="curve" smooth="yes"/>
    </contour>
    <contour>
      <point x="293.637" y="321.042" type="line"/>
      <point x="511.695" y="553.978" type="line"/>
      <point x="535.422" y="577.464"/>
      <point x="570.366" y="590.124"/>
      <point x="608.684" y="590.204" type="curve" smooth="yes"/>
      <point x="612.712" y="590.204" type="line"/>
      <point x="612.712" y="600" type="line"/>
      <point x="409.473" y="600" type="line"/>
      <point x="409.473" y="590.204" type="line"/>
      <point x="418.359" y="590.204" type="line" smooth="yes"/>
      <point x="441.55" y="590.204"/>
      <point x="454.949" y="569.064"/>
      <point x="440.237" y="551.334" type="curve" smooth="yes"/>
      <point x="225.222" y="298.182" type="line"/>
      <point x="444.634" y="56.7789" type="line" smooth="yes"/>
      <point x="491.682" y="3.19368"/>
      <point x="561.41" y="0.230879"/>
      <point x="591.566" y="0.131679" type="curve" smooth="yes"/>
      <point x="629.148" y="0.131679" type="line"/>
      <point x="629.148" y="10.0752" type="line"/>
      <point x="585.575" y="11.11"/>
      <point x="565.326" y="23.5427"/>
      <point x="541.569" y="50.9062" type="curve" smooth="yes"/>
    </contour>
    <contour>
      <point x="361.115" y="-64" type="move" name="bottom"/>
    </contour>
  </outline>
</glyph>
<glyph name="l" format="1">
  <advance width="536"/>
  <unicode hex="006C"/>
  <outline>
    <contour>
      <point x="505.591" y="143.45" type="line"/>
      <point x="477.202" y="78.7461"/>
      <point x="443.004" y="31.9073"/>
      <point x="347.011" y="30.59" type="curve" smooth="yes"/>
      <point x="190.544" y="30.59" type="line"/>
      <point x="190.544" y="535.937" type="line" smooth="yes"/>
      <point x="191.209" y="565.907"/>
      <point x="217.671" y="590.021"/>
      <point x="250.25" y="590.021" type="curve" smooth="yes"/>
      <point x="262.019" y="590" type="line"/>
      <point x="262.175" y="600" type="line"/>
      <point x="55" y="600" type="line"/>
      <point x="55.1561" y="590" type="line"/>
      <point x="66.9248" y="590.021" type="line" smooth="yes"/>
      <point x="99.594" y="590.021"/>
      <point x="126.044" y="565.837"/>
      <point x="126.677" y="535.807" type="curve" smooth="yes"/>
      <point x="126.71" y="63.0727" type="line"/>
      <point x="125.499" y="33.5639"/>
      <point x="101.238" y="9.97909"/>
      <point x="68.976" y="9.97909" type="curve" smooth="yes"/>
      <point x="55.2481" y="10" type="line"/>
      <point x="55.0674" y="0" type="line"/>
      <point x="461.31" y="0" type="line"/>
      <point x="516.43" y="143.45" type="line"/>
    </contour>
    <contour>
      <point x="157.273" y="664" type="move" name="top"/>
    </contour>
    <contour>
      <point x="327.959" y="-64" type="move" name="bottom"/>
    </contour>
    <contour>
      <point x="361.442" y="500" type="move" name="topright"/>
    </contour>
  </outline>
</glyph>
<glyph name="p" format="1">
  <advance width="553"/>
  <unicode hex="0070"/>
  <outline>
    <contour>
      <point x="54.6556" y="600" type="line"/>
      <point x="54.8387" y="590" type="line"/>
      <point x="68.637" y="590.02" type="line" smooth="yes"/>
      <point x="101.422" y="590.02"/>
      <point x="126.047" y="567.216"/>
      <point x="126.64" y="537.186" type="curve" smooth="yes"/>
      <point x="126.68" y="63.2293" type="line"/>
      <point x="125.541" y="33.6473"/>
      <point x="101.094" y="9.979"/>
      <point x="68.6585" y="9.979" type="curve" smooth="yes"/>
      <point x="54.8602" y="10" type="line"/>
      <point x="54.6782" y="0" type="line"/>
      <point x="262.473" y="0" type="line"/>
      <point x="262.291" y="10" type="line"/>
      <point x="248.493" y="9.979" type="line" smooth="yes"/>
      <point x="215.78" y="9.979"/>
      <point x="191.403" y="33.8466"/>
      <point x="190.503" y="63.6024" type="curve"/>
      <point x="190.503" y="570" type="line"/>
      <point x="287.282" y="570" type="line" smooth="yes"/>
      <point x="385.261" y="570"/>
      <point x="445.152" y="520.268"/>
      <point x="445" y="439" type="curve" smooth="yes"/>
      <point x="444.968" y="421.824"/>
      <point x="442.905" y="399.057"/>
      <point x="438" y="385" type="curve" smooth="yes"/>
      <point x="388.011" y="241.75"/>
      <point x="229.059" y="283.866"/>
      <point x="229.013" y="283.866" type="curve"/>
      <point x="229.103" y="274.416" type="line"/>
      <point x="364.999" y="208.283"/>
      <point x="516.594" y="276.579"/>
      <point x="517" y="429" type="curve" smooth="yes"/>
      <point x="517.283" y="535.102"/>
      <point x="428.082" y="600"/>
      <point x="288.622" y="600" type="curve" smooth="yes"/>
    </contour>
  </outline>
</glyph>
<glyph name="q" format="1">
  <advance width="777"/>
  <unicode hex="0071"/>
  <outline>
    <contour>
      <point x="1190.78" y="-74" type="line"/>
      <point x="1081.16" y="-174"/>
      <point x="890.909" y="-167"/>
      <point x="758" y="-114" type="curve" smooth="yes"/>
      <point x="636.527" y="-66"/>
      <point x="531.686" y="-26"/>
      <point x="461.395" y="-5" type="curve"/>
      <point x="605.296" y="26.3191"/>
      <point x="711.409" y="142.421"/>
      <point x="711.409" y="299.992" type="curve" smooth="yes"/>
      <point x="711.409" y="485.836"/>
      <point x="563.812" y="614"/>
      <point x="380.701" y="614" type="curve" smooth="yes"/>
      <point x="197.574" y="614"/>
      <point x="49.978" y="485.836"/>
      <point x="49.978" y="299.992" type="curve" smooth="yes"/>
      <point x="49.978" y="114.156"/>
      <point x="197.574" y="-14"/>
      <point x="384.766" y="-14" type="curve"/>
      <point x="503.055" y="-37"/>
      <point x="645.705" y="-130"/>
      <point x="752" y="-174" type="curve" smooth="yes"/>
      <point x="1004.57" y="-281"/>
      <point x="1173.07" y="-132"/>
      <point x="1194.12" y="-78" type="curve"/>
    </contour>
    <contour>
      <point x="123.859" y="469.078"/>
      <point x="237.085" y="584.075"/>
      <point x="380.701" y="584.075" type="curve" smooth="yes"/>
      <point x="524.303" y="584.075"/>
      <point x="637.529" y="469.078"/>
      <point x="637.529" y="299.992" type="curve" smooth="yes"/>
      <point x="637.529" y="130.914"/>
      <point x="524.303" y="15.9249"/>
      <point x="380.701" y="15.9249" type="curve" smooth="yes"/>
      <point x="237.085" y="15.9249"/>
      <point x="123.859" y="130.914"/>
      <point x="123.859" y="299.992" type="curve" smooth="yes"/>
    </contour>
  </outline>
</glyph>
<glyph name="t" format="1">
  <advance width="578"/>
  <unicode hex="0074"/>
  <outline>
    <contour>
      <point x="126.292" y="601" type="line" smooth="yes"/>
      <point x="86.9748" y="601.034"/>
      <point x="32.3473" y="609.839"/>
      <point x="15" y="616.723" type="curve"/>
      <point x="15" y="504.118" type="line"/>
      <point x="25.6794" y="504.247" type="line"/>
      <point x="25.6586" y="519.613" type="line"/>
      <point x="25.6586" y="547.696"/>
      <point x="45.2936" y="570.483"/>
      <point x="75.652" y="571.009" type="curve" smooth="yes"/>
      <point x="256.741" y="571.02" type="line"/>
      <point x="256.741" y="64.193" type="line" smooth="yes"/>
      <point x="256.146" y="34.163"/>
      <point x="230.117" y="9.97901"/>
      <point x="198.055" y="9.97901" type="curve" smooth="yes"/>
      <point x="186.452" y="10" type="line"/>
      <point x="186.3" y="0" type="line"/>
      <point x="392.381" y="0" type="line"/>
      <point x="392.229" y="10" type="line"/>
      <point x="380.626" y="9.97901" type="line" smooth="yes"/>
      <point x="349.005" y="9.97901"/>
      <point x="323.283" y="33.5035"/>
      <point x="321.991" y="62.9594" type="curve"/>
      <point x="321.991" y="571.02" type="line"/>
      <point x="502.953" y="571.02" type="line" smooth="yes"/>
      <point x="533.312" y="570.483"/>
      <point x="552.947" y="547.696"/>
      <point x="552.98" y="519.613" type="curve" smooth="yes"/>
      <point x="552.959" y="504.247" type="line"/>
      <point x="563.605" y="504.118" type="line"/>
      <point x="563.605" y="616.723" type="line"/>
      <point x="546.258" y="609.839"/>
      <point x="491.631" y="601.034"/>
      <point x="451.916" y="601.034" type="curve" smooth="yes"/>
    </contour>
    <contour>
      <point x="290" y="321.67" type="move" name="center"/>
    </contour>
    <contour>
      <point x="287" y="0" type="move" name="bottom"/>
    </contour>
    <contour>
      <point x="288.976" y="664" type="move" name="top"/>
    </contour>
  </outline>
</glyph>
<glyph name="v" format="1">
  <advance width="663"/>
  <unicode hex="0076"/>
  <outline>
    <contour>
      <point x="477.522" y="600" type="line"/>
      <point x="477.522" y="590.092" type="line"/>
      <point x="485.451" y="590.092" type="line" smooth="yes"/>
      <point x="508.789" y="590.092"/>
      <point x="535.062" y="567.353"/>
      <point x="519.83" y="527.364" type="curve"/>
      <point x="336.412" y="93.3264" type="line"/>
      <point x="157.434" y="529.247" type="line"/>
      <point x="144.637" y="568.066"/>
      <point x="169.461" y="590.09"/>
      <point x="192.429" y="590.09" type="curve" smooth="yes"/>
      <point x="200.384" y="590.09" type="line"/>
      <point x="200.384" y="600" type="line"/>
      <point x="-5" y="600" type="line"/>
      <point x="-5" y="590" type="line"/>
      <point x="2.55628" y="590" type="line" smooth="yes"/>
      <point x="29.3138" y="590"/>
      <point x="59.4624" y="572.787"/>
      <point x="79.8578" y="531.5" type="curve" smooth="yes"/>
      <point x="326.687" y="-14" type="line"/>
      <point x="336.147" y="-14" type="line"/>
      <point x="338.216" y="12.1601"/>
      <point x="374.908" y="89"/>
      <point x="374.625" y="89" type="curve"/>
      <point x="581.428" y="531.709" type="line" smooth="yes"/>
      <point x="601.918" y="572.845"/>
      <point x="633.351" y="590"/>
      <point x="660.064" y="590" type="curve" smooth="yes"/>
      <point x="668.017" y="590" type="line"/>
      <point x="668.017" y="600" type="line"/>
    </contour>
  </outline>
</glyph>
<glyph name="x" format="1">
  <advance width="626"/>
  <unicode hex="0078"/>
  <outline>
    <contour>
      <point x="623.926" y="9.9995" type="line" smooth="yes"/>
      <point x="584.407" y="9.9995"/>
      <point x="548.016" y="32.8412"/>
      <point x="528.378" y="58.8784" type="curve"/>
      <point x="349.347" y="315.486" type="line"/>
      <point x="510.301" y="539.373" type="line" smooth="yes"/>
      <point x="530.655" y="566.905"/>
      <point x="566.248" y="589.999"/>
      <point x="606.383" y="589.999" type="curve" smooth="yes"/>
      <point x="619.812" y="589.999" type="line"/>
      <point x="619.812" y="599.999" type="line"/>
      <point x="397.59" y="599.999" type="line"/>
      <point x="397.59" y="589.999" type="line"/>
      <point x="409.652" y="589.999" type="line" smooth="yes"/>
      <point x="435.715" y="589.999"/>
      <point x="458.919" y="561.027"/>
      <point x="443.327" y="536.61" type="curve" smooth="yes"/>
      <point x="321.641" y="355.196" type="line"/>
      <point x="194.844" y="536.935" type="line" smooth="yes"/>
      <point x="178.83" y="561.4"/>
      <point x="202.257" y="589.999"/>
      <point x="228.4" y="589.999" type="curve" smooth="yes"/>
      <point x="240.462" y="589.999" type="line"/>
      <point x="240.462" y="599.999" type="line"/>
      <point x="5.0159" y="599.999" type="line"/>
      <point x="5.0159" y="589.999" type="line"/>
      <point x="17.9231" y="589.999" type="line" smooth="yes"/>
      <point x="57.9729" y="589.999"/>
      <point x="94.7018" y="566.575"/>
      <point x="114.209" y="540.128" type="curve" smooth="yes"/>
      <point x="282.904" y="297.108" type="line"/>
      <point x="97.0107" y="58.9863" type="line" smooth="yes"/>
      <point x="75.5866" y="33.1019"/>
      <point x="41.2111" y="9.99959"/>
      <point x="1.7192" y="9.99959" type="curve" smooth="yes"/>
      <point x="-11" y="9.99959" type="line"/>
      <point x="-11" y="0" type="line"/>
      <point x="207.285" y="0" type="line"/>
      <point x="207.285" y="9.99959" type="line"/>
      <point x="195.221" y="9.99959" type="line" smooth="yes"/>
      <point x="169.07" y="9.99959"/>
      <point x="143.77" y="39.1704"/>
      <point x="161.71" y="63.6411" type="curve" smooth="yes"/>
      <point x="307.839" y="261.186" type="line"/>
      <point x="445.536" y="62.8216" type="line"/>
      <point x="461.238" y="38.4092"/>
      <point x="437.882" y="9.99948"/>
      <point x="411.825" y="9.99948" type="curve" smooth="yes"/>
      <point x="399.762" y="9.99948" type="line"/>
      <point x="399.762" y="0" type="line"/>
      <point x="636.981" y="0" type="line"/>
      <point x="636.981" y="9.99948" type="line"/>
    </contour>
  </outline>
</glyph>
<glyph name="cent" format="1">
  <advance width="602"/>
  <unicode hex="00A2"/>
  <outline>
    <contour>
      <point x="555.44" y="304.406" type="line"/>
      <point x="546.123" y="162.896"/>
      <point x="451.488" y="105.121"/>
      <point x="324.566" y="104.893" type="curve"/>
      <point x="364.088" y="585.573" type="line"/>
      <point x="447.582" y="577.175"/>
      <point x="509.283" y="536.257"/>
      <point x="531.573" y="442.978" type="curve"/>
      <point x="538.763" y="442.95" type="line"/>
      <point x="521.334" y="564.955" type="line"/>
      <point x="480.021" y="591.549"/>
      <point x="423.474" y="609.698"/>
      <point x="366.538" y="615.362" type="curve"/>
      <point x="373.47" y="699.677" type="line"/>
      <point x="342.947" y="700.726" type="line"/>
      <point x="336.237" y="617.176" type="line"/>
      <point x="160.096" y="617.246"/>
      <point x="50" y="516.126"/>
      <point x="50" y="346.002" type="curve" smooth="yes"/>
      <point x="50" y="191.082"/>
      <point x="145.986" y="91.3132"/>
      <point x="292.821" y="76.6309" type="curve"/>
      <point x="286.184" y="-6" type="line"/>
      <point x="315.202" y="-9" type="line"/>
      <point x="322.097" y="74.8544" type="line"/>
      <point x="428.689" y="74.7531"/>
      <point x="511.45" y="115.456"/>
      <point x="554.691" y="186.136" type="curve"/>
      <point x="562.628" y="304.437" type="line"/>
    </contour>
    <contour>
      <point x="295.31" y="107.621" type="line"/>
      <point x="186.633" y="124.185"/>
      <point x="125" y="210.177"/>
      <point x="125" y="346.002" type="curve" smooth="yes"/>
      <point x="125" y="498.119"/>
      <point x="199.571" y="587.245"/>
      <point x="333.83" y="587.218" type="curve"/>
    </contour>
  </outline>
</glyph>
<glyph name="sterling" format="1">
  <advance width="577"/>
  <unicode hex="00A3"/>
  <outline>
    <contour>
      <point x="537.685" y="159.402" type="line"/>
      <point x="488.681" y="61"/>
      <point x="391.681" y="41"/>
      <point x="311.681" y="48" type="curve" smooth="yes"/>
      <point x="236.681" y="54"/>
      <point x="175.681" y="71"/>
      <point x="125.051" y="53.691" type="curve"/>
      <point x="174.446" y="100.949"/>
      <point x="227.549" y="152.186"/>
      <point x="229.376" y="328.752" type="curve"/>
      <point x="400.358" y="328.752" type="line"/>
      <point x="412.618" y="364.614" type="line"/>
      <point x="229.072" y="364.614" type="line"/>
      <point x="222.614" y="554.978"/>
      <point x="237.723" y="671.804"/>
      <point x="359.681" y="684" type="curve" smooth="yes"/>
      <point x="423.681" y="690"/>
      <point x="476.681" y="657"/>
      <point x="464.853" y="565.502" type="curve"/>
      <point x="474.853" y="565.502" type="line"/>
      <point x="502.202" y="656.702" type="line"/>
      <point x="474.681" y="692"/>
      <point x="424.681" y="720"/>
      <point x="359.681" y="714" type="curve" smooth="yes"/>
      <point x="198.681" y="699"/>
      <point x="149.681" y="560"/>
      <point x="158.921" y="364.614" type="curve"/>
      <point x="62.2608" y="364.614" type="line"/>
      <point x="49.9998" y="328.752" type="line"/>
      <point x="159.652" y="328.752" type="line"/>
      <point x="159.436" y="163.286"/>
      <point x="108.56" y="50.7009"/>
      <point x="57.6958" y="9.97909" type="curve"/>
      <point x="57.6958" y="0" type="line"/>
      <point x="67.6958" y="0" type="line"/>
      <point x="79.6808" y="12"/>
      <point x="99.6808" y="22"/>
      <point x="108.681" y="24" type="curve" smooth="yes"/>
      <point x="171.681" y="37"/>
      <point x="220.681" y="4"/>
      <point x="309.681" y="-8" type="curve" smooth="yes"/>
      <point x="362.681" y="-15"/>
      <point x="436.681" y="-6"/>
      <point x="502.253" y="24" type="curve"/>
      <point x="547.685" y="159.402" type="line"/>
    </contour>
  </outline>
</glyph>
<glyph name="currency" format="1">
  <advance width="541"/>
  <unicode hex="00A4"/>
  <outline>
    <contour>
      <point x="491.696" y="153.65" type="line"/>
      <point x="431.427" y="213.918" type="line"/>
      <point x="499.611" y="293.771"/>
      <point x="499.231" y="412.086"/>
      <point x="430.286" y="491.509" type="curve"/>
      <point x="491.695" y="552.919" type="line"/>
      <point x="470.482" y="574.132" type="line"/>
      <point x="409.094" y="512.744" type="line"/>
      <point x="329.668" y="581.982"/>
      <point x="211.132" y="582.46"/>
      <point x="131.167" y="514.178" type="curve"/>
      <point x="71.2131" y="574.132" type="line"/>
      <point x="50" y="552.919" type="line"/>
      <point x="109.761" y="493.158" type="line"/>
      <point x="38.8892" y="413.182"/>
      <point x="38.5042" y="292.672"/>
      <point x="108.606" y="212.255" type="curve"/>
      <point x="50" y="153.65" type="line"/>
      <point x="71.2141" y="132.437" type="line"/>
      <point x="129.841" y="191.064" type="line"/>
      <point x="210.257" y="121.257"/>
      <point x="330.542" y="121.739"/>
      <point x="410.408" y="192.511" type="curve"/>
      <point x="470.482" y="132.437" type="line"/>
    </contour>
    <contour>
      <point x="68.4321" y="294.117"/>
      <point x="68.4321" y="409.984"/>
      <point x="139.898" y="481.451" type="curve" smooth="yes"/>
      <point x="211.365" y="552.918"/>
      <point x="327.233" y="552.918"/>
      <point x="398.7" y="481.451" type="curve" smooth="yes"/>
      <point x="470.166" y="409.984"/>
      <point x="470.166" y="294.117"/>
      <point x="398.699" y="222.65" type="curve" smooth="yes"/>
      <point x="327.233" y="151.183"/>
      <point x="211.365" y="151.183"/>
      <point x="139.899" y="222.65" type="curve" smooth="yes"/>
    </contour>
  </outline>
</glyph>
<glyph name="yen" format="1">
  <advance width="661"/>
  <unicode hex="00A5"/>
  <outline>
    <contour>
      <point x="449.868" y="700.017" type="line"/>
      <point x="449.868" y="689.993" type="line"/>
      <point x="462.468" y="689.993" type="line" smooth="yes"/>
      <point x="489.414" y="689.993"/>
      <point x="513.609" y="657.132"/>
      <point x="498.051" y="628.967" type="curve" smooth="yes"/>
      <point x="497.524" y="628.04" type="line"/>
      <point x="338.151" y="348.103" type="line"/>
      <point x="188.308" y="627.953" type="line" smooth="yes"/>
      <point x="173.594" y="656.338"/>
      <point x="194.051" y="690.034"/>
      <point x="223.324" y="690.034" type="curve" smooth="yes"/>
      <point x="235.923" y="690.034" type="line"/>
      <point x="235.923" y="700" type="line"/>
      <point x="-10" y="700" type="line"/>
      <point x="-10" y="690.034" type="line"/>
      <point x="3.63201" y="690.034" type="line" smooth="yes"/>
      <point x="45.4481" y="690.034"/>
      <point x="84.8065" y="662.318"/>
      <point x="104.175" y="631.605" type="curve" smooth="yes"/>
      <point x="233.792" y="414.909" type="line"/>
      <point x="104.484" y="414.909" type="line"/>
      <point x="104.484" y="384.909" type="line"/>
      <point x="251.736" y="384.909" type="line"/>
      <point x="294.607" y="313.237" type="line"/>
      <point x="294.607" y="294.909" type="line"/>
      <point x="104.484" y="294.909" type="line"/>
      <point x="104.484" y="264.909" type="line"/>
      <point x="294.607" y="264.909" type="line"/>
      <point x="294.607" y="72.8641" type="line" smooth="yes"/>
      <point x="293.931" y="38.0291"/>
      <point x="265.534" y="9.97906"/>
      <point x="230.532" y="9.97906" type="curve" smooth="yes"/>
      <point x="217.882" y="10" type="line"/>
      <point x="217.721" y="0" type="line"/>
      <point x="436.468" y="0" type="line"/>
      <point x="436.307" y="10" type="line"/>
      <point x="423.657" y="9.97906" type="line" smooth="yes"/>
      <point x="388.944" y="9.97906"/>
      <point x="360.728" y="37.568"/>
      <point x="359.625" y="72.0029" type="curve"/>
      <point x="359.625" y="264.909" type="line"/>
      <point x="549.747" y="264.909" type="line"/>
      <point x="549.747" y="294.909" type="line"/>
      <point x="359.625" y="294.909" type="line"/>
      <point x="359.625" y="312.351" type="line"/>
      <point x="404.514" y="384.909" type="line"/>
      <point x="549.747" y="384.909" type="line"/>
      <point x="549.747" y="414.909" type="line"/>
      <point x="423.074" y="414.909" type="line"/>
      <point x="557.331" y="631.92" type="line"/>
      <point x="578.69" y="662.513"/>
      <point x="615.96" y="689.993"/>
      <point x="657.64" y="689.993" type="curve" smooth="yes"/>
      <point x="671.64" y="689.993" type="line"/>
      <point x="671.64" y="700.017" type="line"/>
    </contour>
  </outline>
</glyph>
<glyph name="macron" format="1">
  <advance width="600"/>
  <unicode hex="00AF"/>
  <outline>
    <contour>
      <point x="170.23" y="702.943" type="line"/>
      <point x="420.23" y="702.943" type="line"/>
      <point x="420.23" y="737.943" type="line"/>
      <point x="170.23" y="737.943" type="line"/>
    </contour>
    <contour>
      <point x="292.41" y="671.582" type="move" name="_top"/>
    </contour>
  </outline>
</glyph>
<glyph name="onequarter" format="1">
  <advance width="713"/>
  <unicode hex="00BC"/>
  <outline>
    <contour>
      <point x="197.331" y="314.653" type="line" smooth="yes"/>
      <point x="177.381" y="314.633"/>
      <point x="160.531" y="330.5"/>
      <point x="160.531" y="350.3" type="curve" smooth="yes"/>
      <point x="160.531" y="714" type="line"/>
      <point x="153.865" y="714" type="line"/>
      <point x="127.877" y="683.099"/>
      <point x="94.672" y="676.015"/>
      <point x="60" y="671.333" type="curve"/>
      <point x="60" y="664.667" type="line"/>
      <point x="85.155" y="664.667" type="line" smooth="yes"/>
      <point x="105.243" y="664.667"/>
      <point x="115.833" y="653.467"/>
      <point x="115.833" y="632" type="curve" smooth="yes"/>
      <point x="115.833" y="350.735" type="line" smooth="yes"/>
      <point x="115.833" y="330.739"/>
      <point x="99.118" y="314.632"/>
      <point x="79.022" y="314.653" type="curve" smooth="yes"/>
      <point x="65.085" y="314.667" type="line"/>
      <point x="64.993" y="308" type="line"/>
      <point x="211.361" y="308" type="line"/>
      <point x="211.268" y="314.667" type="line"/>
    </contour>
    <contour>
      <point x="675.164" y="129.842" type="line"/>
      <point x="689.164" y="176.842" type="line"/>
      <point x="682.497" y="176.842" type="line"/>
      <point x="674.497" y="167.578"/>
      <point x="670.628" y="163.509"/>
      <point x="646.069" y="163.509" type="curve" smooth="yes"/>
      <point x="617.063" y="163.509" type="line"/>
      <point x="617.063" y="405" type="line"/>
      <point x="610.82" y="405" type="line"/>
      <point x="390.633" y="136.509" type="line"/>
      <point x="390.633" y="129.842" type="line"/>
      <point x="572.73" y="129.842" type="line"/>
      <point x="572.73" y="40.2348" type="line"/>
      <point x="571.978" y="20.2958"/>
      <point x="555.575" y="5.66701"/>
      <point x="535.945" y="5.66701" type="curve" smooth="yes"/>
      <point x="528.675" y="5.66701" type="line"/>
      <point x="528.583" y="-1" type="line"/>
      <point x="661.224" y="-1" type="line"/>
      <point x="661.131" y="5.66701" type="line"/>
      <point x="653.861" y="5.66701" type="line" smooth="yes"/>
      <point x="634.012" y="5.66701"/>
      <point x="617.233" y="21.5054"/>
      <point x="617.063" y="41.3634" type="curve"/>
      <point x="617.063" y="129.842" type="line"/>
    </contour>
    <contour>
      <point x="444.595" y="163.509" type="line"/>
      <point x="572.73" y="323.105" type="line"/>
      <point x="572.73" y="163.509" type="line"/>
    </contour>
    <contour>
      <point x="578.349" y="714" type="line"/>
      <point x="602.492" y="697.154" type="line"/>
      <point x="124.508" y="-14" type="line"/>
      <point x="100" y="2.08358" type="line"/>
    </contour>
  </outline>
</glyph>
<glyph name="Aring" format="1">
  <advance width="712"/>
  <unicode hex="00C5"/>
  <outline>
    <contour>
      <point x="364.557" y="701.667" type="line"/>
      <point x="408.594" y="704.835"/>
      <point x="440.938" y="731.996"/>
      <point x="440.938" y="769.351" type="curve" smooth="yes"/>
      <point x="440.938" y="812.127"/>
      <point x="404.267" y="837.345"/>
      <point x="355.855" y="837.345" type="curve" smooth="yes"/>
      <point x="307.444" y="837.345"/>
      <point x="270.773" y="809.127"/>
      <point x="270.773" y="769.351" type="curve" smooth="yes"/>
      <point x="270.773" y="731.641"/>
      <point x="303.733" y="704.32"/>
      <point x="348.41" y="701.583" type="curve"/>
      <point x="340.71" y="670.793"/>
      <point x="313.382" y="611"/>
      <point x="313.382" y="611" type="curve"/>
      <point x="86.6021" y="72.8856" type="line" smooth="yes"/>
      <point x="66.3779" y="28.4291"/>
      <point x="29.4092" y="9.99979"/>
      <point x="-1" y="9.99979" type="curve" smooth="yes"/>
      <point x="-10" y="9.99979" type="line"/>
      <point x="-10" y="0" type="line"/>
      <point x="191.278" y="0" type="line"/>
      <point x="191.278" y="9.90769" type="line"/>
      <point x="182.486" y="9.90769" type="line" smooth="yes"/>
      <point x="156.799" y="9.90769"/>
      <point x="130.154" y="32.4347"/>
      <point x="144.269" y="72.0776" type="curve" smooth="yes"/>
      <point x="211.258" y="243" type="line"/>
      <point x="480.605" y="243" type="line"/>
      <point x="544.567" y="72.6812" type="line" smooth="yes"/>
      <point x="559.169" y="32.6642"/>
      <point x="532.384" y="9.9108"/>
      <point x="506.568" y="9.9108" type="curve" smooth="yes"/>
      <point x="497.776" y="9.9108" type="line"/>
      <point x="497.776" y="0" type="line"/>
      <point x="722.956" y="0" type="line"/>
      <point x="722.956" y="10" type="line"/>
      <point x="714.593" y="10" type="line" smooth="yes"/>
      <point x="683.959" y="10"/>
      <point x="646.968" y="28.4483"/>
      <point x="626.75" y="72.9552" type="curve" smooth="yes"/>
    </contour>
    <contour>
      <point x="311.406" y="803.1"/>
      <point x="330.777" y="821.784"/>
      <point x="355.856" y="821.784" type="curve" smooth="yes"/>
      <point x="380.934" y="821.784"/>
      <point x="400.305" y="803.1"/>
      <point x="400.305" y="769.351" type="curve" smooth="yes"/>
      <point x="400.305" y="735.602"/>
      <point x="380.934" y="716.918"/>
      <point x="355.856" y="716.918" type="curve" smooth="yes"/>
      <point x="330.777" y="716.918"/>
      <point x="311.406" y="735.602"/>
      <point x="311.406" y="769.351" type="curve" smooth="yes"/>
    </contour>
    <contour>
      <point x="223.015" y="273" type="line"/>
      <point x="348.806" y="593.955" type="line"/>
      <point x="469.338" y="273" type="line"/>
    </contour>
  </outline>
</glyph>
<glyph name="AE" format="1">
  <advance width="902"/>
  <unicode hex="00C6"/>
  <outline>
    <contour>
      <point x="857.685" y="138.801" type="line"/>
      <point x="847.685" y="138.801" type="line"/>
      <point x="821.601" y="76.483"/>
      <point x="773.773" y="31.452"/>
      <point x="695.013" y="30.59" type="curve" smooth="yes"/>
      <point x="530.588" y="30.59" type="line"/>
      <point x="530.588" y="320.219" type="line"/>
      <point x="700.624" y="320.219" type="line"/>
      <point x="726.938" y="319.181"/>
      <point x="747.961" y="297.555"/>
      <point x="747.961" y="270.978" type="curve" smooth="yes"/>
      <point x="747.946" y="256.244" type="line"/>
      <point x="757.946" y="256.12" type="line"/>
      <point x="757.946" y="414.376" type="line"/>
      <point x="747.946" y="414.251" type="line"/>
      <point x="747.963" y="399.517" type="line" smooth="yes"/>
      <point x="747.963" y="372.594"/>
      <point x="726.385" y="350.754"/>
      <point x="699.59" y="350.249" type="curve" smooth="yes"/>
      <point x="530.588" y="350.219" type="line"/>
      <point x="530.588" y="669.41" type="line"/>
      <point x="742.143" y="669.41" type="line" smooth="yes"/>
      <point x="768.94" y="668.884"/>
      <point x="790.514" y="647.039"/>
      <point x="790.514" y="620.116" type="curve" smooth="yes"/>
      <point x="790.498" y="605.385" type="line"/>
      <point x="800.498" y="605.261" type="line"/>
      <point x="800.498" y="718.188" type="line"/>
      <point x="781.939" y="710.367"/>
      <point x="724.366" y="700.408"/>
      <point x="681.268" y="700" type="curve" smooth="yes"/>
      <point x="437.553" y="700" type="line"/>
      <point x="437.553" y="690" type="line"/>
      <point x="441.553" y="690" type="line" smooth="yes"/>
      <point x="460.307" y="690"/>
      <point x="471.17" y="672.718"/>
      <point x="463.278" y="655.435" type="curve"/>
      <point x="89.2845" y="71.3419" type="line" smooth="yes"/>
      <point x="69.4679" y="39.6717"/>
      <point x="30.1823" y="9.99992"/>
      <point x="-3" y="9.99992" type="curve" smooth="yes"/>
      <point x="-10" y="9.99992" type="line"/>
      <point x="-10" y="0" type="line"/>
      <point x="188.523" y="0" type="line"/>
      <point x="188.523" y="9.99992" type="line"/>
      <point x="179.077" y="9.99992" type="line"/>
      <point x="149.073" y="8.20532"/>
      <point x="135.742" y="38.539"/>
      <point x="152.43" y="67.1509" type="curve" smooth="yes"/>
      <point x="301.791" y="320.219" type="line"/>
      <point x="465.555" y="320.219" type="line"/>
      <point x="465.555" y="58.3571" type="line" smooth="yes"/>
      <point x="465.046" y="31.5613"/>
      <point x="443.202" y="9.98501"/>
      <point x="416.278" y="9.98501" type="curve" smooth="yes"/>
      <point x="406.547" y="10" type="line"/>
      <point x="406.423" y="0" type="line"/>
      <point x="800.544" y="0" type="line"/>
      <point x="801.993" y="0.00101467" type="line"/>
    </contour>
    <contour>
      <point x="319.497" y="350.219" type="line"/>
      <point x="465.555" y="597.692" type="line"/>
      <point x="465.555" y="350.219" type="line"/>
    </contour>
    <contour>
      <point x="612" y="700" type="move" name="top"/>
    </contour>
  </outline>
</glyph>
<glyph name="Ccedilla" format="1">
  <advance width="760"/>
  <unicode hex="00C7"/>
  <outline>
    <contour>
      <point x="702.006" y="291.85" type="line"/>
      <point x="679.263" y="87.058"/>
      <point x="559.123" y="16.3536"/>
      <point x="417.129" y="15.9292" type="curve" smooth="yes"/>
      <point x="249" y="20"/>
      <point x="135" y="151"/>
      <point x="135" y="352" type="curve" smooth="yes"/>
      <point x="135" y="551"/>
      <point x="247" y="684"/>
      <point x="422.814" y="684.074" type="curve" smooth="yes"/>
      <point x="543" y="684"/>
      <point x="641" y="622"/>
      <point x="671.378" y="505.264" type="curve"/>
      <point x="679.701" y="505.232" type="line"/>
      <point x="659.525" y="646.468" type="line"/>
      <point x="601" y="685"/>
      <point x="521" y="714"/>
      <point x="423" y="714" type="curve" smooth="yes"/>
      <point x="203" y="714"/>
      <point x="60" y="568"/>
      <point x="60" y="351" type="curve" smooth="yes"/>
      <point x="60" y="130"/>
      <point x="208" y="-13"/>
      <point x="417.128" y="-14" type="curve" smooth="yes"/>
      <point x="555.992" y="-14"/>
      <point x="645.441" y="48.7996"/>
      <point x="698.139" y="134.938" type="curve"/>
      <point x="710.328" y="291.886" type="line"/>
    </contour>
    <contour>
      <point x="360.212" y="-71" type="line"/>
      <point x="365.212" y="-81" type="line"/>
      <point x="400.842" y="-66"/>
      <point x="447.479" y="-72"/>
      <point x="448.978" y="-114" type="curve" smooth="yes"/>
      <point x="450.713" y="-162"/>
      <point x="399.959" y="-178"/>
      <point x="358.937" y="-178" type="curve"/>
      <point x="358.212" y="-188" type="line"/>
      <point x="425.236" y="-209"/>
      <point x="500.978" y="-178"/>
      <point x="498.978" y="-115" type="curve" smooth="yes"/>
      <point x="496.806" y="-46"/>
      <point x="429.12" y="-45"/>
      <point x="394.134" y="-57" type="curve"/>
      <point x="435.793" y="-9" type="line"/>
      <point x="408.142" y="-9" type="line"/>
    </contour>
  </outline>
</glyph>
<glyph name="Egrave" format="1">
  <advance width="577"/>
  <unicode hex="00C8"/>
  <outline>
    <contour>
      <point x="532.845" y="161.544" type="line"/>
      <point x="522.845" y="161.544" type="line"/>
      <point x="491.976" y="85.4063"/>
      <point x="451.283" y="30.5933"/>
      <point x="345.32" y="30.5933" type="curve" smooth="yes"/>
      <point x="201.901" y="30.5933" type="line"/>
      <point x="201.901" y="330.219" type="line"/>
      <point x="371.938" y="330.219" type="line"/>
      <point x="398.251" y="329.181"/>
      <point x="419.275" y="307.555"/>
      <point x="419.275" y="280.978" type="curve" smooth="yes"/>
      <point x="419.259" y="266.244" type="line"/>
      <point x="429.032" y="266.12" type="line"/>
      <point x="429.032" y="424.376" type="line"/>
      <point x="419.259" y="424.251" type="line"/>
      <point x="419.276" y="409.517" type="line" smooth="yes"/>
      <point x="419.276" y="382.594"/>
      <point x="397.698" y="360.754"/>
      <point x="370.904" y="360.249" type="curve" smooth="yes"/>
      <point x="201.901" y="360.219" type="line"/>
      <point x="201.901" y="669.41" type="line"/>
      <point x="405.771" y="669.41" type="line"/>
      <point x="437.01" y="667.512"/>
      <point x="461.765" y="641.616"/>
      <point x="461.765" y="609.892" type="curve" smooth="yes"/>
      <point x="461.746" y="592.068" type="line"/>
      <point x="471.846" y="591.918" type="line"/>
      <point x="471.846" y="672.219" type="line"/>
      <point x="471.797" y="688.911" type="line"/>
      <point x="471.811" y="718.188" type="line"/>
      <point x="453.253" y="710.367"/>
      <point x="395.681" y="700.408"/>
      <point x="352.581" y="700" type="curve" smooth="yes"/>
      <point x="60.3511" y="700.061" type="line"/>
      <point x="60.5131" y="690.061" type="line"/>
      <point x="73.1631" y="690.081" type="line" smooth="yes"/>
      <point x="106.267" y="690.081"/>
      <point x="133.463" y="664.99"/>
      <point x="136.869" y="632.799" type="curve"/>
      <point x="136.869" y="72.8648" type="line" smooth="yes"/>
      <point x="136.21" y="38.0298"/>
      <point x="107.813" y="9.9798"/>
      <point x="72.8111" y="9.9798" type="curve" smooth="yes"/>
      <point x="60.1611" y="10" type="line"/>
      <point x="60" y="0" type="line"/>
      <point x="474.557" y="0" type="line"/>
    </contour>
    <contour>
      <point x="305.313" y="771" type="line"/>
      <point x="262.991" y="817.631"/>
      <point x="220.668" y="861.263"/>
      <point x="178.346" y="901.894" type="curve"/>
      <point x="162.712" y="887.358"/>
      <point x="148.077" y="869.821"/>
      <point x="137.443" y="849.285" type="curve"/>
      <point x="191.066" y="817.857"/>
      <point x="244.69" y="789.428"/>
      <point x="298.313" y="764" type="curve"/>
    </contour>
  </outline>
</glyph>
<glyph name="Eacute" format="1">
  <advance width="577"/>
  <unicode hex="00C9"/>
  <outline>
    <contour>
      <point x="532.845" y="161.544" type="line"/>
      <point x="522.845" y="161.544" type="line"/>
      <point x="491.976" y="85.4063"/>
      <point x="451.283" y="30.5933"/>
      <point x="345.32" y="30.5933" type="curve" smooth="yes"/>
      <point x="201.901" y="30.5933" type="line"/>
      <point x="201.901" y="330.219" type="line"/>
      <point x="371.938" y="330.219" type="line"/>
      <point x="398.251" y="329.181"/>
      <point x="419.275" y="307.555"/>
      <point x="419.275" y="280.978" type="curve" smooth="yes"/>
      <point x="419.259" y="266.244" type="line"/>
      <point x="429.032" y="266.12" type="line"/>
      <point x="429.032" y="424.376" type="line"/>
      <point x="419.259" y="424.251" type="line"/>
      <point x="419.276" y="409.517" type="line" smooth="yes"/>
      <point x="419.276" y="382.594"/>
      <point x="397.698" y="360.754"/>
      <point x="370.904" y="360.249" type="curve" smooth="yes"/>
      <point x="201.901" y="360.219" type="line"/>
      <point x="201.901" y="669.41" type="line"/>
      <point x="405.771" y="669.41" type="line"/>
      <point x="437.01" y="667.512"/>
      <point x="461.765" y="641.616"/>
      <point x="461.765" y="609.892" type="curve" smooth="yes"/>
      <point x="461.746" y="592.068" type="line"/>
      <point x="471.846" y="591.918" type="line"/>
      <point x="471.846" y="672.219" type="line"/>
      <point x="471.797" y="688.911" type="line"/>
      <point x="471.811" y="718.188" type="line"/>
      <point x="453.253" y="710.367"/>
      <point x="395.681" y="700.408"/>
      <point x="352.581" y="700" type="curve" smooth="yes"/>
      <point x="60.3511" y="700.061" type="line"/>
      <point x="60.5131" y="690.061" type="line"/>
      <point x="73.1631" y="690.081" type="line" smooth="yes"/>
      <point x="106.267" y="690.081"/>
      <point x="133.463" y="664.99"/>
      <point x="136.869" y="632.799" type="curve"/>
      <point x="136.869" y="72.8648" type="line" smooth="yes"/>
      <point x="136.21" y="38.0298"/>
      <point x="107.813" y="9.9798"/>
      <point x="72.8111" y="9.9798" type="curve" smooth="yes"/>
      <point x="60.1611" y="10" type="line"/>
      <point x="60" y="0" type="line"/>
      <point x="474.557" y="0" type="line"/>
    </contour>
    <contour>
      <point x="298.245" y="763.971" type="line"/>
      <point x="351.868" y="790.399"/>
      <point x="405.492" y="817.828"/>
      <point x="459.115" y="849.256" type="curve"/>
      <point x="448.481" y="868.792"/>
      <point x="433.846" y="886.329"/>
      <point x="418.212" y="901.865" type="curve"/>
      <point x="375.89" y="861.234"/>
      <point x="333.567" y="816.602"/>
      <point x="291.245" y="770.971" type="curve"/>
    </contour>
  </outline>
</glyph>
<glyph name="Igrave" format="1">
  <advance width="338"/>
  <unicode hex="00CC"/>
  <outline>
    <contour>
      <point x="176.306" y="771" type="line"/>
      <point x="133.984" y="817.631"/>
      <point x="91.661" y="861.263"/>
      <point x="49.339" y="901.894" type="curve"/>
      <point x="33.7047" y="887.358"/>
      <point x="19.0703" y="869.821"/>
      <point x="8.436" y="849.285" type="curve"/>
      <point x="62.059" y="817.857"/>
      <point x="115.683" y="789.428"/>
      <point x="169.306" y="764" type="curve"/>
    </contour>
    <contour>
      <point x="278.626" y="10" type="line"/>
      <point x="265.976" y="9.979" type="line" smooth="yes"/>
      <point x="230.974" y="9.979"/>
      <point x="202.577" y="38.029"/>
      <point x="201.922" y="72.864" type="curve"/>
      <point x="201.922" y="627.818" type="line" smooth="yes"/>
      <point x="202.9" y="662.363"/>
      <point x="231.167" y="690.08"/>
      <point x="265.959" y="690.08" type="curve" smooth="yes"/>
      <point x="278.609" y="690.06" type="line"/>
      <point x="278.771" y="700.06" type="line"/>
      <point x="60.016" y="700.06" type="line"/>
      <point x="60.178" y="690.06" type="line"/>
      <point x="72.828" y="690.08" type="line" smooth="yes"/>
      <point x="107.692" y="690.08"/>
      <point x="136.003" y="662.25"/>
      <point x="136.873" y="627.606" type="curve" smooth="yes"/>
      <point x="136.873" y="72.8641" type="line" smooth="yes"/>
      <point x="136.21" y="38.0291"/>
      <point x="107.813" y="9.97908"/>
      <point x="72.8109" y="9.97908" type="curve" smooth="yes"/>
      <point x="60.1609" y="10" type="line"/>
      <point x="59.9999" y="0" type="line"/>
      <point x="278.787" y="0" type="line"/>
    </contour>
  </outline>
</glyph>
<glyph name="Iacute" format="1">
  <advance width="338"/>
  <unicode hex="00CD"/>
  <outline>
    <contour>
      <point x="278.626" y="10" type="line"/>
      <point x="265.976" y="9.979" type="line" smooth="yes"/>
      <point x="230.974" y="9.979"/>
      <point x="202.577" y="38.029"/>
      <point x="201.922" y="72.864" type="curve"/>
      <point x="201.922" y="627.818" type="line" smooth="yes"/>
      <point x="202.9" y="662.363"/>
      <point x="231.167" y="690.08"/>
      <point x="265.959" y="690.08" type="curve" smooth="yes"/>
      <point x="278.609" y="690.06" type="line"/>
      <point x="278.771" y="700.06" type="line"/>
      <point x="60.016" y="700.06" type="line"/>
      <point x="60.178" y="690.06" type="line"/>
      <point x="72.828" y="690.08" type="line" smooth="yes"/>
      <point x="107.692" y="690.08"/>
      <point x="136.003" y="662.25"/>
      <point x="136.873" y="627.606" type="curve" smooth="yes"/>
      <point x="136.873" y="72.8641" type="line" smooth="yes"/>
      <point x="136.21" y="38.0291"/>
      <point x="107.813" y="9.97908"/>
      <point x="72.8109" y="9.97908" type="curve" smooth="yes"/>
      <point x="60.1609" y="10" type="line"/>
      <point x="59.9999" y="0" type="line"/>
      <point x="278.787" y="0" type="line"/>
    </contour>
    <contour>
      <point x="169.238" y="763.971" type="line"/>
      <point x="222.861" y="790.399"/>
      <point x="276.485" y="817.828"/>
      <point x="330.108" y="849.256" type="curve"/>
      <point x="319.474" y="868.792"/>
      <point x="304.839" y="886.329"/>
      <point x="289.205" y="901.865" type="curve"/>
      <point x="246.883" y="861.234"/>
      <point x="204.56" y="816.602"/>
      <point x="162.238" y="770.971" type="curve"/>
    </contour>
  </outline>
</glyph>
<glyph name="Icircumflex" format="1">
  <advance width="338"/>
  <unicode hex="00CE"/>
  <outline>
    <contour>
      <point x="278.626" y="10" type="line"/>
      <point x="265.976" y="9.979" type="line" smooth="yes"/>
      <point x="230.974" y="9.979"/>
      <point x="202.577" y="38.029"/>
      <point x="201.922" y="72.864" type="curve"/>
      <point x="201.922" y="627.818" type="line" smooth="yes"/>
      <point x="202.9" y="662.363"/>
      <point x="231.167" y="690.08"/>
      <point x="265.959" y="690.08" type="curve" smooth="yes"/>
      <point x="278.609" y="690.06" type="line"/>
      <point x="278.771" y="700.06" type="line"/>
      <point x="60.016" y="700.06" type="line"/>
      <point x="60.178" y="690.06" type="line"/>
      <point x="72.828" y="690.08" type="line" smooth="yes"/>
      <point x="107.692" y="690.08"/>
      <point x="136.003" y="662.25"/>
      <point x="136.873" y="627.606" type="curve" smooth="yes"/>
      <point x="136.873" y="72.8641" type="line" smooth="yes"/>
      <point x="136.21" y="38.0291"/>
      <point x="107.813" y="9.97908"/>
      <point x="72.8109" y="9.97908" type="curve" smooth="yes"/>
      <point x="60.1609" y="10" type="line"/>
      <point x="59.9999" y="0" type="line"/>
      <point x="278.787" y="0" type="line"/>
    </contour>
    <contour>
      <point x="164.099" y="889.736" type="line"/>
      <point x="174.099" y="889.736" type="line"/>
      <point x="288.274" y="770.884" type="line"/>
      <point x="282.274" y="762.884" type="line"/>
      <point x="168.629" y="828.98" type="line"/>
      <point x="63.969" y="762.98" type="line"/>
      <point x="57.969" y="770.98" type="line"/>
    </contour>
  </outline>
</glyph>
<glyph name="Idieresis" format="1">
  <advance width="338"/>
  <unicode hex="00CF"/>
  <outline>
    <contour>
      <point x="278.626" y="10" type="line"/>
      <point x="265.976" y="9.979" type="line" smooth="yes"/>
      <point x="230.974" y="9.979"/>
      <point x="202.577" y="38.029"/>
      <point x="201.922" y="72.864" type="curve"/>
      <point x="201.922" y="627.818" type="line" smooth="yes"/>
      <point x="202.9" y="662.363"/>
      <point x="231.167" y="690.08"/>
      <point x="265.959" y="690.08" type="curve" smooth="yes"/>
      <point x="278.609" y="690.06" type="line"/>
      <point x="278.771" y="700.06" type="line"/>
      <point x="60.016" y="700.06" type="line"/>
      <point x="60.178" y="690.06" type="line"/>
      <point x="72.828" y="690.08" type="line" smooth="yes"/>
      <point x="107.692" y="690.08"/>
      <point x="136.003" y="662.25"/>
      <point x="136.873" y="627.606" type="curve" smooth="yes"/>
      <point x="136.873" y="72.8641" type="line" smooth="yes"/>
      <point x="136.21" y="38.0291"/>
      <point x="107.813" y="9.97908"/>
      <point x="72.8109" y="9.97908" type="curve" smooth="yes"/>
      <point x="60.1609" y="10" type="line"/>
      <point x="59.9999" y="0" type="line"/>
      <point x="278.787" y="0" type="line"/>
    </contour>
    <contour>
      <point x="96.687" y="764.096"/>
      <point x="114.182" y="781.591"/>
      <point x="114.182" y="803.174" type="curve" smooth="yes"/>
      <point x="114.182" y="824.757"/>
      <point x="96.687" y="842.253"/>
      <point x="75.104" y="842.253" type="curve" smooth="yes"/>
      <point x="53.521" y="842.253"/>
      <point x="36.026" y="824.757"/>
      <point x="36.026" y="803.174" type="curve" smooth="yes"/>
      <point x="36.026" y="781.591"/>
      <point x="53.521" y="764.096"/>
      <point x="75.104" y="764.096" type="curve" smooth="yes"/>
    </contour>
    <contour>
      <point x="285.061" y="764.096"/>
      <point x="302.556" y="781.591"/>
      <point x="302.556" y="803.174" type="curve" smooth="yes"/>
      <point x="302.556" y="824.757"/>
      <point x="285.061" y="842.253"/>
      <point x="263.478" y="842.253" type="curve" smooth="yes"/>
      <point x="241.895" y="842.253"/>
      <point x="224.4" y="824.757"/>
      <point x="224.4" y="803.174" type="curve" smooth="yes"/>
      <point x="224.4" y="781.591"/>
      <point x="241.895" y="764.096"/>
      <point x="263.478" y="764.096" type="curve" smooth="yes"/>
    </contour>
  </outline>
</glyph>
<glyph name="Eth" format="1">
  <advance width="807"/>
  <unicode hex="00D0"/>
  <outline>
    <contour>
      <point x="65.257" y="700.06" type="line"/>
      <point x="65.419" y="690.06" type="line"/>
      <point x="78.069" y="690.08" type="line" smooth="yes"/>
      <point x="111.15" y="690.08"/>
      <point x="141.768" y="665.023"/>
      <point x="141.768" y="632.864" type="curve" smooth="yes"/>
      <point x="141.768" y="365.016" type="line"/>
      <point x="60" y="365.016" type="line"/>
      <point x="60" y="335.016" type="line"/>
      <point x="141.768" y="335.016" type="line"/>
      <point x="141.768" y="72.7267" type="line" smooth="yes"/>
      <point x="141.041" y="37.9553"/>
      <point x="112.673" y="9.97887"/>
      <point x="77.717" y="9.97887" type="curve" smooth="yes"/>
      <point x="65.067" y="9.99987" type="line"/>
      <point x="64.906" y="0" type="line"/>
      <point x="403.442" y="0.0568749" type="line" smooth="yes"/>
      <point x="617.035" y="0.0568749"/>
      <point x="757.584" y="139.952"/>
      <point x="757.584" y="349.709" type="curve" smooth="yes"/>
      <point x="757.584" y="559.884"/>
      <point x="617.035" y="699.975"/>
      <point x="403.442" y="699.975" type="curve" smooth="yes"/>
    </contour>
    <contour>
      <point x="206.889" y="335.016" type="line"/>
      <point x="370" y="335.016" type="line"/>
      <point x="370" y="365.016" type="line"/>
      <point x="206.889" y="365.016" type="line"/>
      <point x="206.889" y="669.933" type="line"/>
      <point x="403.442" y="669.944" type="line" smooth="yes"/>
      <point x="573.846" y="669.944"/>
      <point x="687.584" y="541.85"/>
      <point x="687.584" y="349.709" type="curve" smooth="yes"/>
      <point x="687.584" y="158.148"/>
      <point x="573.846" y="30.4401"/>
      <point x="403.442" y="30.4401" type="curve" smooth="yes"/>
      <point x="206.889" y="30.451" type="line"/>
    </contour>
  </outline>
</glyph>
<glyph name="Ntilde" format="1">
  <advance width="841"/>
  <unicode hex="00D1"/>
  <outline>
    <contour>
      <point x="590.233" y="700.019" type="line"/>
      <point x="590.387" y="690.019" type="line"/>
      <point x="608.841" y="690.038" type="line" smooth="yes"/>
      <point x="642.579" y="690.042"/>
      <point x="669.944" y="663.005"/>
      <point x="670.575" y="629.431" type="curve" smooth="yes"/>
      <point x="670.601" y="133.49" type="line"/>
      <point x="125.997" y="715" type="line"/>
      <point x="116.136" y="714.991" type="line" smooth="yes"/>
      <point x="116.136" y="714.991"/>
      <point x="125.345" y="658.335"/>
      <point x="125.345" y="590.069" type="curve" smooth="yes"/>
      <point x="125.345" y="70.5441" type="line" smooth="yes"/>
      <point x="124.69" y="36.9926"/>
      <point x="97.3319" y="9.9811"/>
      <point x="63.6127" y="9.9811" type="curve" smooth="yes"/>
      <point x="45.1547" y="10" type="line"/>
      <point x="45" y="0" type="line"/>
      <point x="250.987" y="0" type="line"/>
      <point x="250.833" y="10" type="line"/>
      <point x="232.372" y="9.9811" type="line" smooth="yes"/>
      <point x="198.901" y="9.9811"/>
      <point x="171.696" y="36.601"/>
      <point x="170.656" y="69.8129" type="curve"/>
      <point x="170.656" y="567.721" type="line"/>
      <point x="716.022" y="-14" type="line"/>
      <point x="725.104" y="-14" type="line"/>
      <point x="725.104" y="-14"/>
      <point x="715.983" y="49.1505"/>
      <point x="715.983" y="113.582" type="curve" smooth="yes"/>
      <point x="715.983" y="630.256" type="line" smooth="yes"/>
      <point x="717.042" y="663.448"/>
      <point x="744.236" y="690.043"/>
      <point x="777.696" y="690.039" type="curve" smooth="yes"/>
      <point x="796.152" y="690.02" type="line"/>
      <point x="796.306" y="700.019" type="line"/>
    </contour>
    <contour>
      <point x="561.535" y="842.516" type="line"/>
      <point x="555.855" y="793.792"/>
      <point x="531.003" y="763.929"/>
      <point x="496.134" y="763.929" type="curve" smooth="yes"/>
      <point x="453.136" y="763.929"/>
      <point x="407.95" y="807.729"/>
      <point x="375.696" y="807.729" type="curve" smooth="yes"/>
      <point x="349.98" y="807.729"/>
      <point x="332.637" y="794.696"/>
      <point x="321.498" y="767" type="curve"/>
      <point x="311.498" y="767" type="line"/>
      <point x="318.938" y="819.532"/>
      <point x="343.333" y="851.729"/>
      <point x="375.696" y="851.729" type="curve" smooth="yes"/>
      <point x="420.943" y="851.729"/>
      <point x="461.824" y="808.929"/>
      <point x="496.134" y="808.929" type="curve" smooth="yes"/>
      <point x="524.375" y="808.929"/>
      <point x="542.104" y="819.677"/>
      <point x="551.535" y="842.516" type="curve"/>
    </contour>
  </outline>
</glyph>
<glyph name="Oacute" format="1">
  <advance width="838"/>
  <unicode hex="00D3"/>
  <outline>
    <contour>
      <point x="216.773" y="714"/>
      <point x="70" y="568.397"/>
      <point x="70" y="349.992" type="curve" smooth="yes"/>
      <point x="70" y="131.597"/>
      <point x="216.773" y="-14"/>
      <point x="429.432" y="-14" type="curve" smooth="yes"/>
      <point x="642.092" y="-14"/>
      <point x="788.865" y="131.597"/>
      <point x="788.865" y="349.992" type="curve" smooth="yes"/>
      <point x="788.865" y="568.397"/>
      <point x="642.092" y="714"/>
      <point x="429.432" y="714" type="curve" smooth="yes"/>
    </contour>
    <contour>
      <point x="259.773" y="15.925"/>
      <point x="146.667" y="149.552"/>
      <point x="146.667" y="349.992" type="curve" smooth="yes"/>
      <point x="146.667" y="550.442"/>
      <point x="259.773" y="684.075"/>
      <point x="429.432" y="684.075" type="curve" smooth="yes"/>
      <point x="599.092" y="684.075"/>
      <point x="712.198" y="550.442"/>
      <point x="712.198" y="349.992" type="curve" smooth="yes"/>
      <point x="712.198" y="149.552"/>
      <point x="599.092" y="15.925"/>
      <point x="429.432" y="15.925" type="curve" smooth="yes"/>
    </contour>
    <contour>
      <point x="428.932" y="763.971" type="line"/>
      <point x="482.555" y="790.399"/>
      <point x="536.179" y="817.828"/>
      <point x="589.802" y="849.256" type="curve"/>
      <point x="579.168" y="868.792"/>
      <point x="564.533" y="886.329"/>
      <point x="548.899" y="901.865" type="curve"/>
      <point x="506.577" y="861.234"/>
      <point x="464.254" y="816.602"/>
      <point x="421.932" y="770.971" type="curve"/>
    </contour>
  </outline>
</glyph>
<glyph name="Ocircumflex" format="1">
  <advance width="838"/>
  <unicode hex="00D4"/>
  <outline>
    <contour>
      <point x="216.773" y="714"/>
      <point x="70" y="568.397"/>
      <point x="70" y="349.992" type="curve" smooth="yes"/>
      <point x="70" y="131.597"/>
      <point x="216.773" y="-14"/>
      <point x="429.432" y="-14" type="curve" smooth="yes"/>
      <point x="642.092" y="-14"/>
      <point x="788.865" y="131.597"/>
      <point x="788.865" y="349.992" type="curve" smooth="yes"/>
      <point x="788.865" y="568.397"/>
      <point x="642.092" y="714"/>
      <point x="429.432" y="714" type="curve" smooth="yes"/>
    </contour>
    <contour>
      <point x="259.773" y="15.925"/>
      <point x="146.667" y="149.552"/>
      <point x="146.667" y="349.992" type="curve" smooth="yes"/>
      <point x="146.667" y="550.442"/>
      <point x="259.773" y="684.075"/>
      <point x="429.432" y="684.075" type="curve" smooth="yes"/>
      <point x="599.092" y="684.075"/>
      <point x="712.198" y="550.442"/>
      <point x="712.198" y="349.992" type="curve" smooth="yes"/>
      <point x="712.198" y="149.552"/>
      <point x="599.092" y="15.925"/>
      <point x="429.432" y="15.925" type="curve" smooth="yes"/>
    </contour>
    <contour>
      <point x="423.793" y="889.736" type="line"/>
      <point x="433.793" y="889.736" type="line"/>
      <point x="547.968" y="770.884" type="line"/>
      <point x="541.968" y="762.884" type="line"/>
      <point x="428.323" y="828.98" type="line"/>
      <point x="323.663" y="762.98" type="line"/>
      <point x="317.663" y="770.98" type="line"/>
    </contour>
  </outline>
</glyph>
<glyph name="Otilde" format="1">
  <advance width="838"/>
  <unicode hex="00D5"/>
  <outline>
    <contour>
      <point x="216.773" y="714"/>
      <point x="70" y="568.397"/>
      <point x="70" y="349.992" type="curve" smooth="yes"/>
      <point x="70" y="131.597"/>
      <point x="216.773" y="-14"/>
      <point x="429.432" y="-14" type="curve" smooth="yes"/>
      <point x="642.092" y="-14"/>
      <point x="788.865" y="131.597"/>
      <point x="788.865" y="349.992" type="curve" smooth="yes"/>
      <point x="788.865" y="568.397"/>
      <point x="642.092" y="714"/>
      <point x="429.432" y="714" type="curve" smooth="yes"/>
    </contour>
    <contour>
      <point x="259.773" y="15.925"/>
      <point x="146.667" y="149.552"/>
      <point x="146.667" y="349.992" type="curve" smooth="yes"/>
      <point x="146.667" y="550.442"/>
      <point x="259.773" y="684.075"/>
      <point x="429.432" y="684.075" type="curve" smooth="yes"/>
      <point x="599.092" y="684.075"/>
      <point x="712.198" y="550.442"/>
      <point x="712.198" y="349.992" type="curve" smooth="yes"/>
      <point x="712.198" y="149.552"/>
      <point x="599.092" y="15.925"/>
      <point x="429.432" y="15.925" type="curve" smooth="yes"/>
    </contour>
    <contour>
      <point x="564.638" y="842.516" type="line"/>
      <point x="558.958" y="793.792"/>
      <point x="534.106" y="763.929"/>
      <point x="499.237" y="763.929" type="curve" smooth="yes"/>
      <point x="456.239" y="763.929"/>
      <point x="411.053" y="807.729"/>
      <point x="378.799" y="807.729" type="curve" smooth="yes"/>
      <point x="353.083" y="807.729"/>
      <point x="335.74" y="794.696"/>
      <point x="324.601" y="767" type="curve"/>
      <point x="314.601" y="767" type="line"/>
      <point x="322.041" y="819.532"/>
      <point x="346.436" y="851.729"/>
      <point x="378.799" y="851.729" type="curve" smooth="yes"/>
      <point x="424.046" y="851.729"/>
      <point x="464.927" y="808.929"/>
      <point x="499.237" y="808.929" type="curve" smooth="yes"/>
      <point x="527.478" y="808.929"/>
      <point x="545.207" y="819.677"/>
      <point x="554.638" y="842.516" type="curve"/>
    </contour>
  </outline>
</glyph>
<glyph name="Odieresis" format="1">
  <advance width="838"/>
  <unicode hex="00D6"/>
  <outline>
    <contour>
      <point x="216.773" y="714"/>
      <point x="70" y="568.397"/>
      <point x="70" y="349.992" type="curve" smooth="yes"/>
      <point x="70" y="131.597"/>
      <point x="216.773" y="-14"/>
      <point x="429.432" y="-14" type="curve" smooth="yes"/>
      <point x="642.092" y="-14"/>
      <point x="788.865" y="131.597"/>
      <point x="788.865" y="349.992" type="curve" smooth="yes"/>
      <point x="788.865" y="568.397"/>
      <point x="642.092" y="714"/>
      <point x="429.432" y="714" type="curve" smooth="yes"/>
    </contour>
    <contour>
      <point x="259.773" y="15.925"/>
      <point x="146.667" y="149.552"/>
      <point x="146.667" y="349.992" type="curve" smooth="yes"/>
      <point x="146.667" y="550.442"/>
      <point x="259.773" y="684.075"/>
      <point x="429.432" y="684.075" type="curve" smooth="yes"/>
      <point x="599.092" y="684.075"/>
      <point x="712.198" y="550.442"/>
      <point x="712.198" y="349.992" type="curve" smooth="yes"/>
      <point x="712.198" y="149.552"/>
      <point x="599.092" y="15.925"/>
      <point x="429.432" y="15.925" type="curve" smooth="yes"/>
    </contour>
    <contour>
      <point x="356.381" y="764.096"/>
      <point x="373.876" y="781.591"/>
      <point x="373.876" y="803.174" type="curve" smooth="yes"/>
      <point x="373.876" y="824.757"/>
      <point x="356.381" y="842.253"/>
      <point x="334.798" y="842.253" type="curve" smooth="yes"/>
      <point x="313.215" y="842.253"/>
      <point x="295.72" y="824.757"/>
      <point x="295.72" y="803.174" type="curve" smooth="yes"/>
      <point x="295.72" y="781.591"/>
      <point x="313.215" y="764.096"/>
      <point x="334.798" y="764.096" type="curve" smooth="yes"/>
    </contour>
    <contour>
      <point x="544.755" y="764.096"/>
      <point x="562.25" y="781.591"/>
      <point x="562.25" y="803.174" type="curve" smooth="yes"/>
      <point x="562.25" y="824.757"/>
      <point x="544.755" y="842.253"/>
      <point x="523.172" y="842.253" type="curve" smooth="yes"/>
      <point x="501.589" y="842.253"/>
      <point x="484.094" y="824.757"/>
      <point x="484.094" y="803.174" type="curve" smooth="yes"/>
      <point x="484.094" y="781.591"/>
      <point x="501.589" y="764.096"/>
      <point x="523.172" y="764.096" type="curve" smooth="yes"/>
    </contour>
  </outline>
</glyph>
<glyph name="multiply" format="1">
  <advance width="415"/>
  <unicode hex="00D7"/>
  <outline>
    <contour>
      <point x="365.881" y="435.873" type="line"/>
      <point x="334.061" y="467.693" type="line"/>
      <point x="207.941" y="341.572" type="line"/>
      <point x="81.82" y="467.693" type="line"/>
      <point x="50" y="435.873" type="line"/>
      <point x="176.121" y="309.752" type="line"/>
      <point x="50" y="183.632" type="line"/>
      <point x="81.82" y="151.812" type="line"/>
      <point x="207.941" y="277.932" type="line"/>
      <point x="334.061" y="151.812" type="line"/>
      <point x="365.881" y="183.632" type="line"/>
      <point x="239.761" y="309.752" type="line"/>
    </contour>
  </outline>
</glyph>
<glyph name="Oslash" format="1">
  <advance width="828"/>
  <unicode hex="00D8"/>
  <outline>
    <contour>
      <point x="724.701" y="699.577" type="line"/>
      <point x="699.389" y="722.336" type="line"/>
      <point x="635.49" y="645.5" type="line"/>
      <point x="577" y="689.491"/>
      <point x="501.682" y="714"/>
      <point x="414.432" y="714" type="curve" smooth="yes"/>
      <point x="201.773" y="714"/>
      <point x="60" y="568.397"/>
      <point x="60" y="349.992" type="curve" smooth="yes"/>
      <point x="60" y="236.745"/>
      <point x="98.1209" y="143.073"/>
      <point x="164.478" y="79.1252" type="curve"/>
      <point x="97.844" y="-1" type="line"/>
      <point x="122.854" y="-23" type="line"/>
      <point x="189.725" y="57.2849" type="line"/>
      <point x="248.718" y="11.5451"/>
      <point x="325.356" y="-14"/>
      <point x="414.432" y="-14" type="curve" smooth="yes"/>
      <point x="627.092" y="-14"/>
      <point x="768.865" y="131.597"/>
      <point x="768.865" y="349.992" type="curve" smooth="yes"/>
      <point x="768.865" y="464.897"/>
      <point x="729.623" y="559.651"/>
      <point x="661.462" y="623.652" type="curve"/>
    </contour>
    <contour>
      <point x="199.105" y="120.763" type="line"/>
      <point x="156.031" y="178.327"/>
      <point x="131.667" y="256.964"/>
      <point x="131.667" y="349.992" type="curve" smooth="yes"/>
      <point x="131.667" y="550.442"/>
      <point x="244.773" y="684.075"/>
      <point x="414.432" y="684.075" type="curve" smooth="yes"/>
      <point x="491.113" y="684.075"/>
      <point x="556.241" y="656.777"/>
      <point x="604.595" y="608.35" type="curve"/>
    </contour>
    <contour>
      <point x="627.233" y="582.557" type="line"/>
      <point x="671.88" y="524.709"/>
      <point x="697.198" y="444.829"/>
      <point x="697.198" y="349.992" type="curve" smooth="yes"/>
      <point x="697.198" y="149.552"/>
      <point x="584.092" y="15.9248"/>
      <point x="414.432" y="15.9248" type="curve" smooth="yes"/>
      <point x="336.045" y="15.9248"/>
      <point x="269.73" y="44.4506"/>
      <point x="221.065" y="94.9117" type="curve"/>
    </contour>
    <contour>
      <point x="300" y="700" type="move" name="top"/>
    </contour>
  </outline>
</glyph>
<glyph name="germandbls" format="1">
  <advance width="924"/>
  <unicode hex="00DF"/>
  <outline>
    <contour>
      <point x="160.077" y="410.249" type="line" smooth="yes"/>
      <point x="128.716" y="435.443"/>
      <point x="120.951" y="463.293"/>
      <point x="120.766" y="489" type="curve" smooth="yes"/>
      <point x="120.383" y="542.161"/>
      <point x="174.161" y="584.385"/>
      <point x="240.947" y="584.385" type="curve" smooth="yes"/>
      <point x="319.414" y="584.385"/>
      <point x="356.492" y="551.372"/>
      <point x="356.492" y="495.96" type="curve"/>
      <point x="367.946" y="495.96" type="line"/>
      <point x="366.443" y="604.742" type="line"/>
      <point x="333.016" y="604.742" type="line"/>
      <point x="310.66" y="609.922"/>
      <point x="279.902" y="614"/>
      <point x="234.103" y="614" type="curve" smooth="yes"/>
      <point x="141.529" y="614"/>
      <point x="67.5707" y="549.254"/>
      <point x="68.7658" y="468" type="curve" smooth="yes"/>
      <point x="69.2764" y="433.288"/>
      <point x="79.3148" y="391.732"/>
      <point x="116.542" y="359.935" type="curve"/>
      <point x="316.587" y="205.577" type="line"/>
      <point x="342.353" y="183.016"/>
      <point x="353.016" y="157.567"/>
      <point x="353.016" y="126.431" type="curve" smooth="yes"/>
      <point x="353.016" y="61.4405"/>
      <point x="302.431" y="18.3524"/>
      <point x="219.766" y="15.9999" type="curve" smooth="yes"/>
      <point x="131.532" y="13.489"/>
      <point x="70.8711" y="67.1874"/>
      <point x="79.7116" y="157.282" type="curve"/>
      <point x="68.1863" y="157.282" type="line"/>
      <point x="54.5296" y="118.629"/>
      <point x="51.9627" y="59.7155"/>
      <point x="58.2655" y="33.1021" type="curve"/>
      <point x="94.692" y="0.447983"/>
      <point x="171.502" y="-14"/>
      <point x="230.766" y="-14" type="curve" smooth="yes"/>
      <point x="329.451" y="-14"/>
      <point x="408.558" y="57.7747"/>
      <point x="407.766" y="147" type="curve" smooth="yes"/>
      <point x="407.421" y="185.885"/>
      <point x="393.308" y="228.547"/>
      <point x="362.489" y="254.436" type="curve"/>
    </contour>
    <contour>
      <point x="622.077" y="410.249" type="line" smooth="yes"/>
      <point x="590.716" y="435.443"/>
      <point x="582.951" y="463.293"/>
      <point x="582.766" y="489" type="curve" smooth="yes"/>
      <point x="582.383" y="542.161"/>
      <point x="636.161" y="584.385"/>
      <point x="702.947" y="584.385" type="curve" smooth="yes"/>
      <point x="781.414" y="584.385"/>
      <point x="818.492" y="551.372"/>
      <point x="818.492" y="495.96" type="curve"/>
      <point x="829.946" y="495.96" type="line"/>
      <point x="828.443" y="604.742" type="line"/>
      <point x="795.016" y="604.742" type="line"/>
      <point x="772.66" y="609.922"/>
      <point x="741.902" y="614"/>
      <point x="696.103" y="614" type="curve" smooth="yes"/>
      <point x="603.529" y="614"/>
      <point x="529.571" y="549.254"/>
      <point x="530.766" y="468" type="curve" smooth="yes"/>
      <point x="531.276" y="433.288"/>
      <point x="541.315" y="391.732"/>
      <point x="578.542" y="359.935" type="curve"/>
      <point x="778.587" y="205.577" type="line"/>
      <point x="804.353" y="183.016"/>
      <point x="815.016" y="157.567"/>
      <point x="815.016" y="126.431" type="curve" smooth="yes"/>
      <point x="815.016" y="61.4405"/>
      <point x="764.431" y="18.3524"/>
      <point x="681.766" y="15.9999" type="curve" smooth="yes"/>
      <point x="593.532" y="13.489"/>
      <point x="532.871" y="67.1874"/>
      <point x="541.712" y="157.282" type="curve"/>
      <point x="530.186" y="157.282" type="line"/>
      <point x="516.53" y="118.629"/>
      <point x="513.963" y="59.7155"/>
      <point x="520.265" y="33.1021" type="curve"/>
      <point x="556.692" y="0.447983"/>
      <point x="633.502" y="-14"/>
      <point x="692.766" y="-14" type="curve" smooth="yes"/>
      <point x="791.451" y="-14"/>
      <point x="870.558" y="57.7747"/>
      <point x="869.766" y="147" type="curve" smooth="yes"/>
      <point x="869.421" y="185.885"/>
      <point x="855.308" y="228.547"/>
      <point x="824.489" y="254.436" type="curve"/>
    </contour>
  </outline>
</glyph>
<glyph name="aacute" format="1">
  <advance width="663"/>
  <unicode hex="00E1"/>
  <outline>
    <contour>
      <point x="336.339" y="614" type="line"/>
      <point x="326.859" y="614" type="line"/>
      <point x="324.802" y="587.84"/>
      <point x="288.086" y="511"/>
      <point x="288.372" y="511" type="curve"/>
      <point x="81.3347" y="67.7539" type="line" smooth="yes"/>
      <point x="60.8232" y="27.006"/>
      <point x="29.5406" y="9.99961"/>
      <point x="2.9314" y="9.99961" type="curve" smooth="yes"/>
      <point x="-5" y="9.99961" type="line"/>
      <point x="-5" y="0" type="line"/>
      <point x="185.542" y="0" type="line"/>
      <point x="185.542" y="9.90751" type="line"/>
      <point x="177.594" y="9.90751" type="line" smooth="yes"/>
      <point x="154.253" y="9.90751"/>
      <point x="127.967" y="32.6631"/>
      <point x="143.248" y="72.681" type="curve" smooth="yes"/>
      <point x="198.295" y="203" type="line"/>
      <point x="451.268" y="203" type="line"/>
      <point x="505.896" y="69.9339" type="line"/>
      <point x="518.992" y="31.6243"/>
      <point x="493.351" y="9.9104"/>
      <point x="470.552" y="9.9104" type="curve" smooth="yes"/>
      <point x="462.602" y="9.9104" type="line"/>
      <point x="462.602" y="0" type="line"/>
      <point x="668.018" y="0" type="line"/>
      <point x="668.018" y="9.9999" type="line"/>
      <point x="660.458" y="9.9999" type="line" smooth="yes"/>
      <point x="633.752" y="9.9999"/>
      <point x="603.658" y="27.1542"/>
      <point x="583.269" y="68.2866" type="curve"/>
    </contour>
    <contour>
      <point x="210.972" y="233" type="line"/>
      <point x="326.606" y="506.656" type="line"/>
      <point x="438.952" y="233" type="line"/>
    </contour>
    <contour>
      <point x="332.059" y="663.971" type="line"/>
      <point x="385.682" y="690.399"/>
      <point x="439.306" y="717.828"/>
      <point x="492.929" y="749.256" type="curve"/>
      <point x="482.295" y="768.792"/>
      <point x="467.66" y="786.329"/>
      <point x="452.026" y="801.865" type="curve"/>
      <point x="409.704" y="761.234"/>
      <point x="367.381" y="716.602"/>
      <point x="325.059" y="670.971" type="curve"/>
    </contour>
  </outline>
</glyph>
<glyph name="atilde" format="1">
  <advance width="663"/>
  <unicode hex="00E3"/>
  <outline>
    <contour>
      <point x="336.339" y="614" type="line"/>
      <point x="326.859" y="614" type="line"/>
      <point x="324.802" y="587.84"/>
      <point x="288.086" y="511"/>
      <point x="288.372" y="511" type="curve"/>
      <point x="81.3347" y="67.7539" type="line" smooth="yes"/>
      <point x="60.8232" y="27.006"/>
      <point x="29.5406" y="9.99961"/>
      <point x="2.9314" y="9.99961" type="curve" smooth="yes"/>
      <point x="-5" y="9.99961" type="line"/>
      <point x="-5" y="0" type="line"/>
      <point x="185.542" y="0" type="line"/>
      <point x="185.542" y="9.90751" type="line"/>
      <point x="177.594" y="9.90751" type="line" smooth="yes"/>
      <point x="154.253" y="9.90751"/>
      <point x="127.967" y="32.6631"/>
      <point x="143.248" y="72.681" type="curve" smooth="yes"/>
      <point x="198.295" y="203" type="line"/>
      <point x="451.268" y="203" type="line"/>
      <point x="505.896" y="69.9339" type="line"/>
      <point x="518.992" y="31.6243"/>
      <point x="493.351" y="9.9104"/>
      <point x="470.552" y="9.9104" type="curve" smooth="yes"/>
      <point x="462.602" y="9.9104" type="line"/>
      <point x="462.602" y="0" type="line"/>
      <point x="668.018" y="0" type="line"/>
      <point x="668.018" y="9.9999" type="line"/>
      <point x="660.458" y="9.9999" type="line" smooth="yes"/>
      <point x="633.752" y="9.9999"/>
      <point x="603.658" y="27.1542"/>
      <point x="583.269" y="68.2866" type="curve"/>
    </contour>
    <contour>
      <point x="210.972" y="233" type="line"/>
      <point x="326.606" y="506.656" type="line"/>
      <point x="438.952" y="233" type="line"/>
    </contour>
    <contour>
      <point x="467.765" y="742.516" type="line"/>
      <point x="462.085" y="693.792"/>
      <point x="437.233" y="663.929"/>
      <point x="402.364" y="663.929" type="curve" smooth="yes"/>
      <point x="359.366" y="663.929"/>
      <point x="314.18" y="707.729"/>
      <point x="281.926" y="707.729" type="curve" smooth="yes"/>
      <point x="256.21" y="707.729"/>
      <point x="238.867" y="694.696"/>
      <point x="227.728" y="667" type="curve"/>
      <point x="217.728" y="667" type="line"/>
      <point x="225.168" y="719.532"/>
      <point x="249.563" y="751.729"/>
      <point x="281.926" y="751.729" type="curve" smooth="yes"/>
      <point x="327.173" y="751.729"/>
      <point x="368.054" y="708.929"/>
      <point x="402.364" y="708.929" type="curve" smooth="yes"/>
      <point x="430.605" y="708.929"/>
      <point x="448.334" y="719.677"/>
      <point x="457.765" y="742.516" type="curve"/>
    </contour>
  </outline>
</glyph>
<glyph name="aring" format="1">
  <advance width="663"/>
  <unicode hex="00E5"/>
  <outline>
    <contour>
      <point x="336.339" y="614" type="line"/>
      <point x="326.859" y="614" type="line"/>
      <point x="324.802" y="587.84"/>
      <point x="288.086" y="511"/>
      <point x="288.372" y="511" type="curve"/>
      <point x="81.3347" y="67.7539" type="line" smooth="yes"/>
      <point x="60.8232" y="27.006"/>
      <point x="29.5406" y="9.99961"/>
      <point x="2.9314" y="9.99961" type="curve" smooth="yes"/>
      <point x="-5" y="9.99961" type="line"/>
      <point x="-5" y="0" type="line"/>
      <point x="185.542" y="0" type="line"/>
      <point x="185.542" y="9.90751" type="line"/>
      <point x="177.594" y="9.90751" type="line" smooth="yes"/>
      <point x="154.253" y="9.90751"/>
      <point x="127.967" y="32.6631"/>
      <point x="143.248" y="72.681" type="curve" smooth="yes"/>
      <point x="198.295" y="203" type="line"/>
      <point x="451.268" y="203" type="line"/>
      <point x="505.896" y="69.9339" type="line"/>
      <point x="518.992" y="31.6243"/>
      <point x="493.351" y="9.9104"/>
      <point x="470.552" y="9.9104" type="curve" smooth="yes"/>
      <point x="462.602" y="9.9104" type="line"/>
      <point x="462.602" y="0" type="line"/>
      <point x="668.018" y="0" type="line"/>
      <point x="668.018" y="9.9999" type="line"/>
      <point x="660.458" y="9.9999" type="line" smooth="yes"/>
      <point x="633.752" y="9.9999"/>
      <point x="603.658" y="27.1542"/>
      <point x="583.269" y="68.2866" type="curve"/>
    </contour>
    <contour>
      <point x="210.972" y="233" type="line"/>
      <point x="326.606" y="506.656" type="line"/>
      <point x="438.952" y="233" type="line"/>
    </contour>
    <contour>
      <point x="278.945" y="814.284"/>
      <point x="238.515" y="783.173"/>
      <point x="238.515" y="739.32" type="curve" smooth="yes"/>
      <point x="238.515" y="695.467"/>
      <point x="278.945" y="664.357"/>
      <point x="332.318" y="664.357" type="curve" smooth="yes"/>
      <point x="385.692" y="664.357"/>
      <point x="426.122" y="695.467"/>
      <point x="426.122" y="739.32" type="curve" smooth="yes"/>
      <point x="426.122" y="786.481"/>
      <point x="385.692" y="814.284"/>
      <point x="332.318" y="814.284" type="curve" smooth="yes"/>
    </contour>
    <contour>
      <point x="359.968" y="797.128"/>
      <point x="381.324" y="776.529"/>
      <point x="381.324" y="739.32" type="curve" smooth="yes"/>
      <point x="381.324" y="702.112"/>
      <point x="359.968" y="681.513"/>
      <point x="332.319" y="681.513" type="curve" smooth="yes"/>
      <point x="304.669" y="681.513"/>
      <point x="283.313" y="702.112"/>
      <point x="283.313" y="739.32" type="curve" smooth="yes"/>
      <point x="283.313" y="776.529"/>
      <point x="304.669" y="797.128"/>
      <point x="332.319" y="797.128" type="curve" smooth="yes"/>
    </contour>
  </outline>
</glyph>
<glyph name="ae" format="1">
  <advance width="834"/>
  <unicode hex="00E6"/>
  <outline>
    <contour>
      <point x="799.719" y="123.655" type="line"/>
      <point x="789.099" y="123.655" type="line"/>
      <point x="766.615" y="69.9379"/>
      <point x="727.351" y="31.1202"/>
      <point x="659.503" y="30.3702" type="curve" smooth="yes"/>
      <point x="497.739" y="30.3702" type="line"/>
      <point x="497.739" y="271.05" type="line"/>
      <point x="664.33" y="271.05" type="line"/>
      <point x="687.012" y="270.151"/>
      <point x="705.168" y="251.509"/>
      <point x="705.132" y="228.601" type="curve" smooth="yes"/>
      <point x="705.117" y="218.899" type="line"/>
      <point x="715.117" y="218.792" type="line"/>
      <point x="715.117" y="357.22" type="line"/>
      <point x="705.117" y="357.112" type="line"/>
      <point x="705.134" y="344.41" type="line" smooth="yes"/>
      <point x="705.134" y="321.201"/>
      <point x="686.53" y="302.373"/>
      <point x="663.431" y="301.938" type="curve" smooth="yes"/>
      <point x="497.739" y="301.912" type="line"/>
      <point x="497.739" y="568.077" type="line"/>
      <point x="698.114" y="568.077" type="line" smooth="yes"/>
      <point x="721.215" y="567.623"/>
      <point x="740.436" y="548.791"/>
      <point x="740.436" y="525.582" type="curve" smooth="yes"/>
      <point x="740.42" y="512.883" type="line"/>
      <point x="750.42" y="512.776" type="line"/>
      <point x="750.42" y="616.127" type="line"/>
      <point x="734.419" y="609.383"/>
      <point x="684.774" y="600.448"/>
      <point x="647.616" y="600.448" type="curve" smooth="yes"/>
      <point x="408.537" y="600.448" type="line"/>
      <point x="408.537" y="591.828" type="line"/>
      <point x="411.985" y="591.828" type="line" smooth="yes"/>
      <point x="428.152" y="591.828"/>
      <point x="437.517" y="576.928"/>
      <point x="430.713" y="562.029" type="curve"/>
      <point x="81.6285" y="61.4451" type="line"/>
      <point x="80.5217" y="61.506" type="line"/>
      <point x="63.5068" y="34.1998"/>
      <point x="29.6399" y="10"/>
      <point x="1.03452" y="10" type="curve" smooth="yes"/>
      <point x="-5" y="10" type="line"/>
      <point x="-5" y="0" type="line"/>
      <point x="174.468" y="0" type="line"/>
      <point x="174.468" y="10" type="line"/>
      <point x="166.325" y="10" type="line" smooth="yes"/>
      <point x="142.79" y="10"/>
      <point x="131.188" y="29.1682"/>
      <point x="140.037" y="51.1571" type="curve"/>
      <point x="280.088" y="271.05" type="line"/>
      <point x="432.676" y="271.05" type="line"/>
      <point x="432.676" y="50.3074" type="line" smooth="yes"/>
      <point x="432.238" y="27.2076"/>
      <point x="413.407" y="9.9845"/>
      <point x="390.196" y="9.9845" type="curve" smooth="yes"/>
      <point x="381.807" y="10" type="line"/>
      <point x="381.701" y="0" type="line"/>
      <point x="751.709" y="0" type="line"/>
    </contour>
    <contour>
      <point x="299.745" y="301.912" type="line"/>
      <point x="432.676" y="510.627" type="line"/>
      <point x="432.676" y="301.912" type="line"/>
    </contour>
    <contour>
      <point x="624.715" y="500" type="move" name="top"/>
    </contour>
  </outline>
</glyph>
<glyph name="ccedilla" format="1">
  <advance width="705"/>
  <unicode hex="00E7"/>
  <outline>
    <contour>
      <point x="656.874" y="251.85" type="line"/>
      <point x="646.123" y="88.002"/>
      <point x="529.088" y="15.6526"/>
      <point x="380" y="16.9997" type="curve" smooth="yes"/>
      <point x="221.003" y="18.4363"/>
      <point x="121.97" y="127.083"/>
      <point x="121.97" y="300" type="curve" smooth="yes"/>
      <point x="121.97" y="476.126"/>
      <point x="220.836" y="584.073"/>
      <point x="379.197" y="584.073" type="curve" smooth="yes"/>
      <point x="503.2" y="584.073"/>
      <point x="596.529" y="534.785"/>
      <point x="627.17" y="412.263" type="curve"/>
      <point x="635.963" y="412.231" type="line"/>
      <point x="613.858" y="553.467" type="line"/>
      <point x="552.146" y="590.997"/>
      <point x="462.967" y="613.999"/>
      <point x="379.647" y="613.999" type="curve" smooth="yes"/>
      <point x="177.195" y="613.999"/>
      <point x="49.662" y="494.68"/>
      <point x="49.662" y="300" type="curve" smooth="yes"/>
      <point x="49.662" y="106.236"/>
      <point x="177.054" y="-13"/>
      <point x="379.647" y="-14" type="curve" smooth="yes"/>
      <point x="497.851" y="-14"/>
      <point x="603.105" y="34.9957"/>
      <point x="655.063" y="114.937" type="curve"/>
      <point x="665.666" y="251.886" type="line"/>
    </contour>
    <contour>
      <point x="322.272" y="-75" type="line"/>
      <point x="327.272" y="-85" type="line"/>
      <point x="362.902" y="-70"/>
      <point x="409.539" y="-76"/>
      <point x="411.038" y="-118" type="curve" smooth="yes"/>
      <point x="412.773" y="-166"/>
      <point x="362.019" y="-182"/>
      <point x="320.997" y="-182" type="curve"/>
      <point x="320.272" y="-192" type="line"/>
      <point x="387.296" y="-213"/>
      <point x="463.038" y="-182"/>
      <point x="461.038" y="-119" type="curve" smooth="yes"/>
      <point x="458.866" y="-50"/>
      <point x="391.18" y="-49"/>
      <point x="356.194" y="-61" type="curve"/>
      <point x="397.853" y="-12" type="line"/>
      <point x="370.202" y="-12" type="line"/>
    </contour>
  </outline>
</glyph>
<glyph name="edieresis" format="1">
  <advance width="546"/>
  <unicode hex="00EB"/>
  <outline>
    <contour>
      <point x="516.39" y="143.451" type="line"/>
      <point x="505.551" y="143.451" type="line"/>
      <point x="477.151" y="78.725"/>
      <point x="442.94" y="31.8767"/>
      <point x="346.871" y="30.59" type="curve" smooth="yes"/>
      <point x="190.5" y="30.59" type="line"/>
      <point x="190.5" y="285" type="line"/>
      <point x="363.668" y="285" type="line"/>
      <point x="389.788" y="283.442"/>
      <point x="401.869" y="265.084"/>
      <point x="401.869" y="242.625" type="curve" smooth="yes"/>
      <point x="401.851" y="229.923" type="line"/>
      <point x="412.734" y="229.816" type="line"/>
      <point x="412.734" y="370.276" type="line"/>
      <point x="401.851" y="370.168" type="line"/>
      <point x="401.87" y="357.466" type="line" smooth="yes"/>
      <point x="401.87" y="334.351"/>
      <point x="389.07" y="315.582"/>
      <point x="361.337" y="315" type="curve" smooth="yes"/>
      <point x="190.5" y="315" type="line"/>
      <point x="190.5" y="569.41" type="line"/>
      <point x="397.853" y="569.41" type="line" smooth="yes"/>
      <point x="428.291" y="568.812"/>
      <point x="447.988" y="546.054"/>
      <point x="447.988" y="518.017" type="curve" smooth="yes"/>
      <point x="447.967" y="502.651" type="line"/>
      <point x="458.849" y="502.522" type="line"/>
      <point x="458.849" y="615.683" type="line"/>
      <point x="441.444" y="608.911"/>
      <point x="387.362" y="600.28"/>
      <point x="347.134" y="600" type="curve" smooth="yes"/>
      <point x="55" y="600" type="line"/>
      <point x="55.1819" y="590" type="line"/>
      <point x="68.9098" y="590.021" type="line" smooth="yes"/>
      <point x="101.41" y="590.021"/>
      <point x="126.666" y="567.466"/>
      <point x="126.666" y="537.653" type="curve" smooth="yes"/>
      <point x="126.666" y="63.0736" type="line"/>
      <point x="125.455" y="33.5646"/>
      <point x="101.194" y="9.97991"/>
      <point x="68.9316" y="9.97991" type="curve" smooth="yes"/>
      <point x="55.2035" y="10" type="line"/>
      <point x="55.0228" y="0" type="line"/>
      <point x="461.269" y="0.00101032" type="line"/>
    </contour>
    <contour>
      <point x="224.363" y="664.096"/>
      <point x="241.858" y="681.591"/>
      <point x="241.858" y="703.174" type="curve" smooth="yes"/>
      <point x="241.858" y="724.757"/>
      <point x="224.363" y="742.253"/>
      <point x="202.78" y="742.253" type="curve" smooth="yes"/>
      <point x="181.197" y="742.253"/>
      <point x="163.702" y="724.757"/>
      <point x="163.702" y="703.174" type="curve" smooth="yes"/>
      <point x="163.702" y="681.591"/>
      <point x="181.197" y="664.096"/>
      <point x="202.78" y="664.096" type="curve" smooth="yes"/>
    </contour>
    <contour>
      <point x="412.737" y="664.096"/>
      <point x="430.232" y="681.591"/>
      <point x="430.232" y="703.174" type="curve" smooth="yes"/>
      <point x="430.232" y="724.757"/>
      <point x="412.737" y="742.253"/>
      <point x="391.154" y="742.253" type="curve" smooth="yes"/>
      <point x="369.571" y="742.253"/>
      <point x="352.076" y="724.757"/>
      <point x="352.076" y="703.174" type="curve" smooth="yes"/>
      <point x="352.076" y="681.591"/>
      <point x="369.571" y="664.096"/>
      <point x="391.154" y="664.096" type="curve" smooth="yes"/>
    </contour>
  </outline>
</glyph>
<glyph name="igrave" format="1">
  <advance width="306"/>
  <unicode hex="00EC"/>
  <outline>
    <contour>
      <point x="251.448" y="10" type="line"/>
      <point x="240.543" y="9.979" type="line" smooth="yes"/>
      <point x="210.618" y="9.979"/>
      <point x="186.293" y="33.7648"/>
      <point x="185.343" y="63.4494" type="curve"/>
      <point x="185.343" y="537.425" type="line"/>
      <point x="186.738" y="566.701"/>
      <point x="210.878" y="590.021"/>
      <point x="240.508" y="590.021" type="curve" smooth="yes"/>
      <point x="251.413" y="590" type="line"/>
      <point x="251.552" y="600" type="line"/>
      <point x="55" y="600" type="line"/>
      <point x="55.139" y="590" type="line"/>
      <point x="66.044" y="590.021" type="line" smooth="yes"/>
      <point x="96.218" y="590.021"/>
      <point x="120.699" y="565.837"/>
      <point x="121.263" y="535.807" type="curve" smooth="yes"/>
      <point x="121.296" y="64.102" type="line" smooth="yes"/>
      <point x="120.683" y="34.1142"/>
      <point x="96.2225" y="9.97902"/>
      <point x="66.079" y="9.97902" type="curve" smooth="yes"/>
      <point x="55.174" y="10" type="line"/>
      <point x="55.035" y="0" type="line"/>
      <point x="251.587" y="0" type="line"/>
    </contour>
    <contour>
      <point x="160.575" y="671" type="line"/>
      <point x="118.253" y="717.631"/>
      <point x="75.93" y="761.263"/>
      <point x="33.608" y="801.894" type="curve"/>
      <point x="17.974" y="787.358"/>
      <point x="3.339" y="769.821"/>
      <point x="-7" y="749.285" type="curve"/>
      <point x="46.328" y="717.857"/>
      <point x="99.952" y="689.428"/>
      <point x="153.575" y="664" type="curve"/>
    </contour>
  </outline>
</glyph>
<glyph name="icircumflex" format="1">
  <advance width="306"/>
  <unicode hex="00EE"/>
  <outline>
    <contour>
      <point x="251.448" y="10" type="line"/>
      <point x="240.543" y="9.979" type="line" smooth="yes"/>
      <point x="210.618" y="9.979"/>
      <point x="186.293" y="33.7648"/>
      <point x="185.343" y="63.4494" type="curve"/>
      <point x="185.343" y="537.425" type="line"/>
      <point x="186.738" y="566.701"/>
      <point x="210.878" y="590.021"/>
      <point x="240.508" y="590.021" type="curve" smooth="yes"/>
      <point x="251.413" y="590" type="line"/>
      <point x="251.552" y="600" type="line"/>
      <point x="55" y="600" type="line"/>
      <point x="55.139" y="590" type="line"/>
      <point x="66.044" y="590.021" type="line" smooth="yes"/>
      <point x="96.218" y="590.021"/>
      <point x="120.699" y="565.837"/>
      <point x="121.263" y="535.807" type="curve" smooth="yes"/>
      <point x="121.296" y="64.102" type="line" smooth="yes"/>
      <point x="120.683" y="34.1142"/>
      <point x="96.2225" y="9.97902"/>
      <point x="66.079" y="9.97902" type="curve" smooth="yes"/>
      <point x="55.174" y="10" type="line"/>
      <point x="55.035" y="0" type="line"/>
      <point x="251.587" y="0" type="line"/>
    </contour>
    <contour>
      <point x="148.368" y="789.736" type="line"/>
      <point x="158.368" y="789.736" type="line"/>
      <point x="272.543" y="670.884" type="line"/>
      <point x="266.543" y="662.884" type="line"/>
      <point x="152.898" y="728.98" type="line"/>
      <point x="48.238" y="662.98" type="line"/>
      <point x="42.238" y="670.98" type="line"/>
    </contour>
  </outline>
</glyph>
<glyph name="idieresis" format="1">
  <advance width="306"/>
  <unicode hex="00EF"/>
  <outline>
    <contour>
      <point x="251.448" y="10" type="line"/>
      <point x="240.543" y="9.979" type="line" smooth="yes"/>
      <point x="210.618" y="9.979"/>
      <point x="186.293" y="33.7648"/>
      <point x="185.343" y="63.4494" type="curve"/>
      <point x="185.343" y="537.425" type="line"/>
      <point x="186.738" y="566.701"/>
      <point x="210.878" y="590.021"/>
      <point x="240.508" y="590.021" type="curve" smooth="yes"/>
      <point x="251.413" y="590" type="line"/>
      <point x="251.552" y="600" type="line"/>
      <point x="55" y="600" type="line"/>
      <point x="55.139" y="590" type="line"/>
      <point x="66.044" y="590.021" type="line" smooth="yes"/>
      <point x="96.218" y="590.021"/>
      <point x="120.699" y="565.837"/>
      <point x="121.263" y="535.807" type="curve" smooth="yes"/>
      <point x="121.296" y="64.102" type="line" smooth="yes"/>
      <point x="120.683" y="34.1142"/>
      <point x="96.2225" y="9.97902"/>
      <point x="66.079" y="9.97902" type="curve" smooth="yes"/>
      <point x="55.174" y="10" type="line"/>
      <point x="55.035" y="0" type="line"/>
      <point x="251.587" y="0" type="line"/>
    </contour>
    <contour>
      <point x="80.956" y="664.096"/>
      <point x="98.451" y="681.591"/>
      <point x="98.451" y="703.174" type="curve" smooth="yes"/>
      <point x="98.451" y="724.757"/>
      <point x="80.956" y="742.253"/>
      <point x="59.373" y="742.253" type="curve" smooth="yes"/>
      <point x="37.79" y="742.253"/>
      <point x="20.295" y="724.757"/>
      <point x="20.295" y="703.174" type="curve" smooth="yes"/>
      <point x="20.295" y="681.591"/>
      <point x="37.79" y="664.096"/>
      <point x="59.373" y="664.096" type="curve" smooth="yes"/>
    </contour>
    <contour>
      <point x="269.33" y="664.096"/>
      <point x="286.825" y="681.591"/>
      <point x="286.825" y="703.174" type="curve" smooth="yes"/>
      <point x="286.825" y="724.757"/>
      <point x="269.33" y="742.253"/>
      <point x="247.747" y="742.253" type="curve" smooth="yes"/>
      <point x="226.164" y="742.253"/>
      <point x="208.669" y="724.757"/>
      <point x="208.669" y="703.174" type="curve" smooth="yes"/>
      <point x="208.669" y="681.591"/>
      <point x="226.164" y="664.096"/>
      <point x="247.747" y="664.096" type="curve" smooth="yes"/>
    </contour>
  </outline>
</glyph>
<glyph name="eth" format="1">
  <advance width="760"/>
  <unicode hex="00F0"/>
  <outline>
    <contour>
      <point x="55.035" y="600.06" type="line"/>
      <point x="55.209" y="590.06" type="line"/>
      <point x="67.449" y="590.08" type="line" smooth="yes"/>
      <point x="98.8379" y="590.08"/>
      <point x="123.563" y="567.702"/>
      <point x="124.589" y="536.144" type="curve" smooth="yes"/>
      <point x="124.589" y="315.016" type="line"/>
      <point x="61.8511" y="315.016" type="line"/>
      <point x="61.8511" y="285.016" type="line"/>
      <point x="124.589" y="285.016" type="line"/>
      <point x="124.589" y="64.2639" type="line" smooth="yes"/>
      <point x="123.704" y="34.4817"/>
      <point x="100.008" y="9.97897"/>
      <point x="68.4881" y="9.97897" type="curve" smooth="yes"/>
      <point x="55.1731" y="9.99997" type="line"/>
      <point x="55" y="0" type="line"/>
      <point x="388.558" y="0.0569738" type="line" smooth="yes"/>
      <point x="585.788" y="0.0569738"/>
      <point x="710.066" y="113.925"/>
      <point x="710.066" y="299.709" type="curve" smooth="yes"/>
      <point x="710.066" y="485.874"/>
      <point x="585.788" y="599.975"/>
      <point x="388.558" y="599.975" type="curve" smooth="yes"/>
    </contour>
    <contour>
      <point x="189.693" y="285.016" type="line"/>
      <point x="346.851" y="285.016" type="line"/>
      <point x="346.851" y="315.016" type="line"/>
      <point x="189.693" y="315.016" type="line"/>
      <point x="189.693" y="569.931" type="line"/>
      <point x="389.063" y="569.944" type="line" smooth="yes"/>
      <point x="542.587" y="569.944"/>
      <point x="637.775" y="467.255"/>
      <point x="637.775" y="299.709" type="curve" smooth="yes"/>
      <point x="637.775" y="132.762"/>
      <point x="542.613" y="30.4398"/>
      <point x="389.063" y="30.4398" type="curve" smooth="yes"/>
      <point x="189.693" y="30.4518" type="line"/>
    </contour>
  </outline>
</glyph>
<glyph name="ntilde" format="1">
  <advance width="779"/>
  <unicode hex="00F1"/>
  <outline>
    <contour>
      <point x="555.196" y="600.019" type="line"/>
      <point x="555.338" y="590.019" type="line"/>
      <point x="571.968" y="590.038" type="line" smooth="yes"/>
      <point x="601.577" y="590.038"/>
      <point x="625.765" y="567.95"/>
      <point x="627.569" y="540.08" type="curve"/>
      <point x="627.569" y="125.395" type="line"/>
      <point x="108.635" y="614.488" type="line"/>
      <point x="97.8947" y="614.991" type="line" smooth="yes"/>
      <point x="97.8947" y="614.991"/>
      <point x="107.476" y="558.335"/>
      <point x="107.476" y="490.069" type="curve" smooth="yes"/>
      <point x="107.476" y="62.232" type="line" smooth="yes"/>
      <point x="106.885" y="33.29"/>
      <point x="82.2153" y="9.98025"/>
      <point x="51.7949" y="9.98025" type="curve" smooth="yes"/>
      <point x="35.1427" y="9.99965" type="line"/>
      <point x="35" y="0" type="line"/>
      <point x="224.034" y="0" type="line"/>
      <point x="223.917" y="9.99965" type="line"/>
      <point x="207.263" y="9.98025" type="line" smooth="yes"/>
      <point x="176.843" y="9.98025"/>
      <point x="152.149" y="33.29"/>
      <point x="151.588" y="62.232" type="curve" smooth="yes"/>
      <point x="151.56" y="479.488" type="line"/>
      <point x="671.681" y="-14" type="line"/>
      <point x="681.198" y="-14" type="line"/>
      <point x="681.198" y="-14"/>
      <point x="671.712" y="49.1505"/>
      <point x="671.712" y="113.582" type="curve" smooth="yes"/>
      <point x="671.712" y="539.997" type="line"/>
      <point x="673.445" y="567.907"/>
      <point x="697.653" y="590.038"/>
      <point x="727.294" y="590.038" type="curve" smooth="yes"/>
      <point x="743.923" y="590.019" type="line"/>
      <point x="744.065" y="600.019" type="line"/>
    </contour>
    <contour>
      <point x="523.651" y="742.516" type="line"/>
      <point x="517.971" y="693.792"/>
      <point x="493.119" y="663.929"/>
      <point x="458.25" y="663.929" type="curve" smooth="yes"/>
      <point x="415.252" y="663.929"/>
      <point x="370.066" y="707.729"/>
      <point x="337.812" y="707.729" type="curve" smooth="yes"/>
      <point x="312.096" y="707.729"/>
      <point x="294.753" y="694.696"/>
      <point x="283.614" y="667" type="curve"/>
      <point x="273.614" y="667" type="line"/>
      <point x="281.054" y="719.532"/>
      <point x="305.449" y="751.729"/>
      <point x="337.812" y="751.729" type="curve" smooth="yes"/>
      <point x="383.059" y="751.729"/>
      <point x="423.94" y="708.929"/>
      <point x="458.25" y="708.929" type="curve" smooth="yes"/>
      <point x="486.491" y="708.929"/>
      <point x="504.22" y="719.677"/>
      <point x="513.651" y="742.516" type="curve"/>
    </contour>
  </outline>
</glyph>
<glyph name="ograve" format="1">
  <advance width="774"/>
  <unicode hex="00F2"/>
  <outline>
    <contour>
      <point x="200.878" y="614"/>
      <point x="50" y="485.836"/>
      <point x="50" y="299.992" type="curve" smooth="yes"/>
      <point x="50" y="114.156"/>
      <point x="200.878" y="-14"/>
      <point x="387.445" y="-14" type="curve" smooth="yes"/>
      <point x="573.986" y="-14"/>
      <point x="724.865" y="114.156"/>
      <point x="724.865" y="299.992" type="curve" smooth="yes"/>
      <point x="724.865" y="485.836"/>
      <point x="573.986" y="614"/>
      <point x="387.445" y="614" type="curve" smooth="yes"/>
    </contour>
    <contour>
      <point x="240.336" y="15.925"/>
      <point x="124.081" y="130.914"/>
      <point x="124.081" y="299.992" type="curve" smooth="yes"/>
      <point x="124.081" y="469.078"/>
      <point x="240.336" y="584.075"/>
      <point x="387.445" y="584.075" type="curve" smooth="yes"/>
      <point x="534.529" y="584.075"/>
      <point x="650.811" y="469.078"/>
      <point x="650.811" y="299.992" type="curve" smooth="yes"/>
      <point x="650.811" y="130.914"/>
      <point x="534.529" y="15.925"/>
      <point x="387.445" y="15.925" type="curve" smooth="yes"/>
    </contour>
    <contour>
      <point x="394.432" y="671" type="line"/>
      <point x="352.11" y="717.631"/>
      <point x="309.787" y="761.263"/>
      <point x="267.465" y="801.894" type="curve"/>
      <point x="251.831" y="787.358"/>
      <point x="237.196" y="769.821"/>
      <point x="226.562" y="749.285" type="curve"/>
      <point x="280.185" y="717.857"/>
      <point x="333.809" y="689.428"/>
      <point x="387.432" y="664" type="curve"/>
    </contour>
  </outline>
</glyph>
<glyph name="oacute" format="1">
  <advance width="774"/>
  <unicode hex="00F3"/>
  <outline>
    <contour>
      <point x="200.878" y="614"/>
      <point x="50" y="485.836"/>
      <point x="50" y="299.992" type="curve" smooth="yes"/>
      <point x="50" y="114.156"/>
      <point x="200.878" y="-14"/>
      <point x="387.445" y="-14" type="curve" smooth="yes"/>
      <point x="573.986" y="-14"/>
      <point x="724.865" y="114.156"/>
      <point x="724.865" y="299.992" type="curve" smooth="yes"/>
      <point x="724.865" y="485.836"/>
      <point x="573.986" y="614"/>
      <point x="387.445" y="614" type="curve" smooth="yes"/>
    </contour>
    <contour>
      <point x="240.336" y="15.925"/>
      <point x="124.081" y="130.914"/>
      <point x="124.081" y="299.992" type="curve" smooth="yes"/>
      <point x="124.081" y="469.078"/>
      <point x="240.336" y="584.075"/>
      <point x="387.445" y="584.075" type="curve" smooth="yes"/>
      <point x="534.529" y="584.075"/>
      <point x="650.811" y="469.078"/>
      <point x="650.811" y="299.992" type="curve" smooth="yes"/>
      <point x="650.811" y="130.914"/>
      <point x="534.529" y="15.925"/>
      <point x="387.445" y="15.925" type="curve" smooth="yes"/>
    </contour>
    <contour>
      <point x="387.364" y="663.971" type="line"/>
      <point x="440.987" y="690.399"/>
      <point x="494.611" y="717.828"/>
      <point x="548.234" y="749.256" type="curve"/>
      <point x="537.6" y="768.792"/>
      <point x="522.965" y="786.329"/>
      <point x="507.331" y="801.865" type="curve"/>
      <point x="465.009" y="761.234"/>
      <point x="422.686" y="716.602"/>
      <point x="380.364" y="670.971" type="curve"/>
    </contour>
  </outline>
</glyph>
<glyph name="otilde" format="1">
  <advance width="774"/>
  <unicode hex="00F5"/>
  <outline>
    <contour>
      <point x="200.878" y="614"/>
      <point x="50" y="485.836"/>
      <point x="50" y="299.992" type="curve" smooth="yes"/>
      <point x="50" y="114.156"/>
      <point x="200.878" y="-14"/>
      <point x="387.445" y="-14" type="curve" smooth="yes"/>
      <point x="573.986" y="-14"/>
      <point x="724.865" y="114.156"/>
      <point x="724.865" y="299.992" type="curve" smooth="yes"/>
      <point x="724.865" y="485.836"/>
      <point x="573.986" y="614"/>
      <point x="387.445" y="614" type="curve" smooth="yes"/>
    </contour>
    <contour>
      <point x="240.336" y="15.925"/>
      <point x="124.081" y="130.914"/>
      <point x="124.081" y="299.992" type="curve" smooth="yes"/>
      <point x="124.081" y="469.078"/>
      <point x="240.336" y="584.075"/>
      <point x="387.445" y="584.075" type="curve" smooth="yes"/>
      <point x="534.529" y="584.075"/>
      <point x="650.811" y="469.078"/>
      <point x="650.811" y="299.992" type="curve" smooth="yes"/>
      <point x="650.811" y="130.914"/>
      <point x="534.529" y="15.925"/>
      <point x="387.445" y="15.925" type="curve" smooth="yes"/>
    </contour>
    <contour>
      <point x="523.07" y="742.516" type="line"/>
      <point x="517.39" y="693.792"/>
      <point x="492.538" y="663.929"/>
      <point x="457.669" y="663.929" type="curve" smooth="yes"/>
      <point x="414.671" y="663.929"/>
      <point x="369.485" y="707.729"/>
      <point x="337.231" y="707.729" type="curve" smooth="yes"/>
      <point x="311.515" y="707.729"/>
      <point x="294.172" y="694.696"/>
      <point x="283.033" y="667" type="curve"/>
      <point x="273.033" y="667" type="line"/>
      <point x="280.473" y="719.532"/>
      <point x="304.868" y="751.729"/>
      <point x="337.231" y="751.729" type="curve" smooth="yes"/>
      <point x="382.478" y="751.729"/>
      <point x="423.359" y="708.929"/>
      <point x="457.669" y="708.929" type="curve" smooth="yes"/>
      <point x="485.91" y="708.929"/>
      <point x="503.639" y="719.677"/>
      <point x="513.07" y="742.516" type="curve"/>
    </contour>
  </outline>
</glyph>
<glyph name="odieresis" format="1">
  <advance width="774"/>
  <unicode hex="00F6"/>
  <outline>
    <contour>
      <point x="200.878" y="614"/>
      <point x="50" y="485.836"/>
      <point x="50" y="299.992" type="curve" smooth="yes"/>
      <point x="50" y="114.156"/>
      <point x="200.878" y="-14"/>
      <point x="387.445" y="-14" type="curve" smooth="yes"/>
      <point x="573.986" y="-14"/>
      <point x="724.865" y="114.156"/>
      <point x="724.865" y="299.992" type="curve" smooth="yes"/>
      <point x="724.865" y="485.836"/>
      <point x="573.986" y="614"/>
      <point x="387.445" y="614" type="curve" smooth="yes"/>
    </contour>
    <contour>
      <point x="240.336" y="15.925"/>
      <point x="124.081" y="130.914"/>
      <point x="124.081" y="299.992" type="curve" smooth="yes"/>
      <point x="124.081" y="469.078"/>
      <point x="240.336" y="584.075"/>
      <point x="387.445" y="584.075" type="curve" smooth="yes"/>
      <point x="534.529" y="584.075"/>
      <point x="650.811" y="469.078"/>
      <point x="650.811" y="299.992" type="curve" smooth="yes"/>
      <point x="650.811" y="130.914"/>
      <point x="534.529" y="15.925"/>
      <point x="387.445" y="15.925" type="curve" smooth="yes"/>
    </contour>
    <contour>
      <point x="314.813" y="664.096"/>
      <point x="332.308" y="681.591"/>
      <point x="332.308" y="703.174" type="curve" smooth="yes"/>
      <point x="332.308" y="724.757"/>
      <point x="314.813" y="742.253"/>
      <point x="293.23" y="742.253" type="curve" smooth="yes"/>
      <point x="271.647" y="742.253"/>
      <point x="254.152" y="724.757"/>
      <point x="254.152" y="703.174" type="curve" smooth="yes"/>
      <point x="254.152" y="681.591"/>
      <point x="271.647" y="664.096"/>
      <point x="293.23" y="664.096" type="curve" smooth="yes"/>
    </contour>
    <contour>
      <point x="503.187" y="664.096"/>
      <point x="520.682" y="681.591"/>
      <point x="520.682" y="703.174" type="curve" smooth="yes"/>
      <point x="520.682" y="724.757"/>
      <point x="503.187" y="742.253"/>
      <point x="481.604" y="742.253" type="curve" smooth="yes"/>
      <point x="460.021" y="742.253"/>
      <point x="442.526" y="724.757"/>
      <point x="442.526" y="703.174" type="curve" smooth="yes"/>
      <point x="442.526" y="681.591"/>
      <point x="460.021" y="664.096"/>
      <point x="481.604" y="664.096" type="curve" smooth="yes"/>
    </contour>
  </outline>
</glyph>
<glyph name="oslash" format="1">
  <advance width="774"/>
  <unicode hex="00F8"/>
  <outline>
    <contour>
      <point x="638.653" y="608.273" type="line"/>
      <point x="613.341" y="631.032" type="line"/>
      <point x="563.385" y="570.949" type="line"/>
      <point x="512.177" y="598.678"/>
      <point x="451.943" y="614"/>
      <point x="387.445" y="614" type="curve" smooth="yes"/>
      <point x="200.878" y="614"/>
      <point x="50" y="485.836"/>
      <point x="50" y="299.992" type="curve" smooth="yes"/>
      <point x="50" y="206.823"/>
      <point x="87.9236" y="128.153"/>
      <point x="149.255" y="72.8607" type="curve"/>
      <point x="87.844" y="-1" type="line"/>
      <point x="112.854" y="-23" type="line"/>
      <point x="175.208" y="51.8618" type="line"/>
      <point x="233.154" y="9.83861"/>
      <point x="306.98" y="-14"/>
      <point x="387.445" y="-14" type="curve" smooth="yes"/>
      <point x="573.986" y="-14"/>
      <point x="724.865" y="114.156"/>
      <point x="724.865" y="299.992" type="curve" smooth="yes"/>
      <point x="724.865" y="408.873"/>
      <point x="673.077" y="497.955"/>
      <point x="592.669" y="553.065" type="curve"/>
    </contour>
    <contour>
      <point x="183.671" y="114.254" type="line"/>
      <point x="146.327" y="162.418"/>
      <point x="124.081" y="226.03"/>
      <point x="124.081" y="299.992" type="curve" smooth="yes"/>
      <point x="124.081" y="469.078"/>
      <point x="240.336" y="584.075"/>
      <point x="387.445" y="584.075" type="curve" smooth="yes"/>
      <point x="442.941" y="584.075"/>
      <point x="494.051" y="567.704"/>
      <point x="536.185" y="538.234" type="curve"/>
    </contour>
    <contour>
      <point x="562.596" y="516.959" type="line"/>
      <point x="616.923" y="466.788"/>
      <point x="650.811" y="391.271"/>
      <point x="650.811" y="299.992" type="curve" smooth="yes"/>
      <point x="650.811" y="130.914"/>
      <point x="534.529" y="15.9249"/>
      <point x="387.445" y="15.9249" type="curve" smooth="yes"/>
      <point x="316.692" y="15.9249"/>
      <point x="253.076" y="42.5246"/>
      <point x="206.098" y="88.9481" type="curve"/>
    </contour>
    <contour>
      <point x="290" y="500" type="move" name="top"/>
    </contour>
  </outline>
</glyph>
<glyph name="ugrave" format="1">
  <advance width="700"/>
  <unicode hex="00F9"/>
  <outline>
    <contour>
      <point x="493.092" y="600" type="line"/>
      <point x="493.092" y="590" type="line"/>
      <point x="507.93" y="590.018" type="line" smooth="yes"/>
      <point x="533.97" y="590.018"/>
      <point x="555.153" y="571.828"/>
      <point x="555.996" y="547.373" type="curve" smooth="yes"/>
      <point x="555.996" y="211.344" type="line" smooth="yes"/>
      <point x="555.699" y="88.4654"/>
      <point x="478.239" y="13.1521"/>
      <point x="352.105" y="13.1521" type="curve" smooth="yes"/>
      <point x="237.256" y="13.1521"/>
      <point x="166.777" y="92.6889"/>
      <point x="166.777" y="222.46" type="curve" smooth="yes"/>
      <point x="166.777" y="546.707" type="line" smooth="yes"/>
      <point x="167.388" y="571.497"/>
      <point x="188.719" y="590.018"/>
      <point x="214.993" y="590.018" type="curve" smooth="yes"/>
      <point x="229.801" y="590" type="line"/>
      <point x="229.801" y="600" type="line"/>
      <point x="40" y="600" type="line"/>
      <point x="40" y="590" type="line"/>
      <point x="54.8368" y="590.018" type="line" smooth="yes"/>
      <point x="81.113" y="590.018"/>
      <point x="102.414" y="571.497"/>
      <point x="102.92" y="546.707" type="curve" smooth="yes"/>
      <point x="102.936" y="209.79" type="line" smooth="yes"/>
      <point x="102.829" y="71.0401"/>
      <point x="198.524" y="-14"/>
      <point x="352.954" y="-14" type="curve" smooth="yes"/>
      <point x="507.315" y="-14"/>
      <point x="602.233" y="71.6114"/>
      <point x="602.245" y="211.293" type="curve" smooth="yes"/>
      <point x="602.245" y="547.886" type="line"/>
      <point x="603.423" y="572.082"/>
      <point x="624.464" y="590.018"/>
      <point x="650.32" y="590.018" type="curve" smooth="yes"/>
      <point x="665.159" y="590" type="line"/>
      <point x="665.159" y="600" type="line"/>
    </contour>
    <contour>
      <point x="357.565" y="671" type="line"/>
      <point x="315.243" y="717.631"/>
      <point x="272.92" y="761.263"/>
      <point x="230.598" y="801.894" type="curve"/>
      <point x="214.964" y="787.358"/>
      <point x="200.329" y="769.821"/>
      <point x="189.695" y="749.285" type="curve"/>
      <point x="243.318" y="717.857"/>
      <point x="296.942" y="689.428"/>
      <point x="350.565" y="664" type="curve"/>
    </contour>
  </outline>
</glyph>
<glyph name="uacute" format="1">
  <advance width="700"/>
  <unicode hex="00FA"/>
  <outline>
    <contour>
      <point x="493.092" y="600" type="line"/>
      <point x="493.092" y="590" type="line"/>
      <point x="507.93" y="590.018" type="line" smooth="yes"/>
      <point x="533.97" y="590.018"/>
      <point x="555.153" y="571.828"/>
      <point x="555.996" y="547.373" type="curve" smooth="yes"/>
      <point x="555.996" y="211.344" type="line" smooth="yes"/>
      <point x="555.699" y="88.4654"/>
      <point x="478.239" y="13.1521"/>
      <point x="352.105" y="13.1521" type="curve" smooth="yes"/>
      <point x="237.256" y="13.1521"/>
      <point x="166.777" y="92.6889"/>
      <point x="166.777" y="222.46" type="curve" smooth="yes"/>
      <point x="166.777" y="546.707" type="line" smooth="yes"/>
      <point x="167.388" y="571.497"/>
      <point x="188.719" y="590.018"/>
      <point x="214.993" y="590.018" type="curve" smooth="yes"/>
      <point x="229.801" y="590" type="line"/>
      <point x="229.801" y="600" type="line"/>
      <point x="40" y="600" type="line"/>
      <point x="40" y="590" type="line"/>
      <point x="54.8368" y="590.018" type="line" smooth="yes"/>
      <point x="81.113" y="590.018"/>
      <point x="102.414" y="571.497"/>
      <point x="102.92" y="546.707" type="curve" smooth="yes"/>
      <point x="102.936" y="209.79" type="line" smooth="yes"/>
      <point x="102.829" y="71.0401"/>
      <point x="198.524" y="-14"/>
      <point x="352.954" y="-14" type="curve" smooth="yes"/>
      <point x="507.315" y="-14"/>
      <point x="602.233" y="71.6114"/>
      <point x="602.245" y="211.293" type="curve" smooth="yes"/>
      <point x="602.245" y="547.886" type="line"/>
      <point x="603.423" y="572.082"/>
      <point x="624.464" y="590.018"/>
      <point x="650.32" y="590.018" type="curve" smooth="yes"/>
      <point x="665.159" y="590" type="line"/>
      <point x="665.159" y="600" type="line"/>
    </contour>
    <contour>
      <point x="350.497" y="663.971" type="line"/>
      <point x="404.12" y="690.399"/>
      <point x="457.744" y="717.828"/>
      <point x="511.367" y="749.256" type="curve"/>
      <point x="500.733" y="768.792"/>
      <point x="486.098" y="786.329"/>
      <point x="470.464" y="801.865" type="curve"/>
      <point x="428.142" y="761.234"/>
      <point x="385.819" y="716.602"/>
      <point x="343.497" y="670.971" type="curve"/>
    </contour>
  </outline>
</glyph>
<glyph name="yacute" format="1">
  <advance width="640"/>
  <unicode hex="00FD"/>
  <outline>
    <contour>
      <point x="436.252" y="600" type="line"/>
      <point x="436.252" y="590" type="line"/>
      <point x="447.699" y="590" type="line" smooth="yes"/>
      <point x="474.979" y="590"/>
      <point x="492.173" y="566.053"/>
      <point x="481.837" y="541.22" type="curve"/>
      <point x="326.641" y="283.212" type="line"/>
      <point x="181.298" y="542.289" type="line"/>
      <point x="172.976" y="565.383"/>
      <point x="188.528" y="590"/>
      <point x="215.454" y="590" type="curve" smooth="yes"/>
      <point x="226.9" y="590" type="line"/>
      <point x="226.9" y="600" type="line"/>
      <point x="-5" y="600" type="line"/>
      <point x="-5" y="590" type="line"/>
      <point x="7.35171" y="590" type="line" smooth="yes"/>
      <point x="45.488" y="590"/>
      <point x="78.4322" y="570.333"/>
      <point x="98.8676" y="539.719" type="curve" smooth="yes"/>
      <point x="284.048" y="249.387" type="line"/>
      <point x="284.048" y="64.193" type="line" smooth="yes"/>
      <point x="283.42" y="34.163"/>
      <point x="257.662" y="9.97901"/>
      <point x="225.869" y="9.97901" type="curve" smooth="yes"/>
      <point x="214.404" y="10" type="line"/>
      <point x="214.254" y="0" type="line"/>
      <point x="418.798" y="0" type="line"/>
      <point x="418.675" y="10" type="line"/>
      <point x="407.182" y="9.97901" type="line" smooth="yes"/>
      <point x="375.417" y="9.97901"/>
      <point x="349.63" y="34.163"/>
      <point x="349.049" y="64.193" type="curve"/>
      <point x="349.049" y="247.988" type="line"/>
      <point x="540.809" y="539.155" type="line"/>
      <point x="560.532" y="565.801"/>
      <point x="594.518" y="590"/>
      <point x="632.626" y="590" type="curve" smooth="yes"/>
      <point x="645.32" y="590" type="line"/>
      <point x="645.32" y="600" type="line"/>
    </contour>
    <contour>
      <point x="333.41" y="663.971" type="line"/>
      <point x="387.033" y="690.399"/>
      <point x="440.657" y="717.828"/>
      <point x="494.28" y="749.256" type="curve"/>
      <point x="483.646" y="768.792"/>
      <point x="469.011" y="786.329"/>
      <point x="453.377" y="801.865" type="curve"/>
      <point x="411.055" y="761.234"/>
      <point x="368.732" y="716.602"/>
      <point x="326.41" y="670.971" type="curve"/>
    </contour>
  </outline>
</glyph>
<glyph name="thorn" format="1">
  <advance width="527"/>
  <unicode hex="00FE"/>
  <outline>
    <contour>
      <point x="183.64" y="475.406" type="line"/>
      <point x="183.64" y="538.819" type="line"/>
      <point x="184.982" y="568.039"/>
      <point x="207.414" y="590.02"/>
      <point x="237.038" y="590.02" type="curve" smooth="yes"/>
      <point x="249.688" y="590" type="line"/>
      <point x="249.85" y="600" type="line"/>
      <point x="53.3825" y="600" type="line"/>
      <point x="53.5445" y="590" type="line"/>
      <point x="66.1945" y="590.02" type="line" smooth="yes"/>
      <point x="96.2749" y="590.02"/>
      <point x="118.941" y="567.356"/>
      <point x="119.64" y="537.462" type="curve" smooth="yes"/>
      <point x="119.64" y="63.229" type="line" smooth="yes"/>
      <point x="118.613" y="33.6471"/>
      <point x="96.0639" y="9.9789"/>
      <point x="66.2135" y="9.9789" type="curve" smooth="yes"/>
      <point x="53.5635" y="9.9999" type="line"/>
      <point x="53.4025" y="0" type="line"/>
      <point x="249.89" y="0" type="line"/>
      <point x="249.729" y="9.9999" type="line"/>
      <point x="237.079" y="9.9789" type="line" smooth="yes"/>
      <point x="207.088" y="9.9789"/>
      <point x="184.469" y="33.8699"/>
      <point x="183.64" y="63.646" type="curve"/>
      <point x="183.64" y="445.406" type="line"/>
      <point x="280.044" y="445.406" type="line" smooth="yes"/>
      <point x="369.214" y="445.406"/>
      <point x="423.867" y="395.597"/>
      <point x="423.867" y="314.328" type="curve" smooth="yes"/>
      <point x="423.867" y="297.152"/>
      <point x="421.913" y="274.092"/>
      <point x="417.476" y="260.011" type="curve" smooth="yes"/>
      <point x="372.349" y="116.785"/>
      <point x="228.836" y="159.272"/>
      <point x="228.836" y="159.272" type="curve"/>
      <point x="228.956" y="149.822" type="line"/>
      <point x="354.423" y="83.6891"/>
      <point x="491.867" y="151.853"/>
      <point x="491.867" y="304.274" type="curve" smooth="yes"/>
      <point x="491.867" y="410.376"/>
      <point x="413.991" y="475.406"/>
      <point x="283.666" y="475.406" type="curve" smooth="yes"/>
    </contour>
  </outline>
</glyph>
<glyph name="Amacron" format="1">
  <advance width="712"/>
  <unicode hex="0100"/>
  <outline>
    <contour>
      <point x="359.414" y="714" type="line"/>
      <point x="350.408" y="714" type="line"/>
      <point x="350.408" y="692.013"/>
      <point x="313.382" y="611"/>
      <point x="313.382" y="611" type="curve"/>
      <point x="86.6021" y="72.8854" type="line" smooth="yes"/>
      <point x="66.3779" y="28.4289"/>
      <point x="29.4092" y="9.99957"/>
      <point x="-1" y="9.99957" type="curve" smooth="yes"/>
      <point x="-10" y="9.99957" type="line"/>
      <point x="-10" y="0" type="line"/>
      <point x="191.278" y="0" type="line"/>
      <point x="191.278" y="9.90747" type="line"/>
      <point x="182.486" y="9.90747" type="line" smooth="yes"/>
      <point x="156.799" y="9.90747"/>
      <point x="130.154" y="32.4345"/>
      <point x="144.269" y="72.0774" type="curve" smooth="yes"/>
      <point x="211.258" y="243" type="line"/>
      <point x="480.605" y="243" type="line"/>
      <point x="544.567" y="72.681" type="line" smooth="yes"/>
      <point x="559.169" y="32.664"/>
      <point x="532.384" y="9.91058"/>
      <point x="506.568" y="9.91058" type="curve" smooth="yes"/>
      <point x="497.776" y="9.91058" type="line"/>
      <point x="497.776" y="0" type="line"/>
      <point x="722.956" y="0" type="line"/>
      <point x="722.956" y="10" type="line"/>
      <point x="714.593" y="10" type="line" smooth="yes"/>
      <point x="683.959" y="10"/>
      <point x="646.968" y="28.4481"/>
      <point x="626.75" y="72.955" type="curve" smooth="yes"/>
    </contour>
    <contour>
      <point x="223.015" y="273" type="line"/>
      <point x="348.806" y="593.954" type="line"/>
      <point x="469.338" y="273" type="line"/>
    </contour>
    <contour>
      <point x="234.484" y="795.361" type="line"/>
      <point x="484.484" y="795.361" type="line"/>
      <point x="484.484" y="830.361" type="line"/>
      <point x="234.484" y="830.361" type="line"/>
    </contour>
  </outline>
</glyph>
<glyph name="amacron" format="1">
  <advance width="663"/>
  <unicode hex="0101"/>
  <outline>
    <contour>
      <point x="336.339" y="614" type="line"/>
      <point x="326.859" y="614" type="line"/>
      <point x="324.802" y="587.84"/>
      <point x="288.086" y="511"/>
      <point x="288.372" y="511" type="curve"/>
      <point x="81.3347" y="67.7539" type="line" smooth="yes"/>
      <point x="60.8232" y="27.006"/>
      <point x="29.5406" y="9.99961"/>
      <point x="2.9314" y="9.99961" type="curve" smooth="yes"/>
      <point x="-5" y="9.99961" type="line"/>
      <point x="-5" y="0" type="line"/>
      <point x="185.542" y="0" type="line"/>
      <point x="185.542" y="9.90751" type="line"/>
      <point x="177.594" y="9.90751" type="line" smooth="yes"/>
      <point x="154.253" y="9.90751"/>
      <point x="127.967" y="32.6631"/>
      <point x="143.248" y="72.681" type="curve" smooth="yes"/>
      <point x="198.295" y="203" type="line"/>
      <point x="451.268" y="203" type="line"/>
      <point x="505.896" y="69.9339" type="line"/>
      <point x="518.992" y="31.6243"/>
      <point x="493.351" y="9.9104"/>
      <point x="470.552" y="9.9104" type="curve" smooth="yes"/>
      <point x="462.602" y="9.9104" type="line"/>
      <point x="462.602" y="0" type="line"/>
      <point x="668.018" y="0" type="line"/>
      <point x="668.018" y="9.9999" type="line"/>
      <point x="660.458" y="9.9999" type="line" smooth="yes"/>
      <point x="633.752" y="9.9999"/>
      <point x="603.658" y="27.1542"/>
      <point x="583.269" y="68.2866" type="curve"/>
    </contour>
    <contour>
      <point x="210.972" y="233" type="line"/>
      <point x="326.606" y="506.656" type="line"/>
      <point x="438.952" y="233" type="line"/>
    </contour>
    <contour>
      <point x="209.947" y="695.361" type="line"/>
      <point x="459.947" y="695.361" type="line"/>
      <point x="459.947" y="730.361" type="line"/>
      <point x="209.947" y="730.361" type="line"/>
    </contour>
  </outline>
</glyph>
<glyph name="Aogonek" format="1">
  <advance width="737"/>
  <unicode hex="0104"/>
  <outline>
    <contour>
      <point x="748.035" y="9.191" type="line"/>
      <point x="739.235" y="9.191" type="line" smooth="yes"/>
      <point x="709.453" y="9.191"/>
      <point x="674.184" y="27.199"/>
      <point x="655.81" y="68.016" type="curve" smooth="yes"/>
      <point x="372.75" y="714" type="line"/>
      <point x="363.744" y="714" type="line"/>
      <point x="363.744" y="692.013"/>
      <point x="326.718" y="611"/>
      <point x="326.718" y="611" type="curve"/>
      <point x="86.712" y="72.9175" type="line" smooth="yes"/>
      <point x="66.4145" y="28.369"/>
      <point x="29.4045" y="10.21"/>
      <point x="-1" y="10.21" type="curve" smooth="yes"/>
      <point x="-10" y="10.21" type="line"/>
      <point x="-10" y="0.209979" type="line"/>
      <point x="191.245" y="0.209979" type="line"/>
      <point x="191.245" y="10.115" type="line"/>
      <point x="182.453" y="10.115" type="line" smooth="yes"/>
      <point x="156.687" y="10.115"/>
      <point x="129.958" y="32.4797"/>
      <point x="144.366" y="72.347" type="curve"/>
      <point x="215.233" y="243" type="line"/>
      <point x="502.145" y="243" type="line"/>
      <point x="570.53" y="70.9008" type="line" smooth="yes"/>
      <point x="586.013" y="29.4112"/>
      <point x="580.39" y="7.59368"/>
      <point x="551.821" y="-8" type="curve" smooth="yes"/>
      <point x="527.053" y="-22"/>
      <point x="502.106" y="-49"/>
      <point x="502.508" y="-84" type="curve" smooth="yes"/>
      <point x="503.832" y="-200"/>
      <point x="649.298" y="-201"/>
      <point x="679.521" y="-119" type="curve"/>
      <point x="673.521" y="-113" type="line"/>
      <point x="624.393" y="-164"/>
      <point x="549.55" y="-128"/>
      <point x="549.55" y="-71" type="curve" smooth="yes"/>
      <point x="549.55" y="-40"/>
      <point x="569.969" y="-7"/>
      <point x="612.321" y="0" type="curve" smooth="yes"/>
      <point x="655.046" y="7.33098"/>
      <point x="664.685" y="0.0999793"/>
      <point x="748.035" y="0.0999793" type="curve"/>
    </contour>
    <contour>
      <point x="227.691" y="273" type="line"/>
      <point x="361.85" y="596.065" type="line"/>
      <point x="490.224" y="273" type="line"/>
    </contour>
  </outline>
</glyph>
<glyph name="aogonek" format="1">
  <advance width="633"/>
  <unicode hex="0105"/>
  <outline>
    <contour>
      <point x="663.611" y="10" type="line"/>
      <point x="656.402" y="10" type="line" smooth="yes"/>
      <point x="632.738" y="10"/>
      <point x="606.277" y="24.8137"/>
      <point x="587.056" y="59.9171" type="curve"/>
      <point x="336.339" y="614" type="line"/>
      <point x="326.859" y="614" type="line"/>
      <point x="324.802" y="587.84"/>
      <point x="288.086" y="511"/>
      <point x="288.372" y="511" type="curve"/>
      <point x="81.3436" y="67.7729" type="line" smooth="yes"/>
      <point x="60.8322" y="27.0113"/>
      <point x="29.5447" y="9.99998"/>
      <point x="2.93103" y="9.99998" type="curve" smooth="yes"/>
      <point x="-5" y="9.99998" type="line"/>
      <point x="-5" y="0" type="line"/>
      <point x="185.542" y="0" type="line"/>
      <point x="185.542" y="9.90798" type="line"/>
      <point x="177.594" y="9.90798" type="line" smooth="yes"/>
      <point x="154.253" y="9.90798"/>
      <point x="127.967" y="32.664"/>
      <point x="143.248" y="72.681" type="curve" smooth="yes"/>
      <point x="198.295" y="203" type="line"/>
      <point x="451.268" y="203" type="line"/>
      <point x="504.856" y="72.4665" type="line" smooth="yes"/>
      <point x="520.019" y="32.5332"/>
      <point x="496.284" y="18.1545"/>
      <point x="471.89" y="9.90998" type="curve" smooth="yes"/>
      <point x="423.214" y="-7"/>
      <point x="395.306" y="-43"/>
      <point x="395.761" y="-82" type="curve" smooth="yes"/>
      <point x="397.085" y="-198"/>
      <point x="539.551" y="-201"/>
      <point x="569.774" y="-119" type="curve"/>
      <point x="563.774" y="-113" type="line"/>
      <point x="514.646" y="-164"/>
      <point x="443.804" y="-128"/>
      <point x="441.804" y="-71" type="curve" smooth="yes"/>
      <point x="440.693" y="-39"/>
      <point x="453.42" y="-10"/>
      <point x="492.751" y="0" type="curve" smooth="yes"/>
      <point x="534.15" y="10.477"/>
      <point x="612.635" y="0"/>
      <point x="663.611" y="0" type="curve"/>
    </contour>
    <contour>
      <point x="210.972" y="233" type="line"/>
      <point x="326.606" y="506.655" type="line"/>
      <point x="438.952" y="233" type="line"/>
    </contour>
  </outline>
</glyph>
<glyph name="Cacute" format="1">
  <advance width="760"/>
  <unicode hex="0106"/>
  <outline>
    <contour>
      <point x="702.006" y="291.85" type="line"/>
      <point x="679.263" y="87.058"/>
      <point x="559.123" y="16.3536"/>
      <point x="417.129" y="15.9292" type="curve" smooth="yes"/>
      <point x="249" y="20"/>
      <point x="135" y="151"/>
      <point x="135" y="352" type="curve" smooth="yes"/>
      <point x="135" y="551"/>
      <point x="247" y="684"/>
      <point x="422.814" y="684.074" type="curve" smooth="yes"/>
      <point x="543" y="684"/>
      <point x="641" y="622"/>
      <point x="671.378" y="505.264" type="curve"/>
      <point x="679.701" y="505.232" type="line"/>
      <point x="659.525" y="646.468" type="line"/>
      <point x="601" y="685"/>
      <point x="521" y="714"/>
      <point x="423" y="714" type="curve" smooth="yes"/>
      <point x="203" y="714"/>
      <point x="60" y="568"/>
      <point x="60" y="351" type="curve" smooth="yes"/>
      <point x="60" y="130"/>
      <point x="208" y="-13"/>
      <point x="417.128" y="-14" type="curve" smooth="yes"/>
      <point x="555.992" y="-14"/>
      <point x="645.441" y="48.7996"/>
      <point x="698.139" y="134.938" type="curve"/>
      <point x="710.328" y="291.886" type="line"/>
    </contour>
    <contour>
      <point x="417.122" y="763.971" type="line"/>
      <point x="470.745" y="790.399"/>
      <point x="524.369" y="817.828"/>
      <point x="577.992" y="849.256" type="curve"/>
      <point x="567.358" y="868.792"/>
      <point x="552.723" y="886.329"/>
      <point x="537.089" y="901.865" type="curve"/>
      <point x="494.767" y="861.234"/>
      <point x="452.444" y="816.602"/>
      <point x="410.122" y="770.971" type="curve"/>
    </contour>
  </outline>
</glyph>
<glyph name="cacute" format="1">
  <advance width="705"/>
  <unicode hex="0107"/>
  <outline>
    <contour>
      <point x="656.874" y="251.85" type="line"/>
      <point x="646.123" y="88.002"/>
      <point x="529.088" y="15.6526"/>
      <point x="380" y="16.9997" type="curve" smooth="yes"/>
      <point x="221.003" y="18.4363"/>
      <point x="121.97" y="127.083"/>
      <point x="121.97" y="300" type="curve" smooth="yes"/>
      <point x="121.97" y="476.126"/>
      <point x="220.836" y="584.073"/>
      <point x="379.197" y="584.073" type="curve" smooth="yes"/>
      <point x="503.2" y="584.073"/>
      <point x="596.529" y="534.785"/>
      <point x="627.17" y="412.263" type="curve"/>
      <point x="635.963" y="412.231" type="line"/>
      <point x="613.858" y="553.467" type="line"/>
      <point x="552.146" y="590.997"/>
      <point x="462.967" y="613.999"/>
      <point x="379.647" y="613.999" type="curve" smooth="yes"/>
      <point x="177.195" y="613.999"/>
      <point x="49.662" y="494.68"/>
      <point x="49.662" y="300" type="curve" smooth="yes"/>
      <point x="49.662" y="106.236"/>
      <point x="177.054" y="-13"/>
      <point x="379.647" y="-14" type="curve" smooth="yes"/>
      <point x="497.851" y="-14"/>
      <point x="603.105" y="34.9957"/>
      <point x="655.063" y="114.937" type="curve"/>
      <point x="665.666" y="251.886" type="line"/>
    </contour>
    <contour>
      <point x="380.06" y="663.971" type="line"/>
      <point x="433.683" y="690.399"/>
      <point x="487.307" y="717.828"/>
      <point x="540.93" y="749.256" type="curve"/>
      <point x="530.296" y="768.792"/>
      <point x="515.661" y="786.329"/>
      <point x="500.027" y="801.865" type="curve"/>
      <point x="457.705" y="761.234"/>
      <point x="415.382" y="716.602"/>
      <point x="373.06" y="670.971" type="curve"/>
    </contour>
  </outline>
</glyph>
<glyph name="ccaron" format="1">
  <advance width="705"/>
  <unicode hex="010D"/>
  <outline>
    <contour>
      <point x="656.874" y="251.85" type="line"/>
      <point x="646.123" y="88.002"/>
      <point x="529.088" y="15.6526"/>
      <point x="380" y="16.9997" type="curve" smooth="yes"/>
      <point x="221.003" y="18.4363"/>
      <point x="121.97" y="127.083"/>
      <point x="121.97" y="300" type="curve" smooth="yes"/>
      <point x="121.97" y="476.126"/>
      <point x="220.836" y="584.073"/>
      <point x="379.197" y="584.073" type="curve" smooth="yes"/>
      <point x="503.2" y="584.073"/>
      <point x="596.529" y="534.785"/>
      <point x="627.17" y="412.263" type="curve"/>
      <point x="635.963" y="412.231" type="line"/>
      <point x="613.858" y="553.467" type="line"/>
      <point x="552.146" y="590.997"/>
      <point x="462.967" y="613.999"/>
      <point x="379.647" y="613.999" type="curve" smooth="yes"/>
      <point x="177.195" y="613.999"/>
      <point x="49.662" y="494.68"/>
      <point x="49.662" y="300" type="curve" smooth="yes"/>
      <point x="49.662" y="106.236"/>
      <point x="177.054" y="-13"/>
      <point x="379.647" y="-14" type="curve" smooth="yes"/>
      <point x="497.851" y="-14"/>
      <point x="603.105" y="34.9957"/>
      <point x="655.063" y="114.937" type="curve"/>
      <point x="665.666" y="251.886" type="line"/>
    </contour>
    <contour>
      <point x="385.081" y="664.153" type="line"/>
      <point x="375.081" y="664.153" type="line"/>
      <point x="260.906" y="783.005" type="line"/>
      <point x="266.906" y="791.005" type="line"/>
      <point x="380.551" y="724.909" type="line"/>
      <point x="485.211" y="790.909" type="line"/>
      <point x="491.211" y="782.909" type="line"/>
    </contour>
  </outline>
</glyph>
<glyph name="Dcaron" format="1">
  <advance width="807"/>
  <unicode hex="010E"/>
  <outline>
    <contour>
      <point x="60.351" y="700.06" type="line"/>
      <point x="60.513" y="690.06" type="line"/>
      <point x="73.163" y="690.08" type="line" smooth="yes"/>
      <point x="106.244" y="690.08"/>
      <point x="136.862" y="665.023"/>
      <point x="136.862" y="632.864" type="curve" smooth="yes"/>
      <point x="136.862" y="72.7274" type="line" smooth="yes"/>
      <point x="136.135" y="37.9557"/>
      <point x="107.767" y="9.9789"/>
      <point x="72.811" y="9.9789" type="curve" smooth="yes"/>
      <point x="60.161" y="9.9999" type="line"/>
      <point x="60" y="0" type="line"/>
      <point x="398.536" y="0.0568978" type="line" smooth="yes"/>
      <point x="612.129" y="0.0568978"/>
      <point x="757.678" y="139.952"/>
      <point x="757.678" y="349.709" type="curve" smooth="yes"/>
      <point x="757.678" y="559.884"/>
      <point x="612.129" y="699.975"/>
      <point x="398.536" y="699.975" type="curve" smooth="yes"/>
    </contour>
    <contour>
      <point x="201.983" y="669.933" type="line"/>
      <point x="398.536" y="669.944" type="line" smooth="yes"/>
      <point x="568.94" y="669.944"/>
      <point x="682.678" y="541.85"/>
      <point x="682.678" y="349.709" type="curve" smooth="yes"/>
      <point x="682.678" y="158.148"/>
      <point x="569.94" y="30.4401"/>
      <point x="398.536" y="30.4401" type="curve" smooth="yes"/>
      <point x="201.983" y="30.451" type="line"/>
    </contour>
    <contour>
      <point x="404.196" y="764.153" type="line"/>
      <point x="394.196" y="764.153" type="line"/>
      <point x="280.021" y="883.005" type="line"/>
      <point x="286.021" y="891.005" type="line"/>
      <point x="399.666" y="824.909" type="line"/>
      <point x="504.326" y="890.909" type="line"/>
      <point x="510.326" y="882.909" type="line"/>
    </contour>
  </outline>
</glyph>
<glyph name="dcaron" format="1">
  <advance width="760"/>
  <unicode hex="010F"/>
  <outline>
    <contour>
      <point x="55.0352" y="600.06" type="line"/>
      <point x="55.2094" y="590.06" type="line"/>
      <point x="67.4486" y="590.08" type="line" smooth="yes"/>
      <point x="98.8378" y="590.08"/>
      <point x="123.563" y="567.701"/>
      <point x="124.589" y="536.144" type="curve" smooth="yes"/>
      <point x="124.589" y="64.2637" type="line" smooth="yes"/>
      <point x="123.704" y="34.4813"/>
      <point x="100.008" y="9.97896"/>
      <point x="68.4883" y="9.97896" type="curve" smooth="yes"/>
      <point x="55.1733" y="9.99996" type="line"/>
      <point x="55" y="0" type="line"/>
      <point x="388.558" y="0.0567589" type="line" smooth="yes"/>
      <point x="585.788" y="0.0567589"/>
      <point x="710.066" y="113.925"/>
      <point x="710.066" y="299.709" type="curve" smooth="yes"/>
      <point x="710.066" y="485.874"/>
      <point x="585.788" y="599.975"/>
      <point x="388.558" y="599.975" type="curve" smooth="yes"/>
    </contour>
    <contour>
      <point x="189.693" y="569.931" type="line"/>
      <point x="389.063" y="569.944" type="line" smooth="yes"/>
      <point x="542.587" y="569.944"/>
      <point x="637.775" y="467.255"/>
      <point x="637.775" y="299.709" type="curve" smooth="yes"/>
      <point x="637.775" y="132.762"/>
      <point x="542.613" y="30.4399"/>
      <point x="389.063" y="30.4399" type="curve" smooth="yes"/>
      <point x="189.693" y="30.4517" type="line"/>
    </contour>
    <contour>
      <point x="392.877" y="665.153" type="line"/>
      <point x="382.877" y="665.153" type="line"/>
      <point x="268.702" y="784.005" type="line"/>
      <point x="274.702" y="792.005" type="line"/>
      <point x="388.347" y="725.909" type="line"/>
      <point x="493.007" y="791.909" type="line"/>
      <point x="499.007" y="783.909" type="line"/>
    </contour>
  </outline>
</glyph>
<glyph name="dcroat" format="1">
  <advance width="760"/>
  <unicode hex="0111"/>
  <outline>
    <contour>
      <point x="55.0352" y="600.06" type="line"/>
      <point x="55.2094" y="590.06" type="line"/>
      <point x="67.4486" y="590.08" type="line" smooth="yes"/>
      <point x="98.8378" y="590.08"/>
      <point x="123.563" y="567.701"/>
      <point x="124.589" y="536.144" type="curve" smooth="yes"/>
      <point x="124.589" y="64.2637" type="line" smooth="yes"/>
      <point x="123.704" y="34.4813"/>
      <point x="100.008" y="9.97896"/>
      <point x="68.4883" y="9.97896" type="curve" smooth="yes"/>
      <point x="55.1733" y="9.99996" type="line"/>
      <point x="55" y="0" type="line"/>
      <point x="388.558" y="0.0567589" type="line" smooth="yes"/>
      <point x="585.788" y="0.0567589"/>
      <point x="710.066" y="113.925"/>
      <point x="710.066" y="299.709" type="curve" smooth="yes"/>
      <point x="710.066" y="485.874"/>
      <point x="585.788" y="599.975"/>
      <point x="388.558" y="599.975" type="curve" smooth="yes"/>
    </contour>
    <contour>
      <point x="189.693" y="569.931" type="line"/>
      <point x="389.063" y="569.944" type="line" smooth="yes"/>
      <point x="542.587" y="569.944"/>
      <point x="637.775" y="467.255"/>
      <point x="637.775" y="299.709" type="curve" smooth="yes"/>
      <point x="637.775" y="132.762"/>
      <point x="542.613" y="30.4399"/>
      <point x="389.063" y="30.4399" type="curve" smooth="yes"/>
      <point x="189.693" y="30.4517" type="line"/>
    </contour>
    <contour>
      <point x="265.744" y="696.361" type="line"/>
      <point x="515.744" y="696.361" type="line"/>
      <point x="515.744" y="731.361" type="line"/>
      <point x="265.744" y="731.361" type="line"/>
    </contour>
  </outline>
</glyph>
<glyph name="eogonek" format="1">
  <advance width="546"/>
  <unicode hex="0119"/>
  <outline>
    <contour>
      <point x="516.39" y="143.451" type="line"/>
      <point x="505.551" y="143.451" type="line"/>
      <point x="477.151" y="78.725"/>
      <point x="442.94" y="31.8767"/>
      <point x="346.871" y="30.59" type="curve" smooth="yes"/>
      <point x="190.5" y="30.59" type="line"/>
      <point x="190.5" y="285" type="line"/>
      <point x="363.668" y="285" type="line"/>
      <point x="389.788" y="283.442"/>
      <point x="401.869" y="265.084"/>
      <point x="401.869" y="242.625" type="curve" smooth="yes"/>
      <point x="401.851" y="229.923" type="line"/>
      <point x="412.734" y="229.816" type="line"/>
      <point x="412.734" y="370.276" type="line"/>
      <point x="401.851" y="370.168" type="line"/>
      <point x="401.87" y="357.466" type="line" smooth="yes"/>
      <point x="401.87" y="334.351"/>
      <point x="389.07" y="315.582"/>
      <point x="361.337" y="315" type="curve" smooth="yes"/>
      <point x="190.5" y="315" type="line"/>
      <point x="190.5" y="569.41" type="line"/>
      <point x="397.853" y="569.41" type="line" smooth="yes"/>
      <point x="428.291" y="568.812"/>
      <point x="447.988" y="546.054"/>
      <point x="447.988" y="518.017" type="curve" smooth="yes"/>
      <point x="447.967" y="502.651" type="line"/>
      <point x="458.849" y="502.522" type="line"/>
      <point x="458.849" y="615.683" type="line"/>
      <point x="441.444" y="608.911"/>
      <point x="387.362" y="600.28"/>
      <point x="347.134" y="600" type="curve" smooth="yes"/>
      <point x="55" y="600" type="line"/>
      <point x="55.1819" y="590" type="line"/>
      <point x="68.9098" y="590.021" type="line" smooth="yes"/>
      <point x="101.41" y="590.021"/>
      <point x="126.666" y="567.466"/>
      <point x="126.666" y="537.653" type="curve" smooth="yes"/>
      <point x="126.666" y="63.0736" type="line"/>
      <point x="125.455" y="33.5646"/>
      <point x="101.194" y="9.97991"/>
      <point x="68.9316" y="9.97991" type="curve" smooth="yes"/>
      <point x="55.2035" y="10" type="line"/>
      <point x="55.0228" y="0" type="line"/>
      <point x="461.269" y="0.00101032" type="line"/>
    </contour>
    <contour>
      <point x="500.435" y="-120" type="line"/>
      <point x="451.307" y="-171"/>
      <point x="380.465" y="-135"/>
      <point x="378.465" y="-78" type="curve" smooth="yes"/>
      <point x="377.147" y="-40"/>
      <point x="397.542" y="-13"/>
      <point x="452.97" y="0.01555" type="curve"/>
      <point x="442.97" y="3.01555" type="line"/>
      <point x="382.735" y="3.01555"/>
      <point x="331.81" y="-36"/>
      <point x="332.422" y="-89" type="curve" smooth="yes"/>
      <point x="333.746" y="-205"/>
      <point x="476.212" y="-208"/>
      <point x="506.435" y="-126" type="curve"/>
    </contour>
  </outline>
</glyph>
<glyph name="Gcommaaccent" format="1">
  <advance width="798"/>
  <unicode hex="0122"/>
  <outline>
    <contour>
      <point x="773.743" y="325.389" type="line"/>
      <point x="773.743" y="335.389" type="line"/>
      <point x="577.875" y="335.389" type="line"/>
      <point x="577.875" y="325.389" type="line"/>
      <point x="593.642" y="325.41" type="line" smooth="yes"/>
      <point x="625.918" y="325.455"/>
      <point x="645.075" y="309.049"/>
      <point x="645.075" y="279.843" type="curve" smooth="yes"/>
      <point x="645.075" y="102.656" type="line"/>
      <point x="587.402" y="49.354"/>
      <point x="506.333" y="15.926"/>
      <point x="419.42" y="15.926" type="curve" smooth="yes"/>
      <point x="249.918" y="16.8167"/>
      <point x="135" y="150.447"/>
      <point x="135" y="350" type="curve" smooth="yes"/>
      <point x="135" y="550.445"/>
      <point x="249.919" y="684.074"/>
      <point x="419.422" y="684.074" type="curve" smooth="yes"/>
      <point x="551.47" y="684.074"/>
      <point x="642.999" y="619.702"/>
      <point x="673.378" y="505.264" type="curve"/>
      <point x="681.701" y="505.232" type="line"/>
      <point x="661.525" y="646.468" type="line"/>
      <point x="602.775" y="684.286"/>
      <point x="529.117" y="714"/>
      <point x="419.128" y="714" type="curve" smooth="yes"/>
      <point x="206.768" y="714"/>
      <point x="60" y="568.401"/>
      <point x="60" y="350.002" type="curve" smooth="yes"/>
      <point x="60" y="132.363"/>
      <point x="206.768" y="-13"/>
      <point x="419.42" y="-14" type="curve" smooth="yes"/>
      <point x="569.586" y="-14"/>
      <point x="663.024" y="54.215"/>
      <point x="708.625" y="114.81" type="curve"/>
      <point x="708.625" y="280.182" type="line"/>
      <point x="708.151" y="309.103"/>
      <point x="726.339" y="325.41"/>
      <point x="758.673" y="325.41" type="curve" smooth="yes"/>
    </contour>
    <contour>
      <point x="385.525" y="-208" type="line"/>
      <point x="437.806" y="-206"/>
      <point x="480.868" y="-151"/>
      <point x="454.874" y="-89" type="curve" smooth="yes"/>
      <point x="441.343" y="-56"/>
      <point x="402.395" y="-58"/>
      <point x="392.2" y="-81" type="curve" smooth="yes"/>
      <point x="383.239" y="-101"/>
      <point x="400.148" y="-115"/>
      <point x="410.572" y="-128" type="curve" smooth="yes"/>
      <point x="424.253" y="-144"/>
      <point x="432.215" y="-186"/>
      <point x="383.574" y="-201" type="curve"/>
    </contour>
  </outline>
</glyph>
